<svg width="80" height="80" fill="none" xmlns="http://www.w3.org/2000/svg"><circle cx="39.727" cy="39.727" r="23.369" fill="#FF662D"/><path d="M46.738 39.727L36.222 45.8V33.656l10.516 6.071z" fill="#fff"/><g clip-path="url(#clip0)" fill="#fff"><path d="M.803 32.038l4.882.743-.107.697-1.941-.278c.105.512.134 1.004.088 1.475-.086.623-.282 1.054-.664 1.274-.381.22-.743.366-1.29.3l-1.545-.253.107-.697 1.47.232c.376.1.642.01.853-.175.21-.185.367-.466.392-.862.046-.472-.004-.888-.109-1.4l-2.317-.38.181-.676zm2.074-5.332l-.519 1.635 4.098 1.26-.181.677-4.098-1.26-.499 1.56-.602-.16 1.199-3.873.602.161zm4.562-.471c-.402.296-.764.44-1.18.49-.417.05-.868-.071-1.3-.267-.43-.196-.767-.448-.987-.83-.22-.381-.365-.742-.395-1.234-.03-.492.071-.868.288-1.375.12-.451.372-.787.774-1.083.402-.295.763-.44 1.18-.49.416-.05.867.071 1.299.267a2.56 2.56 0 011.063.85c.22.381.345.818.394 1.235.03.491-.07.868-.287 1.374a2.56 2.56 0 01-.85 1.063zm.474-2.373c.005-.321-.16-.607-.325-.893a1.29 1.29 0 00-.802-.619c-.281-.155-.677-.181-.998-.186-.322-.006-.608.16-.894.325-.286.165-.442.446-.618.802-.176.356-.182.677-.187.998-.005.321.16.607.325.894.165.286.426.517.802.618.281.156.677.181.998.187.322.005.608-.16.894-.325.286-.166.442-.447.618-.803.156-.28.257-.657.187-.998zm-.659-6.87l2.317-2.928.466.367-1.855 2.406 1.138.87.965-1.193c.367-.466.769-.762 1.11-.832.341-.07.718.031 1.129.303.41.271.556.633.606 1.05-.026.395-.147.847-.534 1.388l-1.256 1.68-4.086-3.111zm4.725 1.024c.252-.336.408-.616.393-.862-.015-.246-.105-.512-.31-.648-.467-.367-.979-.262-1.481.41l-.85 1.062 1.4 1.101.848-1.063zM13.8 9.714l1.23 4.442c.07.341.14.683.08.909-.082.3-.217.506-.353.712-.116.13-.306.24-.572.33l-.256-.552c.191-.11.287-.165.402-.296.211-.185.292-.486.242-.903l-.035-.17-4.118-1.184.537-.502 3.326 1.133-1.04-3.343.558-.576zm7.467-.177l.997 1.396-.497.351-.646-.899-3.29 2.345.647.898-.498.351-.996-1.396.19-.11c.211-.186.292-.487.092-.944-.2-.456-.53-1.029-.992-1.717l-.866-1.28L18.2 6.538l2.53 3.5.537-.5zm-3.614 1.451c.2.457.29.723.21 1.024l2.22-1.663-2.18-3.004-1.702 1.238.57.879c.406.592.682 1.07.882 1.526zM25.48 7.36l.255.552-3.183 1.647-2.213-4.383 3.088-1.592.256.552-2.44 1.282.695 1.315 2.154-1.116.255.552-2.154 1.116.751 1.411L25.48 7.36zm3.127-5.05l-1.596.54 1.425 4.011-.628.235-1.425-4.01-1.596.54-.18-.533 3.84-1.39.16.607zM36.523.157l.711 4.868-.682.14-.304-2.178-2.84.368.303 2.178-.682.14-.712-4.868.683-.14.323 2.103 2.766-.388-.324-2.103.758-.12zm5.495 3.569l-2.644-.063-.569 1.219-.717-.031 2.349-4.855.717.031 2.147 4.93-.718-.03-.565-1.2zm-.255-.552L40.727.72 39.61 3.081l2.153.093zm8.862 3.343l.852-3.482-2.441 2.491-.301-.08-.965-3.323-.852 3.481-.677-.181 1.195-4.76.526.14 1.145 3.855 2.788-2.882.527.141-1.195 4.76-.602-.16zm5.614 1.02l-2.383-1.042-.959.872-.637-.332 4.009-3.522.657.256-.072 5.384-.637-.332.022-1.284zm.01-.642l.064-2.645-1.919 1.744 1.855.9zm6.693.905c.125.438.08.91-.192 1.32-.292.487-.673.707-1.165.737-.492.029-.943-.092-1.505-.404l-1.028-.678-.814 1.233-.617-.407 2.715-4.111 1.569 1.065c.541.387.912.81 1.037 1.246zm-1.517 1.45c.321.005.532-.18.783-.517.252-.336.237-.582.147-.848s-.33-.572-.666-.823l-1.028-.679-1.222 1.85 1.028.679c.336.251.637.332.958.337zm3.442 4.309l-1.955-1.734-1.2.566-.521-.463 4.875-2.242.521.463-1.541 5.15-.522-.461.343-1.28zm.161-.602l.761-2.539-2.325 1.152 1.564 1.387zm4.263 6.061a3.15 3.15 0 01-1.644-1.086l-.402.296-.426-.518.402-.295c-.461-.688-.791-1.26-.705-1.882-.01-.568.207-1.074.724-1.5.517-.426 1.03-.53 1.651-.445.602.162 1.164.474 1.72 1.106l.402-.295.426.517-.402.296c.46.688.716 1.24.705 1.882.01.567-.282 1.054-.724 1.5-.593.405-1.105.51-1.727.424zm.011-.642c.376.1.813-.024 1.215-.32.401-.295.578-.652.528-1.068-.05-.416-.175-.853-.505-1.426l-2.471 2c.446.442.857.713 1.233.814zm-2.164-2.758c-.046.472.154.929.505 1.426l2.47-1.999c-.445-.442-.856-.713-1.233-.814-.376-.101-.812.024-1.214.32-.402.295-.578.651-.528 1.067zm3.108 6.156c-.03-.492.072-.868.343-1.28.272-.41.503-.67.98-.946.477-.276.818-.345 1.29-.3.471.046.847.147 1.259.418.41.272.726.598.947.98.2.457.325.893.374 1.31.03.492-.07.868-.342 1.279-.251.336-.503.672-.98.947a2.15 2.15 0 01-1.29.3c-.471-.046-.848-.147-1.259-.418-.41-.272-.651-.578-.947-.98a4.65 4.65 0 01-.375-1.31zm1.634 1.728c.28.156.582.237.903.242.321.005.662-.064.949-.23.286-.165.592-.405.748-.686.156-.281.237-.582.242-.903a1.857 1.857 0 00-.23-.949c-.165-.286-.405-.592-.686-.748a1.899 1.899 0 00-.903-.242 1.857 1.857 0 00-.949.23c-.286.165-.592.405-.748.686a1.9 1.9 0 00-.242.903c-.006.321.064.662.23.949.145.361.405.592.686.748zm6.562 5.307l-4.638 1.66-.236-.627 2.054-.74-.9-2.661-2.054.74-.235-.627 4.639-1.66.235.627-1.958.685.9 2.66 1.958-.685.235.628zm-2.983 6.62l-.588.084-.678-3.488 4.833-.882.624 3.392-.588.085-.483-2.71-1.44.26.488 2.388-.587.085-.584-2.334-1.536.314.539 2.806zm1.606 3.333c.116-.13.287-.165.457-.2.17-.035.301.08.431.196s.166.287.2.457c.035.17-.08.301-.196.431-.115.13-.286.166-.456.2-.171.036-.302-.08-.432-.195-.13-.116-.165-.287-.2-.457.04-.15.08-.301.196-.432zm2.192 8.975l-4.881-.744.106-.697 1.942.278a4.951 4.951 0 01-.089-1.475c.086-.622.282-1.053.664-1.274.327-.316.743-.365 1.29-.3l1.545.253-.106.698-1.47-.233c-.396-.025-.642-.01-.853.175-.211.185-.367.466-.393.862-.045.472.004.889.109 1.4l2.318.38-.182.677zm-2.073 5.331l.518-1.635-4.118-1.184.182-.677 4.118 1.184.519-1.635.601.16-1.123 3.893-.697-.106zm-4.562.472c.402-.296.763-.441 1.18-.49a2.5 2.5 0 011.32.191c.43.197.766.448.987.83.22.381.365.742.395 1.234.05.417-.072.868-.288 1.375-.196.431-.468.842-.85 1.063-.401.295-.763.44-1.18.49-.416.05-.887.004-1.298-.268a2.56 2.56 0 01-1.063-.849c-.22-.382-.366-.743-.395-1.235-.05-.416.071-.868.288-1.374.25-.336.577-.652.904-.968zm-.475 2.372c-.005.321.16.608.325.894.166.286.447.442.803.618.356.176.677.181.998.187.321.005.607-.16.894-.325.286-.166.442-.446.618-.802.176-.356.181-.678.187-.999.005-.32-.16-.607-.326-.893-.165-.286-.446-.442-.802-.618-.356-.176-.677-.182-.998-.187-.321-.006-.607.16-.894.325-.286.165-.442.446-.618.802-.176.356-.181.677-.187.998zm.735 6.891L70.64 65.75l-.466-.367 1.854-2.406-1.138-.87-.89 1.214c-.366.466-.692.782-1.109.832-.341.07-.738.044-1.129-.303-.41-.271-.556-.633-.606-1.05.026-.396.147-.847.534-1.389l1.257-1.679 3.935 3.07zm-4.746-.95c-.251.336-.407.617-.392.863.014.246.104.512.385.668.466.367.998.187 1.48-.41l.85-1.063-1.398-1.1-.925 1.042zM66.41 70.1l-1.324-4.386c-.07-.342-.14-.683-.08-.909.061-.226.217-.506.353-.712.115-.13.306-.24.572-.33l.276.477c-.191.11-.287.165-.402.295-.211.186-.292.487-.242.903l.035.17 4.023 1.24-.538.501-3.326-1.133 1.04 3.343-.387.542zm-7.487.253l-.997-1.396.518-.426.646.899 3.29-2.345-.647-.899.518-.426.996 1.396-.21.186c-.212.185-.292.486-.092.943.2.457.53 1.03.992 1.717l.866 1.28-2.792 1.995-2.53-3.5-.558.576zm3.615-1.451c-.2-.457-.29-.723-.21-1.024l-2.295 1.643 2.18 3.003 1.722-1.312-.57-.88c-.352-.496-.607-1.049-.827-1.43zM54.71 72.53l-.254-.552 3.183-1.647 2.308 4.328-3.088 1.592-.255-.552 2.44-1.282-.696-1.315-2.154 1.116-.255-.552 2.154-1.117-.751-1.41-2.631 1.391zm-3.071 5.145l1.596-.54-1.5-4.031.627-.235 1.5 4.03 1.597-.54.2.458-3.765 1.41-.255-.552zm-7.916 2.153l-.712-4.868.683-.14.304 2.178 2.84-.368-.303-2.178.682-.14.712 4.869-.683.14-.323-2.103-2.786.463.324 2.103-.738.044zm-5.495-3.569l2.569.043.569-1.219.717.031-2.274 4.875-.717-.031-2.147-4.93.717.03.566 1.2zm.18.532l1.036 2.455 1.116-2.362-2.152-.093zm-8.883-3.267l-.852 3.481 2.442-2.49.3.08.965 3.323.852-3.482.678.182-1.195 4.76-.527-.14-1.145-3.856-2.788 2.882-.527-.141 1.195-4.76.602.16zm-5.558-.925l2.382 1.041.96-.871.656.256-4.028 3.598-.657-.257-.004-5.404.657.257.034 1.38zm.01.567l.01 2.664 1.92-1.743-1.93-.921zm-6.714-.831a1.571 1.571 0 01.193-1.32c.291-.486.673-.706 1.165-.736.491-.03.943.092 1.505.404l1.027.678.815-1.233.616.407-2.639 4.131-1.59-.99c-.671-.503-.967-.904-1.092-1.341zm1.517-1.448c-.32-.006-.532.18-.708.536-.156.28-.236.581-.146.847.09.267.33.573.686.749l1.028.679 1.222-1.85-1.103-.7c-.357-.175-.712-.351-.979-.261zm-3.462-4.234l1.955 1.733 1.2-.566.521.463-4.854 2.167-.522-.463 1.542-5.151.596.482-.438 1.335zm-.216.506l-.76 2.538 2.399-1.131-1.64-1.407zm-4.283-5.986c.526.14 1.163.473 1.72 1.106l.401-.296.426.518-.402.295c.461.688.792 1.26.781 1.903.01.567-.207 1.073-.724 1.5-.518.425-1.03.53-1.652.444-.602-.162-1.163-.473-1.72-1.106l-.401.295-.426-.517.402-.296c-.481-.612-.792-1.26-.78-1.902.01-.642.206-1.074.723-1.5.518-.425 1.105-.51 1.652-.444zm2.249 3.344c.025-.396-.175-.853-.525-1.35l-2.472 1.999c.447.442.858.714 1.234.814.376.101.813-.024 1.215-.32.326-.315.522-.746.548-1.143zm-2.26-2.702c-.376-.1-.813.024-1.215.32-.401.295-.578.651-.528 1.068-.025.396.175.853.525 1.35l2.472-1.999c-.391-.347-.803-.618-1.254-.739zm-.944-3.398c.03.492-.072.868-.343 1.279-.271.411-.503.672-.98.947a2.15 2.15 0 01-1.29.3c-.471-.046-.847-.147-1.259-.418a2.934 2.934 0 01-.947-.98 4.65 4.65 0 01-.374-1.31c-.03-.492.07-.868.342-1.28.176-.355.503-.67.98-.946.381-.22.818-.346 1.29-.3.471.046.848.147 1.259.418.41.272.727.598.947.98.2.457.325.893.375 1.31zM8.23 56.689a1.899 1.899 0 00-.903-.242 1.857 1.857 0 00-.949.23c-.286.165-.517.425-.748.686-.156.28-.237.582-.242.903-.005.321.064.662.23.949.165.286.405.592.686.748.281.156.582.237.903.242.321.005.663-.064.949-.23.286-.165.517-.426.748-.686.231-.26.237-.582.242-.903a1.481 1.481 0 00-.305-.969c-.07-.341-.33-.572-.611-.728zm-6.582-5.232l4.638-1.66.235.628-2.053.74.976 2.68 2.053-.74.235.628-4.639 1.66-.235-.627 1.958-.685-.975-2.681-1.958.685-.235-.628zm2.983-6.62l.608-.16.678 3.489-4.853.957-.624-3.392.588-.085.558 2.73 1.44-.259-.488-2.389.587-.084.489 2.389 1.536-.315-.519-2.88zM2.95 41.484c-.116.13-.287.165-.457.2-.171.035-.301-.08-.432-.197-.13-.115-.165-.286-.2-.456-.035-.171.08-.301.196-.432.116-.13.287-.165.457-.2.17-.035.301.08.432.196a.61.61 0 01.22.382c-.06.226-.101.376-.217.507z"/></g><defs><clipPath id="clip0"><path fill="#fff" d="M0 0h80v80H0z"/></clipPath></defs></svg>