<svg width="290" height="49" fill="none" xmlns="http://www.w3.org/2000/svg"><path d="M1 1h239.342l19.362 23.5L240.342 48H1V1z" fill="#FF662D" stroke="#FF662D" stroke-width="2"/><path d="M267.661 25.13l.512-.63-.512-.63L249.1 1h5.539l19.073 23.5L254.639 48H249.1l18.561-22.87z" fill="#FF662D" stroke="#FF662D" stroke-width="2"/><path d="M282.661 25.13l.512-.63-.512-.63L264.1 1h5.539l19.073 23.5L269.639 48H264.1l18.561-22.87z" fill="#FF662D" stroke="#FF662D" stroke-width="2"/><path d="M37.281 20.2l2.31 3.276 2.31-3.276h2.128l-3.29 4.704L44.295 30h-2.156l-2.548-3.57L37.057 30h-2.1l3.542-5.026-3.318-4.774h2.1zm15.54 9.94c-.999 0-1.9-.215-2.702-.644a4.887 4.887 0 01-1.89-1.806c-.457-.775-.686-1.638-.686-2.59s.229-1.81.686-2.576a4.756 4.756 0 011.89-1.806c.803-.439 1.703-.658 2.702-.658.999 0 1.9.22 2.702.658a4.786 4.786 0 011.89 1.792c.457.765.686 1.629.686 2.59 0 .961-.229 1.825-.686 2.59a4.887 4.887 0 01-1.89 1.806c-.803.43-1.703.644-2.702.644zm0-1.596a3.58 3.58 0 001.764-.434 3.26 3.26 0 001.232-1.232 3.569 3.569 0 00.448-1.778 3.5 3.5 0 00-.448-1.764 3.128 3.128 0 00-1.232-1.232 3.491 3.491 0 00-1.764-.448 3.5 3.5 0 00-1.764.448c-.523.29-.933.7-1.232 1.232a3.491 3.491 0 00-.448 1.764c0 .653.15 1.246.448 1.778.299.523.71.933 1.232 1.232a3.58 3.58 0 001.764.434zM70.35 20.2V30h-1.806v-3.696c-.924.345-1.801.518-2.632.518-1.25 0-2.217-.299-2.898-.896-.672-.607-1.008-1.475-1.008-2.604V20.2h1.806v2.926c0 .69.2 1.218.602 1.582.401.364.975.546 1.722.546a5.73 5.73 0 002.408-.518V20.2h1.806zm13.96 0l-4.255 7.91c-.374.7-.822 1.227-1.344 1.582a2.949 2.949 0 01-1.68.518c-.486 0-.966-.103-1.442-.308l.448-1.428c.382.121.7.182.952.182.588 0 1.073-.303 1.456-.91l.154-.238-3.906-7.308h1.946l2.898 5.754 2.982-5.754h1.792zm19.649 0V30h-1.82v-4.2H97.07V30h-1.82v-9.8h1.82v4.046h5.069V20.2h1.82zm12.045 7.532h-4.9L110.138 30h-1.876l4.41-9.8h1.792l4.424 9.8h-1.904l-.98-2.268zm-.602-1.428l-1.848-4.284-1.834 4.284h3.682zM138.862 30l-.014-6.496-3.22 5.376h-.812l-3.22-5.292V30h-1.722v-9.8h1.498l3.878 6.482 3.836-6.482h1.484l.028 9.8h-1.736zm13.774-2.268h-4.9L146.77 30h-1.876l4.41-9.8h1.792l4.424 9.8h-1.904l-.98-2.268zm-.602-1.428l-1.848-4.284-1.834 4.284h3.682zm11.821-6.104c.849 0 1.586.14 2.212.42.634.28 1.12.681 1.456 1.204.336.523.504 1.143.504 1.862 0 .71-.168 1.33-.504 1.862-.336.523-.822.924-1.456 1.204-.626.28-1.363.42-2.212.42h-2.212V30h-1.82v-9.8h4.032zm-.084 5.432c.793 0 1.395-.168 1.806-.504.41-.336.616-.817.616-1.442s-.206-1.106-.616-1.442c-.411-.336-1.013-.504-1.806-.504h-2.128v3.892h2.128zm14.781 2.1h-4.9L172.686 30h-1.876l4.41-9.8h1.792l4.424 9.8h-1.904l-.98-2.268zm-.602-1.428l-1.848-4.284-1.834 4.284h3.682zm18.852-1.218c0 1.288-.448 2.305-1.344 3.052-.896.747-2.17 1.153-3.822 1.218v1.036h-1.68v-1.036c-1.652-.084-2.93-.495-3.836-1.232-.896-.737-1.344-1.75-1.344-3.038 0-1.288.448-2.3 1.344-3.038.906-.747 2.184-1.162 3.836-1.246v-.994h1.68v.994c1.652.084 2.926.5 3.822 1.246.896.737 1.344 1.75 1.344 3.038zm-5.166 2.842c1.12-.084 1.97-.364 2.548-.84.579-.485.868-1.157.868-2.016s-.294-1.526-.882-2.002c-.578-.476-1.423-.751-2.534-.826v5.684zm-5.082-2.842c0 .85.29 1.512.868 1.988.588.476 1.433.76 2.534.854v-5.684c-2.268.168-3.402 1.115-3.402 2.842zm19.496 5.054c-.999 0-1.9-.215-2.702-.644a4.883 4.883 0 01-1.89-1.806c-.458-.775-.686-1.638-.686-2.59s.228-1.81.686-2.576a4.752 4.752 0 011.89-1.806c.802-.439 1.703-.658 2.702-.658.998 0 1.899.22 2.702.658a4.796 4.796 0 011.89 1.792c.457.765.686 1.629.686 2.59 0 .961-.229 1.825-.686 2.59a4.897 4.897 0 01-1.89 1.806c-.803.43-1.704.644-2.702.644zm0-1.596c.653 0 1.241-.145 1.764-.434a3.26 3.26 0 001.232-1.232 3.576 3.576 0 00.448-1.778 3.5 3.5 0 00-.448-1.764 3.134 3.134 0 00-1.232-1.232 3.493 3.493 0 00-1.764-.448c-.654 0-1.242.15-1.764.448-.523.29-.934.7-1.232 1.232a3.488 3.488 0 00-.448 1.764c0 .653.149 1.246.448 1.778.298.523.709.933 1.232 1.232.522.29 1.11.434 1.764.434zm18.798-8.344V30h-1.82v-4.2h-5.068V30h-1.82v-9.8h1.82v4.046h5.068V20.2h1.82z" fill="#fff"/></svg>