<svg width="47" height="36" fill="none" xmlns="http://www.w3.org/2000/svg"><path d="M30.035 24.206s.168-.157.42-.47l1.263-1.172c1.095-1.017 2.61-2.346 4.294-3.831v.234a441.8 441.8 0 00-4.294-3.753l-1.262-1.173c-.337-.312-.421-.469-.421-.469s.168.157.505.391c.337.313.842.704 1.347 1.095 1.094.938 2.694 2.267 4.378 3.753l.084.078-.084.078a547.492 547.492 0 01-4.378 3.831c-.505.47-1.01.86-1.347 1.095-.337.234-.505.39-.505.313zM16.901 13.493s-.168.156-.42.47l-1.264 1.172c-1.094 1.017-2.61 2.346-4.293 3.831v-.234a442.19 442.19 0 004.293 3.753l1.263 1.173c.337.313.421.469.421.469s-.168-.156-.505-.391c-.337-.313-.842-.704-1.347-1.095-1.094-.938-2.694-2.267-4.378-3.753l-.084-.078.084-.078c1.684-1.486 3.2-2.815 4.378-3.831.505-.47 1.01-.86 1.347-1.095.253-.235.421-.313.505-.313zm3.368 13.292c-.084 0 1.263-3.596 3.115-8.053 1.768-4.378 3.283-7.975 3.367-7.975.084 0-1.263 3.597-3.115 8.053-1.852 4.457-3.283 7.975-3.367 7.975z" fill="#fff" stroke="#fff"/><path d="M44.936 34.448v-8.914c0-5.63 0-13.682-.084-23.456l.084.078H2.168L2.337 2v32.37l-.169-.157c12.713 0 23.32.078 30.897.078h11.703c.084.157.168.157.168.157H33.15c-7.493 0-18.185 0-30.982.078H2V2h43.02v.078c0 9.774-.084 17.827-.084 23.535v8.835z" fill="#fff"/><path d="M44.936 34.448v-8.914c0-5.63 0-13.682-.084-23.456l.084.078H2.168L2.337 2v32.37l-.169-.157c12.713 0 23.32.078 30.897.078h11.703c.084.157.168.157.168.157zm0 0H33.15c-7.493 0-18.185 0-30.982.078H2V2h43.02v.078c0 9.774-.084 17.827-.084 23.535v8.835z" stroke="#fff"/><path d="M45.273 6.926c0 .078-9.682.157-21.553.157-11.87 0-21.552-.079-21.552-.157s9.682-.156 21.553-.156c11.87 0 21.552.078 21.552.156zM5.704 4.58c0 .314-.252.549-.589.549-.337 0-.59-.235-.59-.548 0-.313.253-.548.59-.548.337 0 .59.235.59.548zm1.516.547c.325 0 .589-.245.589-.547 0-.302-.264-.547-.59-.547-.325 0-.589.245-.589.547 0 .302.264.547.59.547zm2.694-.547c0 .313-.253.547-.59.547-.336 0-.589-.234-.589-.547 0-.313.253-.547.59-.547.336 0 .589.234.589.547z" fill="#fff" stroke="#fff"/></svg>