<svg aria-hidden="true" style="position:absolute;width:0;height:0" xmlns="http://www.w3.org/2000/svg" overflow="hidden"><defs><symbol id="clock" viewBox="0 0 60 60"><circle cx="30" cy="30" r="30"/><g clip-path="url(#clip0)" fill="#fff"><path d="M29.063 23.375h1.875v6.95l-4.493 4.493-1.326-1.325 3.944-3.944v-6.174zm-5.623-8.049L22.116 14l-7.11 7.11 1.325 1.326 7.11-7.11zM45 21.11L37.89 14l-1.326 1.326 7.11 7.11L45 21.111z"/><path d="M30 17.75c7.237 0 13.125 5.888 13.125 13.125S37.237 44 30 44s-13.125-5.888-13.125-13.125S22.763 17.75 30 17.75zm0 24.375c6.204 0 11.25-5.046 11.25-11.25 0-6.203-5.046-11.25-11.25-11.25-6.203 0-11.25 5.047-11.25 11.25 0 6.204 5.047 11.25 11.25 11.25z"/></g><defs><clipPath id="clip0"><path fill="#fff" transform="matrix(-1 0 0 1 45 14)" d="M0 0h30v30H0z"/></clipPath></defs>&gt;</symbol><symbol id="coding" viewBox="0 0 60 60"><circle cx="30" cy="30" r="30"/><path d="M45 40.313V15H15v25.313h10.313v2.812h-1.875V45h13.125v-1.875h-1.876v-2.813H45zm-12.188 2.812h-5.624v-2.813h5.625v2.813zm-7.5-4.688h-8.437V16.875h26.25V33.75H26.25v1.875h16.875v2.813H25.312z" fill="#fff"/><path d="M23.712 20.9L19.3 25.313l4.413 4.412 1.326-1.325-3.087-3.087 3.087-3.088-1.326-1.325zm12.576 8.825l4.413-4.413-4.413-4.412-1.326 1.325 3.087 3.087-3.087 3.088 1.326 1.325zm-3.575-7.744l-1.677-.838-3.75 7.5 1.677.838 3.75-7.5zM20.625 33.75H18.75v1.875h1.875V33.75zm3.75 0H22.5v1.875h1.875V33.75z" fill="#fff"/>&gt;</symbol><symbol id="dollar" viewBox="0 0 60 60"><circle cx="30" cy="30" r="30"/><path d="M41.25 18.75v1.875h1.875v15h-22.5v-15h11.25V18.75H18.75v3.75H15v18.75h26.25V37.5H45V18.75h-3.75zm-1.875 20.625h-22.5v-15h1.875V37.5h20.625v1.875z" fill="#fff"/><path d="M35.625 18.75H33.75v1.875h1.875V18.75zm3.75 0H37.5v1.875h1.875V18.75zm-.937 4.688V22.5H25.312v.938a1.875 1.875 0 01-1.875 1.875H22.5v5.625h.938c1.035 0 1.875.839 1.875 1.875v.937h13.125v-.938c0-1.035.839-1.874 1.874-1.874h.938v-5.625h-.938a1.875 1.875 0 01-1.874-1.875zm-10.313 4.687a7.42 7.42 0 00.938 3.75h-1.995a3.764 3.764 0 00-2.693-2.694v-2.112a3.764 3.764 0 002.693-2.694h1.994a7.42 7.42 0 00-.937 3.75zm3.75 3.75c-.885 0-1.875-1.603-1.875-3.75 0-2.147.99-3.75 1.875-3.75s1.875 1.603 1.875 3.75c0 2.147-.99 3.75-1.875 3.75zm7.5-2.694a3.764 3.764 0 00-2.693 2.694h-1.995a7.42 7.42 0 00.938-3.75 7.42 7.42 0 00-.938-3.75h1.995a3.764 3.764 0 002.693 2.694v2.112z" fill="#fff"/>&gt;</symbol><symbol id="face" viewBox="0 0 60 60"><circle cx="30" cy="30" r="30"/><path d="M30 15c-8.284 0-15 6.716-15 15 0 8.284 6.716 15 15 15 8.284 0 15-6.716 15-15 0-8.284-6.716-15-15-15zm0 28.125c-7.249 0-13.125-5.876-13.125-13.125S22.751 16.875 30 16.875 43.125 22.751 43.125 30 37.249 43.125 30 43.125z" fill="#fff"/><path d="M25.313 27.188a1.875 1.875 0 100-3.75 1.875 1.875 0 000 3.75zm9.375 0a1.875 1.875 0 100-3.75 1.875 1.875 0 000 3.75zM30 29.063a8.438 8.438 0 00-8.438 8.437h1.875a6.562 6.562 0 1113.125 0h1.876A8.438 8.438 0 0030 29.062z" fill="#fff"/>&gt;</symbol><symbol id="id-card" viewBox="0 0 60 60"><circle cx="30" cy="30" r="30"/><path d="M16.875 27.125H15V29h1.875v-1.875zm0 3.75H15v1.875h1.875v-1.875z" fill="#fff"/><path d="M15 20.563v4.687h1.875v-2.813h26.25v16.875H30v-1.874a5.625 5.625 0 00-2.913-4.925 3.75 3.75 0 10-5.424 0 5.625 5.625 0 00-2.913 4.925v1.874h-1.875v-4.687H15v6.563h30V20.561H15zm9.375 7.5a1.875 1.875 0 110 3.75 1.875 1.875 0 010-3.75zm3.75 11.25h-7.5v-1.876a3.75 3.75 0 117.5 0v1.876z" fill="#fff"/><path d="M41.25 28.063h-9.375v1.875h9.375v-1.875zm-3.75 3.75h-5.625v1.875H37.5v-1.876zm3.75 0h-1.875v1.875h1.875v-1.876zm0-15h-22.5v1.875h22.5v-1.875z" fill="#fff"/></symbol><symbol id="money" viewBox="0 0 60 60"><circle cx="30" cy="30" r="30"/><path d="M43.03 25.383a2.23 2.23 0 00.055-.49v-3.83c0-3.316-7.235-5.106-14.043-5.106-6.807 0-14.042 1.79-14.042 5.107 0 .143.014.283.04.42a.634.634 0 00-.04.218v3.192c0 1.06.741 1.965 1.971 2.705a2.176 2.176 0 00-.015.907.631.631 0 00-.041.217v3.192c0 .293.058.574.165.843-1.178.873-1.442 1.746-1.442 2.348 0 .143.015.283.041.42a.631.631 0 00-.04.219v3.191c0 3.317 7.234 5.107 14.042 5.107 6.807 0 14.043-1.79 14.043-5.107v-3.83a2.23 2.23 0 00-.167-.836c.91-.67 1.443-1.456 1.443-2.355v-3.83c0-.703-.352-1.724-1.97-2.702zM19.766 18.51c2.469-.823 5.763-1.276 9.277-1.276 3.513 0 6.807.453 9.276 1.276 2.185.728 3.49 1.683 3.49 2.554 0 .87-1.305 1.825-3.49 2.554-2.469.822-5.763 1.276-9.277 1.276-3.513 0-6.808-.454-9.276-1.276-2.185-.729-3.49-1.683-3.49-2.554 0-.87 1.305-1.826 3.49-2.554zm22.043 4.782v1.602c0 .737-.94 1.535-2.554 2.204V24.64c1.03-.38 1.902-.83 2.553-1.347zm-3.83 1.763v2.5c-.782.243-1.639.45-2.553.62v-2.54c.9-.16 1.757-.353 2.553-.58zm-3.83.778v2.55c-.819.114-1.673.201-2.553.259v-2.555a36.91 36.91 0 002.553-.254zm-3.83.316v2.554a40.193 40.193 0 01-2.553 0v-2.554a39.169 39.169 0 002.553 0zm-3.83-.062v2.555a34.643 34.643 0 01-2.553-.26v-2.549c.832.113 1.688.198 2.553.254zm-3.83-.453v2.541a22.445 22.445 0 01-2.553-.62v-2.5c.796.227 1.654.42 2.554.58zm-6.382-.74v-1.602c.651.516 1.524.966 2.553 1.347v2.46c-1.615-.67-2.553-1.468-2.553-2.205zm1.915 5.42c.65.516 1.524.965 2.553 1.346v2.46c-1.615-.67-2.553-1.467-2.553-2.205v-1.602zm1.276 10.827c-1.614-.67-2.553-1.467-2.553-2.205v-1.602c.651.517 1.524.967 2.553 1.348v2.459zm3.83 1.077a22.488 22.488 0 01-2.553-.62v-2.5c.795.227 1.653.42 2.553.579v2.54zm3.83.466a34.695 34.695 0 01-2.553-.259v-2.55a37.02 37.02 0 002.553.255v2.554zm3.83.062a40.195 40.195 0 01-2.554 0v-2.554a39.442 39.442 0 002.553 0v2.554zm3.83-.32c-.82.114-1.674.201-2.554.258V40.13a36.894 36.894 0 002.553-.254v2.55zm3.829-.828c-.781.243-1.638.45-2.553.62v-2.541a25.37 25.37 0 002.553-.58v2.501zm3.83-2.662c0 .738-.939 1.535-2.553 2.205v-2.46c1.029-.38 1.901-.83 2.553-1.346v1.601zm-3.49-1.276c-2.468.823-5.763 1.276-9.276 1.276-3.514 0-6.808-.453-9.276-1.276-2.186-.728-3.49-1.683-3.49-2.554 0-.5.433-.956.893-1.3 2.137 2.1 7.776 3.215 13.15 3.215 4.297 0 8.763-.713 11.474-2.073a.949.949 0 01.015.158c0 .871-1.305 1.826-3.49 2.554zm-16.936-3.083v-2.501c.796.227 1.654.42 2.553.58v2.54a22.445 22.445 0 01-2.553-.62zm3.83.827v-2.55c.832.113 1.688.198 2.553.254v2.555a34.634 34.634 0 01-2.553-.259zm3.83.32v-2.553a39.453 39.453 0 002.553 0v2.553a40.193 40.193 0 01-2.553 0zm3.83-.061v-2.555a36.897 36.897 0 002.553-.254v2.55a34.58 34.58 0 01-2.553.259zm3.83-.467v-2.54c.899-.16 1.757-.353 2.553-.58v2.5c-.782.243-1.639.45-2.553.62zm6.382-3.281c0 .738-.938 1.535-2.553 2.204V31.66c1.03-.38 1.902-.83 2.553-1.347v1.602zm-3.49-1.276c-2.467.823-5.762 1.276-9.275 1.276-3.514 0-6.809-.453-9.277-1.276-2.072-.69-3.35-1.585-3.477-2.419C20.945 29.39 25.066 30 29.043 30c5.595 0 11.479-1.21 13.397-3.482.83.516 1.283 1.065 1.283 1.567 0 .87-1.304 1.825-3.49 2.554z" fill="#fff"/></symbol><symbol id="person" viewBox="0 0 60 60"><circle cx="30" cy="30" r="30"/><path d="M37.677 36.781l-2.782 3.18V45h1.875v-4.336l2.317-2.65a17.184 17.184 0 003.891-7.826l-1.836-.375a15.306 15.306 0 01-3.465 6.967zM21.77 34.687h-2.397l2.397-6.391v-1.577c0-1.692.434-3.354 1.263-4.828l-1.633-.922a11.73 11.73 0 00-1.505 5.75v1.235l-3.228 8.608h3.228v4.688h4.688V45h1.875v-5.625H21.77v-4.688zm3.424-15.431l-1.219-1.421c-.516.443-.994.93-1.426 1.456L24 20.48a9.87 9.87 0 011.195-1.224zM26.457 15v13.125h2.813v4.564l6.844-4.564h7.219V15H26.458zm15 11.25h-5.906l-4.406 2.936V26.25h-2.813v-9.375h13.126v9.375z" fill="#fff"/><path d="M39.583 18.75h-9.375v1.875h9.375V18.75zm0 3.75h-1.875v1.875h1.875V22.5zm-3.75 0h-5.625v1.875h5.625V22.5z" fill="#fff"/></symbol><symbol id="sofa" viewBox="0 0 60 60"><circle cx="30" cy="30" r="30"/><path d="M43.125 24.547v-2.985a2.813 2.813 0 00-2.813-2.812h-.937v1.875h.938c.517 0 .937.42.937.938v2.985a2.813 2.813 0 00-1.875 2.64v.937h-8.438v-6.563c0-.517.42-.937.938-.937h1.875V18.75h-1.875a2.8 2.8 0 00-1.875.718 2.8 2.8 0 00-1.875-.718H26.25v1.875h1.875c.518 0 .938.42.938.938v6.562h-8.438v-.938a2.813 2.813 0 00-1.875-2.64v-2.985c0-.517.42-.937.938-.937h.976V18.75h-.977a2.813 2.813 0 00-2.812 2.813v2.985A2.813 2.813 0 0015 27.188v12.187h1.875v1.875h1.875v-1.875h22.5v1.875h1.875v-1.875H45V27.187a2.813 2.813 0 00-1.875-2.64zM18.75 37.5h-1.875V27.187a.937.937 0 111.875 0V37.5zm20.625 0h-18.75v-3.75h18.75v3.75zm0-5.625h-18.75V30h18.75v1.875zm3.75 5.625H41.25V27.187a.937.937 0 111.875 0V37.5z" fill="#fff"/><path d="M24.375 18.75H22.5v1.875h1.875V18.75zm13.125 0h-1.875v1.875H37.5V18.75z" fill="#fff"/></symbol><symbol id="summer" viewBox="0 0 60 60"><circle cx="30" cy="30" r="30"/><path d="M41.37 21.428l1.435-1.204a9.335 9.335 0 00-1.5-1.434l-1.137 1.49c.441.338.845.723 1.202 1.148z" fill="#fff"/><path d="M43.96 21.953l-1.668.861a7.39 7.39 0 01.775 2.498H28.184a7.511 7.511 0 017.441-6.562 7.426 7.426 0 013.116.676l.78-1.707a9.286 9.286 0 00-2.959-.794V15h-1.874v1.923a9.387 9.387 0 00-8.438 9.327v.938h8.438V30h1.874v-2.813H45v-.937a9.422 9.422 0 00-1.04-4.297zm-7.397 13.672h-1.876v7.5h-2.233l-2.37-4.74 2.67-7.117-1.757-.657-1.178 3.14h-6.023L21.92 37.5h-2.735l-3.75 5.624H15V45h30v-1.875h-8.438v-7.5zm-11.609 0h4.162l-.703 1.875h-4.396l.937-1.875zm-7.265 7.5l2.5-3.75h8.294l1.875 3.75h-12.67z" fill="#fff"/><path d="M36.563 31.875h-1.876v1.875h1.876v-1.875z" fill="#fff"/></symbol><symbol id="weekend" viewBox="0 0 60 60"><circle cx="30" cy="30" r="30"/><path d="M39.375 37.5a3.75 3.75 0 100 7.5 3.75 3.75 0 000-7.5zm0 5.625a1.875 1.875 0 110-3.75 1.875 1.875 0 010 3.75zM26.25 37.5a3.75 3.75 0 100 7.5 3.75 3.75 0 000-7.5zm0 5.625a1.875 1.875 0 110-3.75 1.875 1.875 0 010 3.75zm0-7.5V33.75h-2.813a1.875 1.875 0 01-1.875-1.875V18.75a3.75 3.75 0 00-3.75-3.75H15v1.875h2.813c1.035 0 1.875.84 1.875 1.875v13.125a3.75 3.75 0 003.75 3.75h2.812zM45 33.75H31.875v1.875H45V33.75z" fill="#fff"/><path d="M27.188 31.875h5.625V30h-5.626a.937.937 0 01-.937-.938v-7.5c0-.517.42-.937.938-.937h13.125c.517 0 .937.42.937.938v7.5c0 .517-.42.937-.938.937h-1.874v1.875h1.874a2.813 2.813 0 002.813-2.813v-7.5a2.813 2.813 0 00-2.813-2.812H37.5V15H30v3.75h-2.813a2.813 2.813 0 00-2.812 2.813v7.5a2.813 2.813 0 002.813 2.812zm4.687-15h3.75v1.875h-3.75v-1.875z" fill="#fff"/><path d="M30 22.5h-1.875v5.625H30V22.5zm9.375 0H37.5v5.625h1.875V22.5zM30 33.75h-1.875v1.875H30V33.75zM36.563 30h-1.876v1.875h1.876V30z" fill="#fff"/></symbol><symbol id="win" viewBox="0 0 60 60"><circle cx="30" cy="30" r="30"/><path d="M31.875 43.125h1.875V45h-1.875v-1.875zm3.75 0H37.5V45h-1.875v-1.875z" fill="#fff"/><path d="M18.75 43.125v-3.75h7.5v-3.75h7.5v-3.75h7.5v-7.5h-9.954l2.343-4.688L31.296 15h11.829v16.875H45V45h-5.625v-1.875h3.75V33.75h-7.5v3.75h-7.5v3.75h-7.5v1.875H30V45H15v-1.875h3.75zm22.5-26.25h-6.92l1.406 2.813-1.407 2.812h6.921v-5.625z" fill="#fff"/></symbol><symbol id="work" viewBox="0 0 60 60"><circle cx="30" cy="30" r="30"/><path d="M44.464 23.84h-2.968c.511-.57.825-1.32.825-2.144a3.218 3.218 0 00-3.214-3.214 3.218 3.218 0 00-3.214 3.214c0 .824.314 1.574.825 2.143h-1.36a.536.536 0 00-.536.536v.59a2.683 2.683 0 00-2.143 2.624v3.75c0 1.294.922 2.376 2.142 2.625v3.097l-2.578 3.61a.535.535 0 00.115.74l2.143 1.607a.535.535 0 00.767-.131l3.214-4.822a.542.542 0 00.09-.297V35.75l1.607 3.215v3.623c0 .296.24.536.535.536h2.679c.296 0 .536-.24.536-.536v-3.75a.538.538 0 00-.057-.24l-2.45-4.901a2.676 2.676 0 001.381-1.823h1.661c.297 0 .536-.24.536-.536v-6.964a.536.536 0 00-.536-.536zm-7.5-2.144a2.144 2.144 0 014.286 0 2.145 2.145 0 01-2.143 2.143 2.145 2.145 0 01-2.143-2.143zM34.69 41.821l-1.271-.953 2.374-3.325c.065-.09.1-.2.1-.31v-3.215H37.5v3.587l-2.81 4.216zm8.167-2.855v3.088H41.25v-3.215a.536.536 0 00-.056-.24l-2.291-4.581h1.276c.066 0 .129-.015.194-.02l2.484 4.968zm-2.678-6.02h-4.822a1.61 1.61 0 01-1.607-1.607v-3.75c0-.697.45-1.287 1.072-1.508v5.258c0 .296.239.536.535.536h6.337a1.61 1.61 0 01-1.515 1.071zm3.75-2.142h-3.75v-1.608h-1.072v1.608h-3.214V24.91h8.036v5.893zm-14.465-7.233c0-.288-.071-.559-.188-.803h3.67a1.877 1.877 0 001.875-1.875 1.877 1.877 0 00-1.875-1.875H15v1.071h1.071v9.643H15v1.072h12.59a1.877 1.877 0 001.874-1.875c0-.525-.218-.999-.566-1.34a1.867 1.867 0 000-2.678c.348-.341.566-.815.566-1.34zm-11.25 6.161h-1.071V20.09h1.071v9.643zm15.536-8.84c0 .444-.36.804-.804.804h-8.839a2.65 2.65 0 00-.55-1.607h9.39c.442 0 .803.36.803.804zm-5.357 5.358c0 .443-.36.804-.804.804h-4.018v1.071h4.018a.805.805 0 010 1.607h-8.303V20.09h2.143a1.61 1.61 0 011.607 1.607v3.215a.805.805 0 01-1.607 0v-2.679h-1.072v2.679c0 1.034.841 1.875 1.875 1.875.847 0 1.555-.568 1.788-1.34h3.57c.442 0 .803.361.803.804zm-4.286-1.875v-1.607h3.482a.805.805 0 010 1.607h-3.482zm6.964 17.679H30v1.071h1.071v-1.071zm-2.142 0h-1.072v1.071h1.072v-1.071zm-2.143 0h-1.072v1.071h1.072v-1.071z" fill="#fff"/></symbol><symbol id="group" viewBox="0 0 60 60"><circle cx="30" cy="30" r="30"/><g clip-path="url(#clip0)" fill="#fff"><path d="M24.378 26.259v2.811h11.244v-2.81a5.622 5.622 0 00-2.911-4.922 3.748 3.748 0 10-5.422 0 5.623 5.623 0 00-2.911 4.922zM30 16.889a1.874 1.874 0 110 3.748 1.874 1.874 0 010-3.748zm-3.748 9.37a3.748 3.748 0 017.496 0v.937h-7.496v-.937zM23.34 37.267a3.748 3.748 0 10-5.421 0 5.623 5.623 0 00-2.912 4.922V45h11.245v-2.81a5.622 5.622 0 00-2.912-4.922zm-2.71-4.449a1.874 1.874 0 110 3.749 1.874 1.874 0 010-3.748zm3.748 10.308H16.88v-.937a3.748 3.748 0 117.497 0v.937zm17.703-5.859a3.748 3.748 0 10-5.421 0 5.623 5.623 0 00-2.912 4.922V45h11.245v-2.81a5.622 5.622 0 00-2.912-4.922zm-2.71-4.449a1.874 1.874 0 110 3.749 1.874 1.874 0 010-3.748zm3.748 10.308h-7.497v-.937a3.748 3.748 0 117.497 0v.937zm-1.874-13.119h1.874a13.086 13.086 0 00-7.064-11.64l-.865 1.662a11.218 11.218 0 016.055 9.978zM24.81 20.03l-.865-1.663a13.086 13.086 0 00-7.064 11.64h1.875a11.218 11.218 0 016.055-9.978zm3.46 21.089l-.288 1.852c1.337.206 2.699.206 4.037 0l-.29-1.852a11.394 11.394 0 01-3.459 0zm2.667-10.175h-1.874v1.874h1.874v-1.874zm-2.811 3.748h-1.874v1.874h1.874v-1.874zm5.622 0h-1.874v1.874h1.874v-1.874z"/></g><defs><clipPath id="clip0"><path fill="#fff" transform="translate(15 15)" d="M0 0h30v30H0z"/></clipPath></defs></symbol></defs></svg>