<svg width="66" height="44" fill="none" xmlns="http://www.w3.org/2000/svg"><g filter="url(#filter0_b)" fill="#fff"><path d="M65.514.403H.37v43.119h65.144V.403z" fill-opacity=".4"/><path d="M18.578 30.44l1.46-1.55c.939 1.26 2.19 1.937 3.65 1.937 1.981 0 3.024-1.162 3.024-3.294v-9.109h-6.361V16.39h8.76v11.046c0 3.585-1.878 5.426-5.527 5.426-1.982-.097-3.859-.872-5.006-2.422zm14.078.29l.938-1.84c1.252 1.066 3.546 1.84 5.736 1.84 3.024 0 4.276-1.065 4.276-2.518 0-3.973-10.637-1.454-10.637-7.462 0-2.52 2.085-4.65 6.674-4.65 2.085 0 4.171.484 5.631 1.453l-.834 1.84c-1.564-.871-3.233-1.356-4.797-1.356-3.024 0-4.276 1.163-4.276 2.616 0 3.973 10.637 1.454 10.637 7.462 0 2.519-2.19 4.65-6.778 4.65-2.607 0-5.214-.774-6.57-2.034zM66 6.837c0 .112-14.706.225-32.815.225C15.075 7.062.37 6.95.37 6.837s14.706-.226 32.815-.226c18.109 0 32.815.113 32.815.226zM5.717 3.676c0 .339-.364.678-.85.678-.487 0-.851-.339-.851-.678 0-.338.364-.677.85-.677.487-.113.851.226.851.677zm3.16 0c0 .339-.364.678-.85.678-.487 0-.851-.34-.851-.678 0-.339.364-.677.85-.677.487 0 .851.225.851.677zm3.282 0c0 .34-.365.678-.851.678s-.85-.339-.85-.678c0-.338.364-.677.85-.677.365-.113.85.226.85.677z"/></g><defs><filter id="filter0_b" x="-3.63" y="-3.597" width="73.63" height="51.118" filterUnits="userSpaceOnUse" color-interpolation-filters="sRGB"><feFlood flood-opacity="0" result="BackgroundImageFix"/><feGaussianBlur in="BackgroundImage" stdDeviation="2"/><feComposite in2="SourceAlpha" operator="in" result="effect1_backgroundBlur"/><feBlend in="SourceGraphic" in2="effect1_backgroundBlur" result="shape"/></filter></defs></svg>