<svg width="360" height="604" fill="none" xmlns="http://www.w3.org/2000/svg"><path d="M650.814 181.638l-.485-.118.485.118zm-186.529 61.855l-.346.36.346-.36zm13.531 68.136l.372.334-.372-.334zm-172.565 40.632a.499.499 0 00-.21.675l2.091 3.985a.5.5 0 00.886-.465l-1.86-3.542 3.542-1.859a.5.5 0 00-.465-.886l-3.984 2.092zm.084.92c3.135.977 6.853 2.059 11.067 3.132l.247-.969a216.625 216.625 0 01-11.017-3.118l-.297.955zm14.804 4.047a204.618 204.618 0 0022.712 4.027l.117-.993a203.84 203.84 0 01-22.6-4.007l-.229.973zm26.545 4.443c7.231.712 14.965 1.059 23.044.82l-.03-.999c-8.031.237-15.722-.107-22.916-.816l-.098.995zm26.9.662c7.406-.388 15.072-1.284 22.882-2.849l-.196-.98c-7.758 1.555-15.377 2.445-22.738 2.831l.052.998zm26.642-3.652a145.002 145.002 0 0022.031-6.872l-.373-.927a143.992 143.992 0 01-21.88 6.823l.222.976zm25.572-8.352a142.852 142.852 0 0020.348-10.87l-.54-.841a141.934 141.934 0 01-20.207 10.794l.399.917zm23.56-12.993c6.103-4.151 12.131-8.923 18.029-14.391l-.679-.733c-5.862 5.434-11.851 10.174-17.912 14.297l.562.827zm20.811-17.031a170.573 170.573 0 008.019-8.342l-.744-.668a171.34 171.34 0 01-7.971 8.293l.696.717zm8.019-8.342a264.318 264.318 0 008.463-9.884l-.776-.631a263.129 263.129 0 01-8.431 9.847l.744.668zm11.166-13.267c5.746-7.327 10.628-14.447 14.729-21.334l-.859-.512c-4.078 6.848-8.936 13.933-14.657 21.229l.787.617zm16.869-25.032c4.639-8.256 8.15-16.164 10.678-23.68l-.947-.319c-2.508 7.452-5.992 15.303-10.602 23.509l.871.49zm11.973-27.781c2.713-9.201 3.938-17.779 3.96-25.648l-1-.003c-.022 7.767-1.231 16.251-3.919 25.368l.959.283zm3.848-29.976c-.524-9.575-2.873-17.995-6.472-25.085l-.892.453c3.533 6.96 5.848 15.244 6.366 24.686l.998-.054zm-8.595-28.883c-4.922-8.028-11.539-14.031-18.805-17.691l-.45.893c7.092 3.572 13.573 9.443 18.403 17.32l.852-.522zm-22.807-19.445c-4.192-1.572-8.529-2.387-12.826-2.387v1c4.17 0 8.389.791 12.475 2.324l.351-.937zm-12.826-2.387c-3.667 0-7.568.64-11.418 1.871l.304.953c3.762-1.204 7.561-1.824 11.114-1.824v-1zm-15.048 3.216c-6.96 2.94-13.478 7.839-17.763 14.44l.839.544c4.158-6.405 10.505-11.187 17.314-14.063l-.39-.921zm-19.678 17.814c-3.112 6.349-4.219 13.983-2.096 22.693l.971-.237c-2.068-8.487-.985-15.881 2.023-22.016l-.898-.44zm-1.016 26.399c2.089 6.176 5.775 12.835 11.441 19.919l.781-.625c-5.608-7.011-9.23-13.57-11.275-19.615l-.947.321zm13.917 22.893c2.351 2.721 4.994 5.502 7.948 8.339l.693-.721c-2.934-2.818-5.555-5.576-7.885-8.271l-.756.653zm7.948 8.339a73.78 73.78 0 009.687 7.823l.561-.828a72.635 72.635 0 01-9.555-7.716l-.693.721zm13.178 10.06c6.947 4.2 14.652 7.428 22.845 9.7l.267-.963c-8.114-2.251-15.733-5.444-22.595-9.593l-.517.856zm26.87 10.731c7.886 1.855 16.17 2.86 24.627 3.028l.02-1c-8.391-.167-16.605-1.164-24.418-3.001l-.229.973zm28.776 3.043c8.166-.1 16.459-.968 24.679-2.594l-.194-.981a135.13 135.13 0 01-24.497 2.576l.012.999zm28.733-3.459a137.877 137.877 0 0023.597-7.683l-.394-.919a136.873 136.873 0 01-23.426 7.627l.223.975zm27.378-9.376c7.503-3.501 14.689-7.709 21.373-12.616l-.591-.806c-6.629 4.866-13.758 9.041-21.204 12.516l.422.906zm24.671-15.126c6.484-5.117 12.441-10.924 17.685-17.413l-.778-.629c-5.195 6.428-11.097 12.184-17.526 17.257l.619.785zm20.226-20.687a102.67 102.67 0 0012.337-21.542l-.921-.388a101.812 101.812 0 01-12.217 21.333l.801.597zm13.864-25.38a104.697 104.697 0 003.665-11.902l-.971-.237a103.83 103.83 0 01-3.63 11.788l.936.351zm3.665-11.902a124.33 124.33 0 002.255-11.642l-.99-.144a123.509 123.509 0 01-2.236 11.549l.971.237zm2.764-15.562c.898-7.837 1.101-15.755.725-23.674l-.999.047c.374 7.871.172 15.735-.72 23.513l.994.114zm.491-27.616c-.559-7.857-1.669-15.702-3.215-23.459l-.98.196c1.538 7.72 2.641 15.524 3.198 23.334l.997-.071zm-4.022-27.323c-1.691-7.742-3.801-15.382-6.214-22.842l-.952.308c2.405 7.432 4.506 15.041 6.189 22.748l.977-.214zm-7.455-26.583a300.858 300.858 0 00-8.516-22.086l-.918.395c3.046 7.08 5.917 14.446 8.487 22.013l.947-.322zm-10.096-25.7a353.032 353.032 0 00-10.346-21.277l-.884.467a352.283 352.283 0 0110.316 21.217l.914-.406zm-12.203-24.752a373.442 373.442 0 00-11.927-20.451l-.847.531a371.969 371.969 0 0111.894 20.396l.88-.476zm-14.036-23.776a322.332 322.332 0 00-6.559-9.822l-.821.57a322.337 322.337 0 016.539 9.793l.841-.54zm-302.174 301.92a.5.5 0 00.684.179l3.883-2.275a.5.5 0 10-.506-.862l-3.451 2.021-2.022-3.451a.499.499 0 10-.863.505l2.275 3.883zm.915-.126a343.466 343.466 0 013.36-11.979l-.958-.288a347.704 347.704 0 00-3.37 12.014l.968.253zm4.559-15.89a326.78 326.78 0 018.311-23.402l-.929-.371a327.812 327.812 0 00-8.336 23.474l.954.299zm9.857-27.207a309.326 309.326 0 0110.392-22.521l-.891-.455a310.684 310.684 0 00-10.425 22.593l.924.383zm12.291-26.173a298.443 298.443 0 0112.481-21.419l-.842-.539a299.456 299.456 0 00-12.523 21.49l.884.468zm14.725-24.871a293.604 293.604 0 0114.514-20.095l-.785-.619a294.788 294.788 0 00-14.564 20.164l.835.55zm17.082-23.304a294.48 294.48 0 0116.421-18.571l-.721-.693a295.64 295.64 0 00-16.477 18.634l.777.63zm19.303-21.525a299.913 299.913 0 0118.14-16.877l-.65-.76a300.97 300.97 0 00-18.201 16.934l.711.703zm21.309-19.554a309.697 309.697 0 0119.665-15.085l-.577-.817a310.932 310.932 0 00-19.728 15.133l.64.769zm23.049-17.44a320.3 320.3 0 0120.958-13.216l-.5-.866a321.882 321.882 0 00-21.024 13.257l.566.825zm24.561-15.268a329.684 329.684 0 0122.065-11.31l-.422-.906a330.997 330.997 0 00-22.133 11.344l.49.872zm25.804-13.024a331.658 331.658 0 0122.974-9.347l-.342-.94a332.754 332.754 0 00-23.043 9.375l.411.912zm26.869-10.737a317.896 317.896 0 0123.697-7.27l-.255-.967a318.821 318.821 0 00-23.772 7.293l.33.944zm27.698-8.297c8.586-2.141 16.733-3.768 24.289-4.935l-.153-.988c-7.587 1.172-15.764 2.804-24.378 4.953l.242.97zm28.373-5.53a204.023 204.023 0 0112.269-1.311l-.075-.998c-3.876.292-7.996.727-12.329 1.319l.135.99zM143.876 394.362a.502.502 0 00-.705.062l-2.89 3.45a.5.5 0 00.767.642l2.569-3.066 3.066 2.569a.5.5 0 00.642-.767l-3.449-2.89zM61.272 601.444a198.22 198.22 0 008.443-8.881l-.745-.668a197.23 197.23 0 01-8.4 8.836l.702.713zm11.147-11.948c4.84-5.582 10.006-12.032 15.267-19.241l-.808-.59c-5.245 7.187-10.393 13.615-15.215 19.176l.756.655zm17.653-22.555a334.373 334.373 0 0013.477-20.533l-.856-.518a332.997 332.997 0 01-13.436 20.472l.815.579zm15.568-24.037a325.98 325.98 0 0011.657-21.615l-.898-.441a324.993 324.993 0 01-11.621 21.549l.862.507zm13.431-25.288a298.59 298.59 0 009.627-22.583l-.935-.353a297.861 297.861 0 01-9.595 22.507l.903.429zm11.047-26.424a265.063 265.063 0 007.281-23.444l-.968-.251a263.906 263.906 0 01-7.254 23.355l.941.34zm8.277-27.414a233.574 233.574 0 004.538-24.129l-.991-.132a232.632 232.632 0 01-4.519 24.026l.972.235zm5.041-28.193a208.176 208.176 0 001.366-24.519l-1 .004a207.296 207.296 0 01-1.359 24.401l.993.114zm1.307-28.609c-.1-4.073-.328-8.165-.69-12.274l-.996.088c.36 4.087.586 8.159.687 12.211l.999-.025zm279.572 34.644l.217.45-.217-.45zm-81.184 144.488l-.039.498.039-.498zm-84.512-157.003l-.31-.392.31.392zm32.747 36.204l.324.38-.324-.38zm-101.652-89.668a.5.5 0 00-.684.18l-2.267 3.887a.501.501 0 00.864.504l2.015-3.456 3.456 2.015a.5.5 0 10.504-.863l-3.888-2.267zm437.633 127.063a221.404 221.404 0 01-7.174 9.701l.787.616a221.965 221.965 0 007.207-9.744l-.82-.573zm-9.598 12.734c-5.314 6.522-10.736 12.341-16.236 17.504l.685.729c5.533-5.196 10.986-11.047 16.326-17.601l-.775-.632zm-19.16 20.181c-6.239 5.57-12.569 10.316-18.946 14.308l.53.848c6.427-4.023 12.803-8.804 19.082-14.41l-.666-.746zm-22.347 16.364c-7.167 4.177-14.384 7.423-21.588 9.835l.317.949c7.27-2.435 14.549-5.709 21.774-9.921l-.503-.863zm-25.348 11.019a106.931 106.931 0 01-23.349 4.163l.065.998a107.96 107.96 0 0023.567-4.202l-.283-.959zm-27.307 4.348c-8.051.229-15.971-.448-23.665-1.886l-.183.983c7.76 1.45 15.75 2.134 23.876 1.903l-.028-1zm-27.548-2.68c-7.814-1.736-15.374-4.247-22.579-7.378l-.399.917c7.26 3.155 14.881 5.687 22.761 7.437l.217-.976zm-26.198-9.017a136.13 136.13 0 01-20.54-11.99l-.577.816a137.048 137.048 0 0020.691 12.079l.426-.905zm-23.735-14.318c-6.521-4.896-12.463-10.263-17.698-15.902l-.733.681c5.276 5.683 11.263 11.089 17.831 16.02l.6-.799zm-20.352-18.852c-5.474-6.287-10.068-12.858-13.616-19.45l-.88.474c3.586 6.664 8.224 13.296 13.742 19.633l.754-.657zm-15.411-22.974c-3.72-7.739-5.952-15.433-6.439-22.66l-.997.067c.496 7.381 2.772 15.199 6.535 23.027l.901-.434zm-6.528-26.605c.19-8.11 2.758-15.502 8.103-21.556l-.749-.662c-5.52 6.252-8.159 13.878-8.354 22.195l1 .023zm10.829-24.307c2.73-2.464 6.013-4.658 9.888-6.527l-.434-.9c-3.952 1.905-7.316 4.151-10.124 6.685l.67.742zm9.888-6.527c4.235-2.041 8.197-3.384 11.878-4.106l-.193-.981c-3.777.74-7.82 2.114-12.119 4.187l.434.9zm16.002-4.668c9.312-.688 16.625 2.888 21.818 9.341l.779-.627c-5.392-6.7-13.02-10.424-22.67-9.711l.073.997zm24.209 12.754c3.841 6.299 6.121 14.553 6.708 23.909l.998-.063c-.594-9.47-2.904-17.893-6.852-24.366l-.854.52zm6.857 28.056c.075 7.835-.977 16.298-3.215 24.918l.968.251c2.258-8.698 3.323-17.249 3.247-25.179l-1 .01zm-4.344 28.946a112.576 112.576 0 01-9.911 23.108l.87.494a113.629 113.629 0 009.999-23.314l-.958-.288zm-12.055 26.723a109.91 109.91 0 01-15.559 19.723l.708.706a110.84 110.84 0 0015.701-19.903l-.85-.526zm-18.595 22.655a106.172 106.172 0 01-20.275 14.775l.489.872a107.19 107.19 0 0020.466-14.914l-.68-.733zm-24.005 16.773c-7.137 3.645-14.96 6.639-23.489 8.813l.247.969c8.601-2.192 16.493-5.213 23.696-8.891l-.454-.891zm-27.573 9.779c-7.763 1.695-16.087 2.725-24.984 2.971l.027.999c8.958-.247 17.344-1.284 25.171-2.993l-.214-.977zm-29.233 3.028a162.142 162.142 0 01-12.625-.507l-.078.997c4.352.341 8.585.508 12.702.51l.001-1zm-12.625-.507a211.067 211.067 0 01-12.014-1.278l-.134.991c3.875.527 7.897.957 12.07 1.284l.078-.997zm-16.055-1.871c-8.559-1.349-16.359-3.189-23.456-5.449l-.304.953c7.15 2.276 15 4.127 23.605 5.484l.155-.988zm-27.225-6.711c-8.203-2.885-15.412-6.354-21.726-10.286l-.529.849c6.38 3.973 13.656 7.473 21.923 10.381l.332-.944zm-25.053-12.456c-7.065-4.825-12.913-10.265-17.705-16.122l-.774.633c4.853 5.932 10.772 11.436 17.915 16.315l.564-.826zm-20.174-19.301c-4.912-6.669-8.557-13.815-11.15-21.171l-.943.332c2.623 7.443 6.313 14.678 11.288 21.432l.805-.593zm-12.397-24.986c-2.355-7.809-3.586-15.802-3.943-23.664l-.999.045c.361 7.935 1.603 16.01 3.985 23.908l.957-.289zm-4.05-27.68c-.07-8.316.803-16.422 2.315-23.936l-.98-.197c-1.525 7.576-2.406 15.75-2.335 24.141l1-.008zm3.172-27.848c2.058-8.687 4.944-16.432 8.141-22.598l-.888-.461c-3.238 6.247-6.152 14.071-8.226 22.828l.973.231zm10.09-26.101c2.459-4.104 5.016-7.235 7.451-9.158l-.62-.784c-2.566 2.026-5.197 5.268-7.689 9.429l.858.513zm7.451-9.158c2.933-2.316 5.923-3.727 8.87-4.403l-.223-.974c-3.103.711-6.227 2.192-9.267 4.593l.62.784zm12.153-4.861c6.656-.344 12.986 2.846 17.759 7.758l.717-.697c-4.917-5.06-11.512-8.422-18.527-8.06l.051.999zm19.956 10.281c4.273 5.477 6.685 12.335 6.022 18.603l.994.106c.696-6.583-1.834-13.692-6.227-19.324l-.789.615zm5.381 21.844c-.898 3.028-2.633 5.832-5.377 8.167l.648.761c2.894-2.462 4.736-5.433 5.688-8.644l-.959-.284zm-5.377 8.167c-2.968 2.524-6.109 4.376-9.379 5.608l.353.936c3.383-1.275 6.624-3.188 9.674-5.783l-.648-.761zm-12.871 6.68c-6.796 1.626-14.098.794-21.538-2.139l-.367.93c7.587 2.991 15.1 3.865 22.138 2.181l-.233-.972zm-24.917-3.61c-6.081-2.897-12.208-7.146-18.171-12.54l-.671.741c6.02 5.446 12.226 9.755 18.412 12.701l.43-.902zm-20.868-15.069c-5.004-4.859-9.865-10.514-14.455-16.835l-.809.588c4.62 6.362 9.518 12.061 14.568 16.964l.696-.717zm-16.591-19.852c-4.052-5.875-7.868-12.271-11.356-19.094l-.891.455c3.508 6.86 7.346 13.295 11.424 19.206l.823-.567zm-13.012-22.417a189.593 189.593 0 01-8.511-20.53l-.944.328a190.231 190.231 0 008.556 20.639l.899-.437zm-9.694-24.043a191.9 191.9 0 01-3.143-10.672l-.967.255a192.77 192.77 0 003.159 10.727l.951-.31zM17.744 401.511l-.294-.405.294.405zm69.586 43.008l-.412-.284.412.284zm14.367-70.907a.5.5 0 00-.707 0l-3.182 3.182a.5.5 0 00.707.707l2.829-2.828 2.828 2.828a.499.499 0 00.707 0 .499.499 0 000-.707l-3.182-3.182zm-31.762 44.45c.948-3.793-1.036-8.807-4.888-13.273l-.757.653c3.778 4.38 5.504 9.061 4.675 12.377l.97.243zm-8.29-16.65c-6.413-5.485-15.953-9.433-26.778-7.793l.15.989c10.49-1.589 19.746 2.234 25.978 7.564l.65-.76zm-31.453-6.747c-4.147 1.23-8.426 3.31-12.742 6.441l.588.809c4.23-3.069 8.408-5.096 12.439-6.291l-.285-.959zm-12.742 6.441c-3.258 2.364-6.003 4.912-8.27 7.59l.763.646c2.212-2.613 4.896-5.106 8.095-7.427l-.588-.809zM6.89 411.674C2.229 418.37.294 425.701.517 432.897l1-.031c-.217-6.989 1.66-14.107 6.192-20.621l-.82-.571zM.827 436.641c.99 7.366 4.178 14.435 8.92 20.37l.782-.624c-4.64-5.806-7.747-12.709-8.71-19.88l-.992.134zm11.38 23.197c5.096 5.392 11.574 9.589 18.855 11.811l.291-.957c-7.103-2.167-13.434-6.266-18.42-11.541l-.727.687zm22.487 12.739c6.941 1.434 14.476 1.078 22.142-1.671l-.338-.941c-7.49 2.686-14.837 3.03-21.601 1.633l-.203.979zm25.614-3.079c6.061-2.744 12.152-7.026 18.052-13.13l-.719-.695c-5.823 6.024-11.812 10.228-17.746 12.914l.413.911zm20.536-15.822c2.34-2.653 4.643-5.605 6.898-8.873l-.824-.568c-2.233 3.238-4.513 6.158-6.824 8.78l.75.661zm6.898-8.873c1.94-2.814 3.62-5.897 5.072-9.191l-.915-.404c-1.431 3.246-3.08 6.272-4.98 9.027l.823.568zm6.4-12.426c2.378-6.215 4.047-13.076 5.208-20.248l-.987-.16c-1.154 7.125-2.808 13.916-5.155 20.051l.934.357zm5.724-23.693c.939-6.794 1.463-13.82 1.732-20.81l-.999-.038c-.268 6.966-.79 13.959-1.724 20.711l.991.137zm1.846-24.287c.095-3.509.132-6.997.132-10.431h-1c0 3.427-.037 6.906-.132 10.404l1 .027z" fill="#000"/></svg>