<svg width="768" height="384" fill="none" xmlns="http://www.w3.org/2000/svg"><mask id="mask0" maskUnits="userSpaceOnUse" x="0" y="0" width="768" height="384"><path fill="#5A2D86" d="M0 0h768v384H0z"/></mask><g mask="url(#mask0)"><path d="M-414.5 412.59l.037.498-.037-.498zM55 197.563l.069.496-.069-.496zm-105.5 25.5l-.247.435.247-.435zM323 110.59l.374-.332-.374.332zm224.5 232.473l.101-.489-.101.489zm153.968-80.175a.5.5 0 00-.643-.293l-4.215 1.578a.5.5 0 10.351.936l3.746-1.402 1.402 3.746a.5.5 0 10.937-.351l-1.578-4.214zM-702.5 246.608a115.97 115.97 0 001.128 12.204l.99-.143a114.586 114.586 0 01-1.118-12.098l-1 .037zm1.772 16.206c1.325 7.494 3.405 15.464 6.363 23.676l.941-.339c-2.939-8.159-5.004-16.073-6.32-23.512l-.984.175zm7.787 27.471a160.647 160.647 0 0010.628 22.051l.866-.501a159.522 159.522 0 01-10.562-21.914l-.932.364zm12.73 25.581a169.49 169.49 0 0014.252 19.868l.769-.64a168.438 168.438 0 01-14.168-19.75l-.853.522zm16.919 22.997a179.773 179.773 0 0017.294 17.267l.657-.753a178.93 178.93 0 01-17.198-17.172l-.753.658zm20.417 19.932a196.089 196.089 0 0019.743 14.46l.54-.841a195.179 195.179 0 01-19.643-14.387l-.64.768zm23.17 16.613a219.976 219.976 0 0021.53 11.609l.426-.905a218.826 218.826 0 01-21.432-11.556l-.524.852zm25.259 13.324a252.328 252.328 0 0022.758 8.906l.32-.948a250.928 250.928 0 01-22.668-8.87l-.41.912zm26.687 10.199a292.716 292.716 0 0023.524 6.453l.225-.975a291.723 291.723 0 01-23.443-6.43l-.306.952zm27.559 7.357a341.54 341.54 0 0023.994 4.301l.142-.99a339.545 339.545 0 01-23.924-4.289l-.212.978zm28.057 4.861a397.303 397.303 0 0024.333 2.439l.07-.998a396.806 396.806 0 01-24.272-2.433l-.131.992zm28.363 2.702c7.886.477 16.035.753 24.455.815l.008-1a461.48 461.48 0 01-24.403-.813l-.06.998zm28.602.828a531.838 531.838 0 0024.368-.593l-.047-.999a529.87 529.87 0 01-24.322.592l.001 1zm28.399-.796c4.05-.219 8.155-.483 12.316-.795l-.074-.997c-4.155.311-8.253.575-12.296.793l.054.999zm12.316-.795c4.051-.303 8.05-.638 11.998-1.003l-.092-.996c-3.943.365-7.935.699-11.98 1.002l.074.997zm15.929-1.379a634.686 634.686 0 0023.578-2.763l-.135-.991a632.437 632.437 0 01-23.541 2.759l.098.995zm27.468-3.307a575.507 575.507 0 0023.423-3.842l-.182-.983a573.785 573.785 0 01-23.382 3.835l.141.99zm27.251-4.566a526.115 526.115 0 0023.179-5.011l-.233-.973a524.423 524.423 0 01-23.135 5.002l.189.982zm27.076-5.964a484.573 484.573 0 0022.928-6.296l-.288-.957a484.12 484.12 0 01-22.881 6.283l.241.97zm26.73-7.459a456.277 456.277 0 0022.469-7.622l-.346-.938a456.01 456.01 0 01-22.419 7.605l.296.955zm26.134-8.991a440.699 440.699 0 0021.988-9.011l-.404-.915a436.806 436.806 0 01-21.938 8.99l.354.936zm25.63-10.64a438.648 438.648 0 0021.347-10.37l-.461-.887a438.044 438.044 0 01-21.299 10.346l.413.911zm24.814-12.19a460.774 460.774 0 0020.717-11.7l-.513-.858a458.939 458.939 0 01-20.673 11.674l.469.884zm24.105-13.748a514.46 514.46 0 0019.945-12.823l-.559-.828a514.31 514.31 0 01-19.906 12.797l.52.854zm23.239-15.064a637.065 637.065 0 0019.304-13.787l-.595-.803a638.357 638.357 0 01-19.274 13.765l.565.825zm22.477-16.152a972.038 972.038 0 0018.813-14.492l-.619-.786a973.384 973.384 0 01-18.793 14.478l.599.8zm21.896-16.93c6.296-4.991 12.458-9.957 18.538-14.857l-.628-.778c-6.08 4.899-12.239 9.864-18.531 14.852l.621.783zm21.602-17.326c6.243-5.029 12.408-9.979 18.552-14.806l-.617-.786c-6.15 4.831-12.319 9.784-18.562 14.813l.627.779zm21.653-17.232c6.305-4.914 12.598-9.689 18.94-14.275l-.586-.811c-6.355 4.596-12.657 9.378-18.969 14.297l.615.789zm22.14-16.57c6.484-4.61 13.03-9.016 19.703-13.165l-.528-.85c-6.694 4.163-13.257 8.58-19.755 13.2l.58.815zm23.065-15.227c6.755-4.085 13.65-7.902 20.75-11.398l-.442-.897c-7.129 3.51-14.049 7.341-20.826 11.439l.517.856zm24.3-13.111a226.894 226.894 0 0121.89-9.003l-.331-.944a228.055 228.055 0 00-21.985 9.043l.427.904zm25.608-10.269a215.058 215.058 0 0122.852-6.18l-.207-.978a215.937 215.937 0 00-22.959 6.209l.314.949zm26.696-6.96c3.83-.741 7.734-1.391 11.719-1.944l-.138-.991a223.904 223.904 0 00-11.77 1.954l.19.981zm11.719-1.944c4.296-.597 8.248-.9 11.863-.945l-.013-1c-3.66.046-7.654.352-11.988.954l.138.991zm15.718-.892c10.36.43 17.522 3.169 21.792 7.115l.679-.734c-4.507-4.165-11.933-6.944-22.43-7.38l-.04.999zm24.28 10.01c4.003 5.999 3.01 13.948-2.678 21.413l.795.606c5.848-7.675 7.034-16.101 2.715-22.574l-.832.555zm-5.221 24.384c-4.592 4.815-11.197 9.23-19.666 12.489l.36.933c8.584-3.303 15.321-7.794 20.03-12.731l-.724-.691zm-23.417 13.815c-6.714 2.173-14.447 3.64-23.135 4.09l.052.999c8.769-.454 16.59-1.936 23.39-4.137l-.307-.952zm-27.043 4.222c-7.242.114-15.1-.465-23.536-1.903l-.168.986c8.494 1.448 16.413 2.032 23.72 1.916l-.016-.999zm-27.382-2.611c-7.207-1.423-14.816-3.465-22.807-6.224l-.326.946c8.031 2.772 15.685 4.827 22.94 6.259l.193-.981zm-26.578-7.569c-6.96-2.561-14.198-5.661-21.7-9.361l-.443.897c7.532 3.714 14.803 6.828 21.797 9.403l.346-.939zm-25.21-11.125a270.588 270.588 0 01-10.469-5.664l-.494.869a272.002 272.002 0 0010.508 5.685l.456-.89zm-10.469-5.664c-3.739-2.128-7.175-4.282-10.319-6.458l-.569.822c3.17 2.194 6.632 4.363 10.394 6.505l.494-.869zm-13.365-8.64c-7.378-5.475-12.947-11.071-16.883-16.728l-.82.571c4.01 5.765 9.663 11.436 17.107 16.96l.596-.803zm-18.964-19.981c-4.365-7.468-5.969-15.029-5.199-22.563l-.994-.101c-.793 7.756.864 15.528 5.33 23.168l.862-.504zm-4.587-26.471c1.487-7.074 5.023-14.131 10.328-21.061l-.794-.608c-5.372 7.016-8.987 14.208-10.513 21.464l.979.205zm12.764-24.088c4.698-5.565 10.517-11.029 17.301-16.33l-.616-.788c-6.826 5.335-12.698 10.845-17.449 16.473l.764.645zm20.438-18.719c6.04-4.485 12.763-8.844 20.07-13.038l-.498-.868c-7.336 4.212-14.093 8.591-20.169 13.103l.596.803zm23.47-14.956c6.689-3.702 13.83-7.269 21.35-10.673l-.412-.911c-7.543 3.414-14.708 6.993-21.422 10.71l.485.874zm25.041-12.317a379.331 379.331 0 0122.131-8.86l-.343-.94a380.35 380.35 0 00-22.19 8.884l.402.916zm25.85-10.199A442.091 442.091 0 0143.118 79.9l-.283-.96a442.917 442.917 0 00-22.775 7.376l.334.942zm26.567-8.473a479.747 479.747 0 0123.144-5.98l-.226-.973a480.727 480.727 0 00-23.193 5.992l.275.961zm27.005-6.859a491.196 491.196 0 0123.421-4.642l-.17-.985a492.206 492.206 0 00-23.47 4.651l.22.976zm27.344-5.304a478.01 478.01 0 0123.657-3.294l-.113-.994a478.59 478.59 0 00-23.706 3.301l.162.987zm27.61-3.726a444.63 444.63 0 0123.793-1.862l-.051-.999a445.448 445.448 0 00-23.847 1.866l.105.995zm27.787-2.047a395.667 395.667 0 0123.884-.28l.019-1a396.648 396.648 0 00-23.944.281l.041 1zm27.863-.183c8.054.24 16.004.746 23.803 1.533l.101-.995a338.528 338.528 0 00-23.874-1.538l-.03 1zm27.72 1.954c8.059.918 15.945 2.144 23.607 3.697l.198-.98c-7.691-1.56-15.606-2.79-23.692-3.71l-.113.993zm27.518 4.524c7.932 1.742 15.606 3.846 22.963 6.333l.32-.947c-7.394-2.5-15.104-4.614-23.068-6.363l-.215.977zm26.668 7.628c7.668 2.77 14.968 5.972 21.828 9.632l.471-.882c-6.907-3.685-14.251-6.906-21.959-9.69l-.34.94zm25.31 11.55c7.017 3.994 13.54 8.494 19.487 13.528l.647-.763c-5.999-5.078-12.573-9.612-19.639-13.633l-.495.869zm22.482 16.153a109.881 109.881 0 018.358 8.446l.748-.663a110.787 110.787 0 00-8.433-8.523l-.673.74zm8.358 8.446a1189.58 1189.58 0 017.764 8.847l.755-.655a1171.817 1171.817 0 00-7.771-8.855l-.748.663zm10.302 11.78a1206.745 1206.745 0 0115.181 17.949l.769-.638a1202.64 1202.64 0 00-15.193-17.964l-.757.653zm17.655 20.942c5.1 6.187 10.021 12.277 14.781 18.263l.783-.623a1343.116 1343.116 0 00-14.793-18.276l-.771.636zm17.196 21.308a1633.156 1633.156 0 0114.434 18.53l.793-.609a1641.308 1641.308 0 00-14.442-18.542l-.785.621zm16.793 21.608a2457.182 2457.182 0 0114.17 18.729l.8-.6a2492.986 2492.986 0 00-14.176-18.737l-.794.608zm16.517 21.864c4.828 6.453 9.494 12.731 14.031 18.822l.802-.597c-4.536-6.091-9.203-12.37-14.032-18.824l-.801.599zm16.377 21.971a2580.873 2580.873 0 0014.094 18.767l.796-.605a2608.004 2608.004 0 01-14.089-18.76l-.801.598zm16.456 21.868c4.931 6.453 9.745 12.63 14.492 18.513l.778-.628c-4.74-5.874-9.548-12.044-14.475-18.492l-.795.607zm16.947 21.536c5.155 6.308 10.242 12.262 15.324 17.839l.739-.673c-5.067-5.561-10.142-11.502-15.289-17.799l-.774.633zm17.966 20.705c5.56 5.959 11.128 11.462 16.788 16.479l.664-.749c-5.633-4.992-11.178-10.472-16.721-16.412l-.731.682zm19.747 19.048c6.153 5.238 12.432 9.9 18.942 13.949l.528-.849c-6.462-4.019-12.701-8.652-18.822-13.861l-.648.761zm22.305 15.973c6.817 3.968 13.9 7.271 21.365 9.865l.328-.944c-7.401-2.572-14.425-5.847-21.189-9.785l-.504.864zm25.087 11.09a119.895 119.895 0 0011.425 2.939l.202-.979a118.88 118.88 0 01-11.33-2.915l-.297.955zm11.425 2.939c3.842.791 7.649 1.44 11.417 1.949l.134-.991a167.79 167.79 0 01-11.349-1.937l-.202.979zm15.251 2.42c7.892.873 15.607 1.126 23.118.779l-.046-.999c-7.457.345-15.12.094-22.962-.774l-.11.994zm26.969.547c7.858-.583 15.481-1.833 22.838-3.724l-.249-.969c-7.298 1.877-14.863 3.117-22.663 3.696l.074.997zm26.565-4.744a122.766 122.766 0 0021.518-8.509l-.454-.891a121.803 121.803 0 01-21.343 8.44l.279.96zm24.931-10.316a125.368 125.368 0 0019.151-12.986l-.635-.773a124.267 124.267 0 01-18.998 12.882l.482.877zm22.1-15.481c5.717-4.985 11.086-10.539 16.077-16.64l-.774-.633c-4.957 6.059-10.287 11.573-15.96 16.519l.657.754zm18.481-19.659c4.611-5.948 8.877-12.383 12.77-19.284l-.87-.491c-3.872 6.86-8.111 13.254-12.69 19.162l.79.613zm14.63-22.668a180.466 180.466 0 005.129-10.381l-.91-.415a179.47 179.47 0 01-5.101 10.324l.882.472z" fill="#000"/><circle cx="83" cy="368" r="43.5" stroke="#000" stroke-dasharray="24 4"/><circle cx="676" cy="-4" r="72.5" stroke="#000" stroke-dasharray="24 4"/></g></svg>