<svg width="1005" height="628" fill="none" xmlns="http://www.w3.org/2000/svg"><path d="M999.811 191l-.486-.119.486.119zm-179 134.5l.372.334-.372-.334zm-178.543 42.057a.5.5 0 00-.211.675l2.092 3.985a.5.5 0 00.885-.465l-1.859-3.542 3.542-1.859a.5.5 0 00-.465-.885l-3.984 2.091zm.083.92a224.248 224.248 0 0011.451 3.24l.247-.969a223.756 223.756 0 01-11.4-3.225l-.298.954zm15.317 4.187a211.566 211.566 0 0023.498 4.166l.118-.993a210.767 210.767 0 01-23.387-4.146l-.229.973zm27.464 4.597c7.481.737 15.483 1.095 23.841.848l-.03-.999c-8.31.245-16.269-.111-23.713-.844l-.098.995zm27.831.685c7.661-.402 15.593-1.328 23.673-2.947l-.197-.981c-8.028 1.609-15.911 2.53-23.529 2.93l.053.998zm27.562-3.779a149.874 149.874 0 0022.794-7.109l-.374-.927a148.96 148.96 0 01-22.641 7.061l.221.975zm26.456-8.64a147.758 147.758 0 0021.052-11.246l-.54-.841a146.727 146.727 0 01-20.91 11.169l.398.918zm24.376-13.443c6.313-4.294 12.55-9.231 18.652-14.888l-.68-.733c-6.066 5.623-12.263 10.528-18.535 14.794l.563.827zm21.53-17.619a176.925 176.925 0 008.296-8.631l-.744-.668a175.816 175.816 0 01-8.249 8.581l.697.718zm8.296-8.631a277.792 277.792 0 007.519-8.716l-.771-.637a275.624 275.624 0 01-7.492 8.685l.744.668zm9.97-11.73c5.094-6.359 9.56-12.57 13.447-18.618l-.841-.541c-3.868 6.017-8.313 12.2-13.386 18.534l.78.625zm15.488-21.865c4.312-7.014 7.843-13.802 10.672-20.339l-.918-.397c-2.809 6.49-6.317 13.236-10.606 20.213l.852.523zm12.164-23.924c3.091-7.739 5.192-15.109 6.439-22.072l-.984-.176c-1.235 6.891-3.316 14.197-6.383 21.877l.928.371zm7.043-25.881c1.146-8.317 1.056-16.012-.017-23.009l-.988.152c1.057 6.896 1.148 14.494.015 22.721l.99.136zm-.706-26.791c-1.728-8.168-4.835-15.286-8.868-21.217l-.827.563c3.958 5.82 7.014 12.817 8.717 20.861l.978-.207zm-11.151-24.325c-5.117-6.458-11.401-11.241-18.117-14.126l-.395.919c6.557 2.816 12.709 7.494 17.728 13.828l.784-.621zm-21.742-15.485c-3.762-1.209-7.616-1.833-11.438-1.833v1c3.713 0 7.464.606 11.132 1.785l.306-.952zM820.811 174c-3.792 0-7.827.662-11.809 1.936l.305.952c3.893-1.245 7.825-1.888 11.504-1.888v-1zm-15.563 3.326c-7.199 3.042-13.94 8.109-18.371 14.935l.839.544c4.304-6.63 10.874-11.58 17.922-14.558l-.39-.921zm-20.352 18.424c-3.219 6.566-4.363 14.461-2.168 23.469l.972-.237c-2.141-8.785-1.02-16.44 2.094-22.791l-.898-.441zm-1.051 27.302c2.162 6.387 5.974 13.276 11.836 20.604l.781-.624c-5.804-7.256-9.552-14.044-11.669-20.301l-.948.321zm14.397 23.682c2.432 2.815 5.166 5.691 8.223 8.627l.692-.722a127.467 127.467 0 01-8.159-8.559l-.756.654zm8.223 8.627a75.879 75.879 0 008.839 7.275l.577-.817a74.882 74.882 0 01-8.724-7.18l-.692.722zm12.01 9.4c6.32 4.023 13.284 7.24 20.691 9.663l.311-.95c-7.335-2.4-14.222-5.583-20.465-9.557l-.537.844zm24.34 10.783c7.174 2.059 14.721 3.404 22.471 4.044l.083-.996c-7.689-.636-15.172-1.97-22.278-4.009l-.276.961zm26.281 4.302c7.494.395 15.151.143 22.82-.746l-.115-.993c-7.615.883-15.216 1.132-22.653.74l-.052.999zm26.591-1.234a144.057 144.057 0 0022.272-5.02l-.297-.955a143.009 143.009 0 01-22.117 4.985l.142.99zm25.896-6.199a138.61 138.61 0 0020.943-9.089l-.473-.881a137.666 137.666 0 01-20.792 9.023l.322.947zm24.273-10.939c6.604-3.794 12.882-8.163 18.7-13.099l-.647-.763c-5.77 4.895-11.998 9.229-18.551 12.995l.498.867zm21.567-15.612c5.623-5.091 10.77-10.741 15.307-16.942l-.807-.591c-4.495 6.144-9.596 11.744-15.171 16.792l.671.741zm17.502-20.055a105.98 105.98 0 0010.722-20.161l-.928-.372a104.994 104.994 0 01-10.621 19.971l.827.562zm12.074-23.719a109.65 109.65 0 003.301-10.969l-.975-.238a107.397 107.397 0 01-3.268 10.869l.942.338zm3.301-10.969c.97-3.984 1.74-8.002 2.33-12.045l-.99-.144c-.58 4.013-1.35 8-2.315 11.951l.975.238zm2.86-16.1c.93-8.108 1.14-16.3.75-24.493l-1 .047c.38 8.145.18 16.283-.75 24.332l1 .114zm.5-28.571c-.57-8.128-1.72-16.245-3.32-24.27l-.982.195c1.592 7.988 2.732 16.064 3.312 24.146l.99-.071zm-4.157-28.268c-1.749-8.01-3.932-15.915-6.43-23.633l-.951.308c2.489 7.691 4.663 15.564 6.404 23.538l.977-.213zm-7.713-27.504c-2.669-7.856-5.649-15.503-8.811-22.85l-.918.395c3.152 7.326 6.122 14.948 8.782 22.777l.947-.322zm-10.446-26.589a365.225 365.225 0 00-10.704-22.015l-.884.467a363.909 363.909 0 0110.674 21.954l.914-.406zm-12.626-25.61a386.505 386.505 0 00-12.339-21.16l-.847.531a385.624 385.624 0 0112.307 21.105l.879-.476zm-14.522-24.6a335.665 335.665 0 00-6.785-10.162l-.821.57a335.587 335.587 0 016.765 10.133l.841-.54zM641.569 326.253a.5.5 0 00.684.178l3.883-2.274a.5.5 0 10-.506-.863l-3.451 2.022-2.022-3.452a.5.5 0 10-.863.506l2.275 3.883zm.915-.127a357.24 357.24 0 013.216-11.523l-.959-.285a361.166 361.166 0 00-3.225 11.556l.968.252zm4.358-15.286c2.4-7.757 5.02-15.264 7.841-22.529l-.933-.362a341.38 341.38 0 00-7.864 22.595l.956.296zm9.299-26.219a322.214 322.214 0 019.679-21.733l-.898-.44a322.973 322.973 0 00-9.709 21.8l.928.373zm11.458-25.303a310.942 310.942 0 0111.54-20.782l-.855-.519a312.024 312.024 0 00-11.577 20.85l.892.451zm13.637-24.187a304.09 304.09 0 0113.379-19.668l-.804-.594a305.532 305.532 0 00-13.424 19.732l.849.53zm15.769-22.858a303.943 303.943 0 0115.126-18.367l-.747-.665a304.326 304.326 0 00-15.175 18.428l.796.604zm17.797-21.325a307.506 307.506 0 0116.733-16.916l-.684-.73a308.795 308.795 0 00-16.787 16.971l.738.675zm19.664-19.624a315.22 315.22 0 0118.184-15.362l-.616-.788a316.427 316.427 0 00-18.242 15.411l.674.739zm21.334-17.795a325.211 325.211 0 0119.457-13.732l-.547-.838a326.298 326.298 0 00-19.516 13.775l.606.795zm22.79-15.879a336.127 336.127 0 0120.543-12.051l-.475-.879a336.582 336.582 0 00-20.605 12.086l.537.844zm24.036-13.911a342.716 342.716 0 0121.469-10.335l-.402-.916a344.183 344.183 0 00-21.532 10.366l.465.885zm25.126-11.917a342.578 342.578 0 0122.216-8.557l-.327-.945a343.067 343.067 0 00-22.281 8.582l.392.92zm25.975-9.831a324.683 324.683 0 0122.874-6.692l-.245-.97a325.765 325.765 0 00-22.944 6.713l.315.949zm26.697-7.632c8.253-1.971 16.09-3.478 23.379-4.568l-.148-.989c-7.319 1.094-15.183 2.606-23.463 4.585l.232.972zm27.336-5.126a209.2 209.2 0 0111.777-1.234l-.074-.998c-3.735.281-7.688.691-11.835 1.24l.132.992zM480.821 411.117a.499.499 0 00-.704.062l-2.89 3.449a.5.5 0 10.766.642l2.569-3.066 3.066 2.569a.5.5 0 10.642-.766l-3.449-2.89zm-85.47 214.239a205.295 205.295 0 008.735-9.188l-.745-.667a203.907 203.907 0 01-8.692 9.143l.702.712zm11.532-12.361c5.008-5.775 10.353-12.449 15.796-19.908l-.808-.589c-5.427 7.437-10.754 14.088-15.743 19.842l.755.655zm18.264-23.336a345.547 345.547 0 0013.944-21.244l-.855-.518a344.634 344.634 0 01-13.904 21.183l.815.579zm16.108-24.869a337.677 337.677 0 0012.061-22.365l-.898-.44a336.661 336.661 0 01-12.025 22.298l.862.507zm13.896-26.164a308.969 308.969 0 009.961-23.365l-.935-.354a307.717 307.717 0 01-9.929 23.289l.903.43zm11.43-27.34a274.506 274.506 0 007.534-24.255l-.968-.252a273.391 273.391 0 01-7.507 24.168l.941.339zm8.564-28.362a241.841 241.841 0 004.695-24.965l-.991-.132a240.78 240.78 0 01-4.676 24.861l.972.236zm5.215-29.17a215.399 215.399 0 001.414-25.368l-1 .004c.035 8.52-.459 16.948-1.407 25.25l.993.114zm1.353-29.599c-.105-4.213-.34-8.448-.715-12.699l-.996.088c.373 4.23.607 8.443.711 12.636l1-.025zM212.501 216.699l.069-.495-.069.495zm102.498 121.167a.5.5 0 00.112-.698l-2.636-3.647a.5.5 0 00-.811.586l2.344 3.241-3.242 2.344a.5.5 0 10.586.81l3.647-2.636zM83.301 5.92a207.776 207.776 0 00-1.64 11.816l.994.11c.456-4.13 1.007-8.063 1.632-11.76L83.3 5.92zm-2.04 15.755a249.102 249.102 0 00-1.046 23.87l1-.003c-.03-8.361.352-16.351 1.042-23.774l-.996-.093zM80.26 49.524c.148 7.711.65 15.703 1.585 23.829l.993-.115a249.84 249.84 0 01-1.578-23.733l-1 .019zm2.073 27.782c1.025 7.769 2.454 15.638 4.355 23.48l.971-.236c-1.891-7.805-3.314-15.638-4.335-23.375l-.991.13zm5.33 27.346c2.01 7.646 4.48 15.247 7.474 22.685l.928-.374c-2.977-7.396-5.434-14.957-7.434-22.565l-.967.254zm9.004 26.362c3.127 7.283 6.776 14.39 11.007 21.205l.849-.528c-4.202-6.769-7.828-13.831-10.938-21.072l-.918.395zm13.152 24.559c4.341 6.589 9.252 12.879 14.791 18.763l.728-.685c-5.497-5.84-10.372-12.085-14.684-18.628l-.835.55zm17.565 21.623a130.789 130.789 0 0018.358 15.286l.568-.823a129.875 129.875 0 01-18.219-15.17l-.707.707zm21.673 17.496c6.477 4.178 13.513 7.92 21.15 11.148l.39-.921c-7.585-3.206-14.57-6.921-20.998-11.067l-.542.84zm24.811 12.638c7.103 2.781 14.705 5.129 22.836 6.988l.223-.975c-8.085-1.848-15.639-4.182-22.695-6.944l-.364.931zm26.786 7.843c3.812.781 7.737 1.456 11.778 2.021l.138-.99a187.917 187.917 0 01-11.715-2.011l-.201.98zm11.778 2.021c4.37.611 8.576 1.088 12.623 1.439l.086-.996a243.13 243.13 0 01-12.571-1.433l-.138.99zm16.837 1.763c9.28.62 17.681.552 25.259-.104l-.086-.997c-7.521.652-15.871.72-25.106.103l-.067.998zm29.486-.541c9.5-1.146 17.613-3.267 24.459-6.144l-.387-.922c-6.748 2.836-14.769 4.936-24.191 6.073l.119.993zm28.289-7.896c8.608-4.277 14.934-9.86 19.271-16.197l-.825-.565c-4.233 6.184-10.422 11.659-18.891 15.867l.445.895zm21.484-19.803c4.182-7.646 5.753-16.14 5.208-24.605l-.998.065c.534 8.298-1.007 16.6-5.087 24.06l.877.48zm4.763-28.827c-1.215-8.286-4.393-16.409-9.073-23.545l-.836.549c4.604 7.021 7.727 15.007 8.919 23.141l.99-.145zm-11.519-27.004c-5.165-6.787-11.763-12.461-19.339-16.187l-.441.897c7.422 3.651 13.903 9.219 18.984 15.896l.796-.606zm-23.225-17.891c-7.644-2.956-16.129-3.95-25.031-2.229l.19.982c8.708-1.684 17.002-.712 24.481 2.179l.36-.932zm-29.153-1.243c-3.867 1.103-7.795 2.724-11.751 4.923l.486.874c3.893-2.163 7.75-3.755 11.539-4.835l-.274-.962zm-11.751 4.923a68.13 68.13 0 00-10.251 6.984l.636.771a67.159 67.159 0 0110.101-6.881l-.486-.874zm-13.354 9.704c-6.038 5.623-10.992 12.272-14.886 19.675l.885.466c3.846-7.312 8.734-13.868 14.682-19.409l-.681-.732zm-16.72 23.385c-3.384 7.295-5.807 15.238-7.29 23.595l.985.174c1.469-8.28 3.868-16.139 7.212-23.348l-.907-.421zm-7.931 27.649c-1.108 7.956-1.392 16.245-.869 24.676l.998-.062c-.519-8.369-.236-16.59.862-24.476l-.991-.138zm-.55 28.794c.745 8.047 2.215 16.196 4.398 24.284l.965-.261c-2.168-8.034-3.628-16.127-4.368-24.115l-.995.092zm5.527 28.252a152.142 152.142 0 008.982 22.988l.899-.438a151.221 151.221 0 01-8.923-22.837l-.958.287zm10.837 26.665a148.113 148.113 0 0013.191 20.865l.797-.604a147.18 147.18 0 01-13.101-20.723l-.887.462zm15.723 24.112a138.845 138.845 0 0017.088 17.814l.656-.754a137.854 137.854 0 01-16.964-17.686l-.78.626zm20.234 20.471a131.62 131.62 0 0020.475 13.781l.478-.879a130.608 130.608 0 01-20.319-13.676l-.634.774zm24.131 15.695a131.668 131.668 0 0022.974 8.97l.275-.961a130.723 130.723 0 01-22.799-8.902l-.45.893zm26.97 10.05c3.933.998 7.972 1.836 12.116 2.502l.159-.987a137.885 137.885 0 01-12.029-2.485l-.246.97zM142 530l-.488.11.488-.11zm-93.5-47l.491.094-.49-.094zm202-55l-.424.264.424-.264zm-41 29.5l-.414.28.414-.28zm103.901-94.202a.499.499 0 00-.103-.699l-3.61-2.686a.5.5 0 10-.597.802l3.209 2.388-2.387 3.209a.5.5 0 10.802.597l2.686-3.611zM9.966 624.819a140.494 140.494 0 01-3.712-10.865l-.96.283a141.48 141.48 0 003.74 10.943l.932-.361zm-4.76-14.622c-2.09-7.966-3.214-15.499-3.499-22.598l-.999.04c.288 7.176 1.423 14.781 3.53 22.812l.967-.254zm-3.571-26.356c.012-8.134 1.145-15.675 3.196-22.618l-.959-.283c-2.079 7.037-3.225 14.672-3.237 22.9l1 .001zm4.36-26.22c2.609-7.417 6.29-14.114 10.777-20.085l-.8-.6c-4.545 6.048-8.276 12.835-10.92 20.353l.944.332zM19.14 534.54c4.906-5.904 10.624-11.037 16.86-15.39l-.571-.82c-6.305 4.4-12.09 9.592-17.058 15.571l.77.639zm20.035-17.51c6.476-4.139 13.433-7.479 20.565-10.01l-.335-.943c-7.2 2.556-14.225 5.928-20.769 10.11l.539.843zm24.196-11.225c7.467-2.348 15.065-3.821 22.453-4.413l-.08-.997c-7.464.598-15.136 2.086-22.673 4.456l.3.954zm26.254-4.64c8.057-.317 15.778.44 22.708 2.274l.256-.966c-7.039-1.864-14.861-2.628-23.003-2.307l.04.999zm26.346 3.361c7.735 2.59 14.268 6.641 18.9 12.15l.766-.644c-4.777-5.68-11.481-9.82-19.349-12.454l-.317.948zm21.158 15.181c2.017 3.079 3.511 6.545 4.383 10.403l.976-.22c-.899-3.975-2.44-7.552-4.523-10.731l-.836.548zm4.383 10.403c1.009 4.46 1.582 8.63 1.767 12.511l.998-.047c-.187-3.945-.769-8.173-1.789-12.684l-.976.22zm1.815 16.695c-.253 9.804-3.148 17.547-7.76 23.265l.779.628c4.768-5.911 7.722-13.874 7.981-23.867l-1-.026zm-10.581 26.317c-5.957 5.63-13.952 8.687-22.699 9.155l.054.999c8.944-.479 17.176-3.609 23.332-9.427l-.687-.727zm-26.866 9.184c-7.855-.302-16.12-2.602-23.906-6.899l-.483.876c7.913 4.368 16.33 6.714 24.35 7.023l.039-1zm-27.512-9.056c-6.641-4.292-12.81-10.102-17.912-17.428l-.82.571c5.177 7.434 11.44 13.335 18.19 17.697l.542-.84zm-20.19-20.919c-4.067-6.658-7.292-14.426-9.302-23.301l-.975.22c2.033 8.979 5.298 16.849 9.424 23.603l.853-.522zm-10.123-27.373c-1.354-7.612-1.84-15.983-1.246-25.112l-.998-.065c-.598 9.204-.11 17.656 1.259 25.352l.985-.175zm-.9-29.324a139.08 139.08 0 011.836-12.54l-.982-.188c-.836 4.35-1.447 8.56-1.85 12.63l.996.098zm1.836-12.54c.804-4.184 1.72-8.193 2.741-12.031l-.966-.257a176.922 176.922 0 00-2.757 12.1l.982.188zm3.864-16.039c2.492-8.469 5.517-16.064 8.99-22.86l-.89-.455c-3.504 6.855-6.55 14.509-9.06 23.032l.96.283zm10.91-26.451c4.26-7.636 9.12-14.191 14.448-19.781l-.724-.69c-5.388 5.654-10.297 12.277-14.598 19.983l.873.488zM81.1 417.929a86.266 86.266 0 0119.891-14.238l-.462-.887a87.298 87.298 0 00-20.12 14.402l.691.723zm23.554-16.04c7.481-3.471 15.339-5.876 23.371-7.394l-.186-.982c-8.104 1.531-16.042 3.959-23.606 7.469l.421.907zm27.41-8.081c8.109-1.229 16.356-1.595 24.537-1.279l.039-.999c-8.236-.319-16.547.049-24.726 1.289l.15.989zm28.633-1.063c8.299.549 16.492 1.775 24.358 3.486l.213-.977c-7.91-1.72-16.152-2.954-24.505-3.507l-.066.998zm28.367 4.406a182.901 182.901 0 0123.498 7.378l.364-.931a183.922 183.922 0 00-23.627-7.419l-.235.972zm27.282 8.908c8.554 3.579 15.977 7.518 21.768 11.369l.554-.833c-5.853-3.892-13.335-7.859-21.936-11.458l-.386.922zm25.135 13.733c4.083 3.041 7.019 5.943 8.594 8.472l.849-.528c-1.672-2.685-4.722-5.674-8.846-8.746l-.597.802zm8.594 8.472c2.045 3.285 3.152 6.525 3.508 9.636l.993-.114c-.374-3.27-1.535-6.65-3.652-10.05l-.849.528zm3.601 13.067c-.414 6.89-4.427 13.035-10.031 17.379l.613.79c5.767-4.47 9.981-10.859 10.416-18.109l-.998-.06zm-12.88 19.349c-6.127 3.764-13.46 5.456-19.835 4.05l-.216.977c6.683 1.473 14.28-.308 20.575-4.175l-.524-.852zm-23.097 3.017c-3.013-1.273-5.699-3.383-7.785-6.477l-.829.56c2.196 3.256 5.036 5.491 8.225 6.838l.389-.921zm-7.785-6.477c-2.255-3.343-3.798-6.789-4.689-10.295l-.969.246c.92 3.624 2.513 7.175 4.829 10.609l.829-.56zm-5.389-14.011c-.89-7.18.809-14.596 4.683-21.911l-.883-.468c-3.949 7.454-5.712 15.076-4.792 22.502l.992-.123zm6.586-25.216c3.681-5.922 8.756-11.733 14.991-17.244l-.662-.749c-6.292 5.561-11.437 11.445-15.178 17.465l.849.528zm17.903-19.726c5.574-4.587 11.949-8.933 18.978-12.925l-.494-.87c-7.073 4.017-13.497 8.396-19.12 13.023l.636.772zm22.328-14.774c6.508-3.49 13.525-6.677 20.944-9.478l-.353-.935c-7.458 2.815-14.516 6.02-21.064 9.532l.473.881zm24.551-10.798a196.006 196.006 0 0122.093-6.386l-.221-.975a196.906 196.906 0 00-22.206 6.419l.334.942zm25.842-7.198a198.43 198.43 0 0111.337-2.002l-.146-.99a200.239 200.239 0 00-11.393 2.012l.202.98zM771 460.001l.217.45-.217-.45zm-84 149.5l-.039.498.039-.498zm-87.444-162.45l.31.393-.31-.393zm33.883 37.46l.324.381-.324-.381zm-105.187-92.764a.5.5 0 00-.683.18l-2.268 3.887a.5.5 0 00.864.504l2.015-3.455 3.456 2.015a.5.5 0 00.504-.864l-3.888-2.267zM981.09 523.214a227.126 227.126 0 01-7.424 10.037l.787.617a228.363 228.363 0 007.457-10.082l-.82-.572zm-9.932 13.177c-5.499 6.748-11.109 12.769-16.8 18.112l.685.729c5.724-5.375 11.365-11.428 16.89-18.21l-.775-.631zm-19.826 20.883c-6.456 5.764-13.007 10.675-19.606 14.806l.53.848c6.65-4.163 13.246-9.108 19.742-14.908l-.666-.746zm-23.126 16.933c-7.416 4.323-14.885 7.682-22.34 10.178l.318.949c7.521-2.519 15.051-5.906 22.526-10.263l-.504-.864zm-26.23 11.403a110.658 110.658 0 01-24.163 4.308l.065.998a111.705 111.705 0 0024.381-4.346l-.283-.96zm-28.259 4.5c-8.332.237-16.527-.464-24.489-1.952l-.184.983c8.028 1.5 16.295 2.207 24.701 1.968l-.028-.999zm-28.508-2.774c-8.087-1.796-15.91-4.395-23.366-7.635l-.398.917c7.511 3.264 15.395 5.883 23.547 7.694l.217-.976zm-27.111-9.33a140.863 140.863 0 01-21.255-12.409l-.577.817a141.82 141.82 0 0021.406 12.496l.426-.904zm-24.561-14.817c-6.748-5.067-12.897-10.62-18.314-16.455l-.733.68c5.459 5.879 11.652 11.473 18.447 16.574l.6-.799zm-21.06-19.509c-5.665-6.505-10.42-13.305-14.091-20.128l-.88.474c3.709 6.894 8.508 13.755 14.216 20.311l.755-.657zm-15.948-23.774c-3.851-8.009-6.161-15.972-6.665-23.453l-.997.067c.513 7.634 2.867 15.722 6.76 23.819l.902-.433zm-6.757-27.536c.197-8.396 2.855-16.048 8.389-22.316l-.75-.661c-5.708 6.465-8.437 14.352-8.639 22.953l1 .024zm11.21-25.163c2.827-2.551 6.225-4.822 10.235-6.756l-.434-.901c-4.087 1.971-7.567 4.294-10.471 6.914l.67.743zm10.235-6.756c3.912-1.886 7.599-3.196 11.055-3.987l-.223-.975c-3.539.811-7.297 2.148-11.266 4.061l.434.901zm14.817-4.657c8.812-1.109 15.975 1.359 21.411 6.36l.677-.736c-5.663-5.21-13.123-7.76-22.213-6.616l.125.992zm24.07 9.169c4.424 5.345 7.416 12.69 8.855 21.283l.987-.165c-1.46-8.715-4.505-16.239-9.072-21.756l-.77.638zm9.384 25.107c.793 7.2.565 15.123-.737 23.36l.988.156c1.314-8.315 1.547-16.328.743-23.626l-.994.11zm-1.423 27.231c-1.447 7.358-3.739 14.909-6.909 22.369l.921.391c3.196-7.523 5.508-15.14 6.969-22.567l-.981-.193zm-8.495 25.937c-3.213 6.91-7.19 13.7-11.958 20.144l.804.595c4.81-6.5 8.821-13.349 12.06-20.318l-.906-.421zm-14.335 23.244a111.426 111.426 0 01-16.39 16.706l.636.772a112.51 112.51 0 0016.537-16.856l-.783-.622zm-19.468 19.151a110.431 110.431 0 01-19.967 12.158l.427.904a111.345 111.345 0 0020.148-12.268l-.608-.794zm-23.525 13.766c-6.877 2.965-14.311 5.367-22.316 7.087l.21.978c8.068-1.733 15.564-4.156 22.502-7.147l-.396-.918zm-26.2 7.859c-7.309 1.337-15.077 2.115-23.313 2.248l.016 1c8.289-.134 16.112-.917 23.477-2.264l-.18-.984zm-27.212 2.263a169.443 169.443 0 01-11.791-.519l-.078.997c4.052.318 8.005.489 11.86.522l.009-1zm-11.791-.519a219.199 219.199 0 01-12.431-1.322l-.135.991c4.009.545 8.17.99 12.488 1.328l.078-.997zm-16.613-1.935c-8.857-1.397-16.928-3.301-24.273-5.639l-.303.953c7.396 2.354 15.518 4.269 24.42 5.673l.156-.987zm-28.173-6.945c-8.489-2.986-15.949-6.576-22.483-10.645l-.529.849c6.601 4.11 14.128 7.731 22.68 10.739l.332-.943zm-25.926-12.89c-7.311-4.994-13.364-10.623-18.323-16.685l-.774.633c5.02 6.137 11.144 11.83 18.533 16.877l.564-.825zm-20.878-19.976c-5.084-6.901-8.856-14.297-11.54-21.909l-.943.332c2.714 7.699 6.531 15.183 11.678 22.17l.805-.593zm-12.829-25.857c-2.437-8.082-3.712-16.353-4.081-24.49l-.999.046c.373 8.209 1.659 16.563 4.122 24.733l.958-.289zm-4.192-28.646c-.073-8.606.831-16.993 2.396-24.77l-.98-.197c-1.578 7.839-2.489 16.295-2.416 24.976l1-.009zm3.283-28.818c2.129-8.989 5.116-17.005 8.424-23.386l-.888-.46c-3.35 6.462-6.363 14.556-8.51 23.615l.974.231zm10.442-27.011c2.544-4.248 5.192-7.489 7.713-9.48l-.619-.785c-2.653 2.095-5.374 5.448-7.952 9.751l.858.514zm7.713-9.48c3.037-2.398 6.133-3.86 9.185-4.559l-.223-.975c-3.208.735-6.438 2.267-9.581 4.749l.619.785zm12.585-5.034c6.893-.356 13.447 2.948 18.388 8.032l.717-.697c-5.085-5.232-11.904-8.708-19.157-8.334l.052.999zm20.663 10.644c4.423 5.67 6.92 12.77 6.234 19.262l.994.105c.72-6.806-1.896-14.157-6.44-19.982l-.788.615zm5.57 22.618c-.929 3.136-2.727 6.04-5.569 8.458l.648.762c2.992-2.546 4.896-5.617 5.88-8.936l-.959-.284zm-5.569 8.458c-3.072 2.613-6.324 4.531-9.709 5.806l.352.936c3.499-1.318 6.851-3.296 10.005-5.98l-.648-.762zm-13.325 6.915c-7.036 1.684-14.594.823-22.295-2.213l-.367.93c7.848 3.094 15.618 3.998 22.895 2.256l-.233-.973zm-25.792-3.736c-6.295-2.998-12.635-7.395-18.806-12.978l-.671.742c6.228 5.634 12.648 10.091 19.047 13.139l.43-.903zm-21.597-15.595c-5.179-5.028-10.208-10.88-14.958-17.421l-.809.588c4.78 6.582 9.846 12.478 15.071 17.551l.696-.718zm-17.168-20.543c-4.194-6.079-8.143-12.698-11.752-19.759l-.89.456c3.628 7.097 7.599 13.754 11.819 19.87l.823-.567zm-13.465-23.197a195.822 195.822 0 01-8.807-21.244l-.945.328a196.861 196.861 0 008.852 21.353l.9-.437zm-10.032-24.879a198.493 198.493 0 01-3.252-11.043l-.967.254a200 200 0 003.268 11.099l.951-.31zM324.86 351.347a.5.5 0 00-.013-.707l-3.244-3.12a.5.5 0 00-.693.721l2.883 2.773-2.773 2.883a.5.5 0 00.721.693l3.119-3.243zm-201.747-54.031c1.986 2.435 4.714 5.156 8.21 8.046l.637-.771c-3.458-2.859-6.137-5.534-8.073-7.907l-.774.632zm11.203 10.416c5.113 3.887 11.558 8.016 19.405 12.127l.464-.886c-7.803-4.088-14.201-8.188-19.264-12.037l-.605.796zm22.817 13.869c6.199 3.083 13.196 6.136 21.021 9.046l.349-.937c-7.794-2.899-14.759-5.937-20.925-9.004l-.445.895zm24.598 10.346c6.712 2.381 13.998 4.653 21.877 6.751l.257-.966c-7.853-2.091-15.114-4.355-21.8-6.728l-.334.943zm25.539 7.703a345.33 345.33 0 0022.346 4.864l.181-.983a345.178 345.178 0 01-22.281-4.85l-.246.969zm26.119 5.539a406.084 406.084 0 0022.61 3.258l.115-.993a404.05 404.05 0 01-22.554-3.251l-.171.986zm26.415 3.683a465.888 465.888 0 0022.786 1.871l.058-.998a466.414 466.414 0 01-22.738-1.867l-.106.994zm26.571 2.076c7.351.37 14.968.592 22.854.648l.008-1a527.457 527.457 0 01-22.812-.647l-.05.999zm26.705.662c3.75.001 7.56-.035 11.43-.11l-.02-1c-3.863.075-7.667.111-11.41.11v1zm37.245 66.89l-.294-.405.294.405zm72 44.5l-.412-.284.412.284zm14.853-73.354a.5.5 0 00-.707 0l-3.182 3.182a.5.5 0 00.708.707l2.828-2.828 2.828 2.828a.5.5 0 00.707-.707l-3.182-3.182zm-32.868 45.975c.979-3.916-1.07-9.098-5.054-13.718l-.758.654c3.911 4.533 5.702 9.382 4.842 12.822l.97.242zm-8.572-17.21c-6.633-5.673-16.499-9.755-27.694-8.059l.15.989c10.86-1.646 20.442 2.312 26.894 7.83l.65-.76zm-32.528-6.978c-4.289 1.272-8.715 3.424-13.179 6.662l.588.81c4.379-3.177 8.703-5.276 12.875-6.513l-.284-.959zm-13.179 6.662c-3.37 2.446-6.209 5.081-8.554 7.851l.763.646c2.29-2.705 5.068-5.286 8.379-7.687l-.588-.81zm-10.924 10.93c-4.819 6.926-6.82 14.508-6.589 21.95l.999-.031c-.224-7.235 1.718-14.604 6.411-21.347l-.821-.572zm-6.269 25.821c1.024 7.618 4.321 14.93 9.227 21.069l.781-.625c-4.803-6.009-8.019-13.154-9.016-20.577l-.992.133zm11.77 23.993c5.271 5.577 11.972 9.918 19.502 12.216l.291-.957c-7.353-2.244-13.906-6.486-19.066-11.946l-.727.687zm23.259 13.176c7.179 1.483 14.971 1.114 22.9-1.729l-.338-.941c-7.752 2.78-15.358 3.137-22.36 1.69l-.202.98zm26.491-3.185c6.27-2.838 12.57-7.268 18.673-13.582l-.719-.695c-6.026 6.235-12.225 10.586-18.366 13.366l.412.911zm21.243-16.367c2.42-2.744 4.803-5.797 7.136-9.179l-.824-.568c-2.311 3.351-4.67 6.373-7.062 9.086l.75.661zm7.136-9.179c2.007-2.91 3.744-6.099 5.246-9.507l-.915-.403c-1.481 3.358-3.188 6.491-5.155 9.342l.824.568zm6.62-12.853c2.46-6.429 4.187-13.527 5.388-20.947l-.987-.16c-1.194 7.373-2.906 14.401-5.335 20.75l.934.357zm5.922-24.511c.972-7.029 1.513-14.299 1.792-21.53l-1-.039c-.277 7.209-.817 14.445-1.783 21.432l.991.137zm1.909-25.128c.098-3.63.137-7.24.137-10.792h-1c0 3.545-.039 7.145-.137 10.765l1 .027z" fill="#000"/></svg>