<svg width="1440" height="246" fill="none" xmlns="http://www.w3.org/2000/svg"><mask id="mask0" maskUnits="userSpaceOnUse" x="0" y="0" width="1440" height="246"><path fill="#5A2D86" d="M0 0h1440v246H0z"/></mask><g mask="url(#mask0)"><path d="M262.5 224.526l.037.499-.037-.499zM732 9.5l.069.495L732 9.5zM626.5 35l-.247.435.247-.435zM1000-77.474l.37-.331-.37.331zM1224.5 155l.1-.49-.1.49zm153.97-80.175a.508.508 0 00-.65-.293l-4.21 1.577a.495.495 0 00-.29.644c.09.258.38.39.64.293l3.75-1.402 1.4 3.746c.1.258.38.39.64.293a.508.508 0 00.3-.644l-1.58-4.214zM-25.5 58.545c.145 3.863.513 7.946 1.128 12.204l.99-.143c-.61-4.224-.975-8.272-1.118-12.099l-1 .038zm1.772 16.205c1.325 7.495 3.405 15.465 6.363 23.676l.941-.339c-2.94-8.158-5.004-16.073-6.32-23.51l-.984.173zm7.787 27.471a160.601 160.601 0 0010.628 22.052l.866-.501a159.624 159.624 0 01-10.562-21.914l-.932.363zm12.73 25.582a169.485 169.485 0 0014.252 19.867l.769-.639A168.441 168.441 0 01-2.358 127.28l-.853.523zm16.919 22.996a179.893 179.893 0 0017.294 17.268l.657-.754a178.896 178.896 0 01-17.198-17.171l-.753.657zm20.417 19.933a196.188 196.188 0 0019.742 14.46l.54-.842a195.117 195.117 0 01-19.642-14.386l-.64.768zm23.17 16.613a219.954 219.954 0 0021.53 11.608l.426-.904a219.128 219.128 0 01-21.432-11.556l-.524.852zm25.26 13.324a252.252 252.252 0 0022.757 8.906l.32-.948a251.09 251.09 0 01-22.668-8.87l-.41.912zm26.686 10.198a292.3 292.3 0 0023.524 6.453l.225-.974a291.303 291.303 0 01-23.443-6.431l-.306.952zm27.559 7.357a340.952 340.952 0 0023.994 4.302l.142-.99a340.7 340.7 0 01-23.924-4.289l-.212.977zm28.057 4.861a398.078 398.078 0 0024.333 2.44l.07-.998a396.806 396.806 0 01-24.272-2.433l-.131.991zm28.363 2.702c7.886.477 16.035.754 24.455.816l.008-1a460.39 460.39 0 01-24.403-.814l-.06.998zm28.602.829a531.868 531.868 0 0024.368-.594l-.047-.998a532.73 532.73 0 01-24.322.592l.001 1zm28.399-.797c4.05-.218 8.155-.483 12.316-.794l-.074-.997c-4.155.311-8.253.575-12.296.793l.054.998zm12.316-.794c4.051-.303 8.05-.638 11.998-1.004l-.092-.995c-3.943.365-7.935.699-11.98 1.002l.074.997zm15.929-1.379a632.535 632.535 0 0023.578-2.764l-.135-.99a634.565 634.565 0 01-23.541 2.759l.098.995zm27.468-3.308a573.793 573.793 0 0023.423-3.841l-.182-.984a572.054 572.054 0 01-23.382 3.835l.141.99zm27.251-4.566a524.676 524.676 0 0023.179-5.011l-.233-.972a524.438 524.438 0 01-23.135 5.001l.189.982zm27.076-5.963a484.573 484.573 0 0022.928-6.296l-.288-.957a484.13 484.13 0 01-22.881 6.282l.241.971zm26.73-7.46a455.234 455.234 0 0022.469-7.621l-.346-.938a456.01 456.01 0 01-22.419 7.605l.296.954zm26.134-8.991a439.748 439.748 0 0021.988-9.01l-.404-.915a438.697 438.697 0 01-21.938 8.99l.354.935zm25.63-10.639a438.648 438.648 0 0021.347-10.37l-.461-.888a438.046 438.046 0 01-21.299 10.347l.413.911zm24.814-12.191a459.79 459.79 0 0020.717-11.699l-.513-.858a458.939 458.939 0 01-20.673 11.674l.469.883zm24.105-13.747a514.46 514.46 0 0019.945-12.823l-.559-.829a514.318 514.318 0 01-19.906 12.798l.52.854zm23.239-15.064a638.83 638.83 0 0019.304-13.787l-.595-.804a636.6 636.6 0 01-19.274 13.766l.565.825zm22.477-16.152a968.082 968.082 0 0018.813-14.493l-.619-.785a969.39 969.39 0 01-18.793 14.477l.599.801zm21.896-16.93c6.296-4.991 12.458-9.958 18.538-14.857l-.628-.779c-6.08 4.9-12.239 9.864-18.531 14.852l.621.784zm21.602-17.326c6.244-5.03 12.408-9.98 18.552-14.806l-.617-.787c-6.15 4.831-12.318 9.785-18.562 14.814l.627.779zm21.653-17.233c6.305-4.913 12.598-9.688 18.94-14.275l-.586-.81c-6.355 4.596-12.657 9.378-18.969 14.297l.615.788zm22.139-16.57c6.485-4.61 13.031-9.015 19.704-13.165l-.528-.849c-6.694 4.162-13.257 8.58-19.755 13.2l.579.815zm23.066-15.227c6.755-4.085 13.649-7.902 20.75-11.398l-.442-.897c-7.129 3.51-14.049 7.341-20.826 11.44l.518.855zm24.301-13.11a226.853 226.853 0 0121.889-9.003l-.331-.944a227.911 227.911 0 00-21.985 9.042l.427.904zm25.607-10.27a214.982 214.982 0 0122.852-6.18l-.207-.977a215.99 215.99 0 00-22.959 6.208l.314.95zm26.696-6.96c3.83-.74 7.734-1.39 11.719-1.944l-.138-.99a224.286 224.286 0 00-11.771 1.953l.19.982zm11.719-1.944c4.297-.596 8.248-.9 11.863-.944l-.013-1c-3.661.046-7.654.352-11.988.954l.138.99zm15.718-.891c10.361.43 17.522 3.169 21.792 7.115l.679-.734c-4.507-4.165-11.933-6.945-22.429-7.38l-.042.999zm24.28 10.01c4.003 5.999 3.01 13.948-2.678 21.413l.795.606c5.848-7.675 7.034-16.102 2.715-22.574l-.832.555zm-5.221 24.384c-4.592 4.815-11.197 9.23-19.666 12.489l.359.933c8.585-3.304 15.322-7.794 20.03-12.732l-.723-.69zm-23.417 13.815c-6.713 2.173-14.447 3.64-23.135 4.09l.052.998c8.769-.453 16.589-1.935 23.391-4.137l-.308-.951zm-27.043 4.221c-7.242.115-15.1-.464-23.536-1.902l-.168.986c8.494 1.447 16.413 2.032 23.72 1.916l-.016-1zm-27.382-2.61c-7.207-1.423-14.816-3.466-22.807-6.224l-.326.945c8.031 2.773 15.685 4.828 22.94 6.26l.193-.98zm-26.578-7.57c-6.96-2.56-14.198-5.66-21.701-9.36l-.442.897c7.532 3.714 14.803 6.828 21.797 9.402l.346-.938zM637.217 40.23a270.725 270.725 0 01-10.47-5.664l-.494.869a271.559 271.559 0 0010.508 5.685l.456-.89zm-10.47-5.664c-3.738-2.129-7.174-4.283-10.319-6.458l-.569.822c3.171 2.194 6.632 4.363 10.394 6.505l.494-.87zm-13.365-8.64c-7.378-5.475-12.947-11.072-16.883-16.728l-.821.57c4.012 5.765 9.664 11.437 17.108 16.96l.596-.803zM594.418 5.943c-4.365-7.468-5.969-15.029-5.199-22.562l-.994-.102c-.794 7.756.864 15.528 5.329 23.169l.864-.505zm-4.587-26.47c1.487-7.074 5.023-14.132 10.328-21.061l-.794-.608c-5.372 7.016-8.987 14.208-10.513 21.463l.979.206zm12.764-24.089c4.698-5.565 10.517-11.028 17.301-16.33l-.616-.788c-6.826 5.335-12.698 10.845-17.449 16.473l.764.645zm20.438-18.718c6.039-4.486 12.763-8.844 20.07-13.039l-.498-.867c-7.336 4.211-14.093 8.59-20.169 13.103l.597.803zm23.471-14.956c6.688-3.703 13.828-7.27 21.35-10.674l-.413-.91c-7.543 3.414-14.708 6.992-21.422 10.71l.485.874zm25.04-12.318a379.503 379.503 0 0122.131-8.86l-.343-.939a380.223 380.223 0 00-22.189 8.884l.401.915zm25.85-10.198a441.81 441.81 0 0122.724-7.359l-.283-.959a442.817 442.817 0 00-22.775 7.375l.334.943zm26.567-8.473a479.848 479.848 0 0123.144-5.98l-.226-.974a480.366 480.366 0 00-23.192 5.992l.274.962zm27.005-6.859a490.875 490.875 0 0123.421-4.642l-.17-.986a492.396 492.396 0 00-23.469 4.652l.218.976zm27.344-5.305a478.13 478.13 0 0123.657-3.294l-.113-.993a478.59 478.59 0 00-23.706 3.301l.162.986zm27.61-3.726a445.879 445.879 0 0123.793-1.862l-.051-.998a444.62 444.62 0 00-23.847 1.866l.105.994zm27.787-2.046a395.996 395.996 0 0123.884-.281l.019-1a397.144 397.144 0 00-23.944.282l.041.999zm27.863-.184c8.054.241 16.004.746 23.803 1.534l.101-.995a338.348 338.348 0 00-23.874-1.538l-.03.999zm27.72 1.954c8.059.919 15.945 2.145 23.607 3.698l.198-.98c-7.691-1.559-15.606-2.79-23.692-3.711l-.113.993zm27.518 4.524c7.932 1.743 15.606 3.847 22.963 6.334l.32-.947c-7.394-2.5-15.104-4.614-23.068-6.364l-.215.977zm26.668 7.629c7.668 2.769 14.968 5.971 21.828 9.632l.471-.883c-6.907-3.684-14.251-6.905-21.959-9.689l-.34.94zm25.31 11.55c7.017 3.994 13.54 8.493 19.487 13.528l.647-.763c-5.999-5.078-12.573-9.612-19.639-13.634l-.495.869zm22.482 16.153a109.61 109.61 0 018.358 8.446l.744-.663a110.045 110.045 0 00-8.429-8.523l-.673.74zm8.358 8.446a1184.34 1184.34 0 017.764 8.847l.75-.656a908.948 908.948 0 00-7.77-8.855l-.744.664zm10.304 11.78c5.23 6.066 10.29 12.05 15.18 17.949l.77-.638a1291.14 1291.14 0 00-15.19-17.965l-.76.654zm17.65 20.941a1338.89 1338.89 0 0114.78 18.263l.79-.622a1346.93 1346.93 0 00-14.8-18.277l-.77.636zm17.2 21.308a1664.44 1664.44 0 0114.43 18.53l.8-.609a1671.82 1671.82 0 00-14.45-18.541l-.78.62zm16.79 21.608c4.89 6.39 9.6 12.636 14.17 18.73l.8-.6a2724.57 2724.57 0 00-14.17-18.737l-.8.607zm16.52 21.864c4.83 6.454 9.49 12.731 14.03 18.823l.8-.598c-4.53-6.09-9.2-12.369-14.03-18.824l-.8.6zm16.38 21.971c4.83 6.479 9.51 12.74 14.09 18.768l.8-.605c-4.58-6.025-9.26-12.282-14.09-18.76l-.8.598zm16.45 21.87c4.93 6.452 9.75 12.629 14.49 18.512l.78-.628c-4.74-5.874-9.55-12.044-14.47-18.492l-.8.607zm16.95 21.535c5.15 6.307 10.24 12.262 15.32 17.839l.74-.673c-5.07-5.562-10.14-11.502-15.29-17.799l-.77.633zm17.96 20.705c5.56 5.958 11.13 11.462 16.79 16.478l.67-.748c-5.64-4.992-11.18-10.473-16.72-16.413l-.74.683zm19.75 19.048c6.16 5.237 12.43 9.9 18.94 13.948l.53-.849c-6.46-4.019-12.7-8.651-18.82-13.86l-.65.761zm22.31 15.973c6.81 3.968 13.9 7.271 21.36 9.865l.33-.945c-7.4-2.572-14.42-5.847-21.19-9.784l-.5.864zm25.08 11.09c3.71 1.152 7.52 2.133 11.43 2.939l.2-.98c-3.88-.799-7.65-1.772-11.33-2.914l-.3.955zm11.43 2.939a168.1 168.1 0 0011.42 1.949l.13-.991c-3.75-.506-7.53-1.151-11.35-1.938l-.2.98zm15.25 2.42c7.89.873 15.61 1.126 23.12.779l-.05-.999c-7.46.344-15.12.093-22.96-.774l-.11.994zm26.97.547c7.86-.584 15.48-1.833 22.84-3.725l-.25-.968c-7.3 1.876-14.86 3.116-22.66 3.696l.07.997zm26.56-4.744c7.48-2.17 14.66-5.015 21.52-8.51l-.45-.891a121.957 121.957 0 01-21.34 8.44l.27.961zm24.93-10.317c6.73-3.697 13.12-8.034 19.16-12.985l-.64-.773a124.089 124.089 0 01-19 12.882l.48.876zm22.1-15.481c5.72-4.984 11.09-10.538 16.08-16.639l-.77-.633c-4.96 6.058-10.29 11.572-15.96 16.519l.65.753zm18.49-19.659c4.61-5.948 8.87-12.382 12.77-19.283l-.87-.492c-3.88 6.861-8.11 13.255-12.69 19.163l.79.612zm14.63-22.668a189.86 189.86 0 005.13-10.38l-.92-.415a174.354 174.354 0 01-5.1 10.324l.89.471z" fill="#000"/><circle cx="111" cy="230" r="43.5" stroke="#000" stroke-dasharray="24 4"/><circle cx="228" cy="-4" r="72.5" stroke="#000" stroke-dasharray="24 4"/></g></svg>