<svg aria-hidden="true" style="position:absolute;width:0;height:0" xmlns="http://www.w3.org/2000/svg" overflow="hidden"><defs><symbol id="instagram" viewBox="0 0 30 30"><path fill="#FF662D" d="M0 0h30v30H0z"/><path d="M18.669 7H11.33A4.336 4.336 0 007 11.331v7.338A4.336 4.336 0 0011.331 23h7.338A4.336 4.336 0 0023 18.669v-7.338A4.336 4.336 0 0018.669 7zM15 19.375A4.38 4.38 0 0110.625 15 4.38 4.38 0 0115 10.625 4.38 4.38 0 0119.375 15 4.38 4.38 0 0115 19.375zm4.48-7.718c-.713 0-1.293-.58-1.293-1.293s.58-1.293 1.293-1.293a1.294 1.294 0 010 2.586z" fill="#fff"/><path d="M15 12.334A2.67 2.67 0 0012.333 15 2.67 2.67 0 0015 17.667 2.67 2.67 0 0017.667 15 2.67 2.67 0 0015 12.334z" fill="#fff"/>&gt;</symbol><symbol id="facebook" viewBox="0 0 30 30"><path fill="#FF662D" d="M0 0h30v30H0z"/><path d="M18.918 14.983H16.47V24h-3.708v-9.017H11v-3.17h1.763v-2.05c0-1.467.693-3.763 3.74-3.763l2.747.012v3.076h-1.993c-.326 0-.786.164-.786.863v1.866h2.77l-.323 3.166z" fill="#fff"/></symbol><symbol id="youtube" viewBox="0 0 30 30"><path fill="#FF662D" d="M0 0h30v30H0z"/><path d="M20.262 8H9.738C7.674 8 6 9.708 6 11.816v5.368C6 19.293 7.674 21 9.738 21h10.524C22.326 21 24 19.292 24 17.184v-5.369C24 9.709 22.326 8 20.262 8zm-2.529 6.761l-4.922 2.396a.198.198 0 01-.282-.182v-4.942c0-.15.155-.247.287-.18l4.922 2.546a.204.204 0 01-.005.362z" fill="#fff"/></symbol><symbol id="telegram" viewBox="0 0 30 30"><path fill="#FF662D" d="M0 0h30v30H0z"/><path d="M12.063 17.227l-.298 3.909c.426 0 .61-.171.832-.376l1.997-1.782 4.139 2.829c.759.395 1.294.187 1.498-.652l2.717-11.88c.242-1.048-.405-1.457-1.145-1.2L5.836 13.78c-1.09.395-1.074.962-.186 1.219l4.083 1.185 9.482-5.538c.447-.276.852-.123.518.153l-7.67 6.428z" fill="#fff"/></symbol></defs></svg>