<svg width="1381" height="227" viewBox="0 0 1381 227" fill="none" xmlns="http://www.w3.org/2000/svg">
<path d="M262.5 224.526L262.537 225.025L262.5 224.526ZM732 9.50011L732.069 9.99535L732 9.50011ZM626.5 35.0001L626.253 35.4346L626.5 35.0001ZM1000 -77.4738L1000.37 -77.8055L1000 -77.4738ZM1224.5 155L1224.6 154.51L1224.5 155ZM1378.47 74.8247C1378.37 74.5661 1378.08 74.4349 1377.82 74.5317L1373.61 76.1093C1373.35 76.2061 1373.22 76.4942 1373.32 76.7528C1373.41 77.0114 1373.7 77.1426 1373.96 77.0458L1377.71 75.6436L1379.11 79.3897C1379.21 79.6483 1379.49 79.7795 1379.75 79.6827C1380.01 79.5859 1380.14 79.2978 1380.05 79.0391L1378.47 74.8247ZM-25.4997 58.5448C-25.355 62.4078 -24.9872 66.4912 -24.3716 70.749L-23.3819 70.6059C-23.9926 66.3817 -24.3571 62.3336 -24.5003 58.5074L-25.4997 58.5448ZM-23.7282 74.7503C-22.4029 82.2448 -20.3234 90.2145 -17.3648 98.4262L-16.424 98.0873C-19.3635 89.9287 -21.4282 82.0142 -22.7435 74.5761L-23.7282 74.7503ZM-15.9408 102.221C-13.1139 109.465 -9.59923 116.868 -5.31285 124.273L-4.44738 123.772C-8.70776 116.412 -12.2004 109.055 -15.0092 101.858L-15.9408 102.221ZM-3.21077 127.803C0.880173 134.482 5.61029 141.142 11.0412 147.67L11.81 147.031C6.41039 140.541 1.70825 133.919 -2.35802 127.28L-3.21077 127.803ZM13.7077 150.799C18.8661 156.71 24.6152 162.495 31.0016 168.067L31.659 167.313C25.307 161.771 19.59 156.019 14.4612 150.142L13.7077 150.799ZM34.1247 170.732C40.1545 175.764 46.7236 180.606 53.8675 185.192L54.4077 184.35C47.2986 179.787 40.7631 174.969 34.7654 169.964L34.1247 170.732ZM57.2951 187.345C63.9796 191.453 71.1471 195.34 78.8247 198.953L79.2506 198.049C71.606 194.45 64.4712 190.582 57.8188 186.493L57.2951 187.345ZM82.5543 200.669C89.7058 203.884 97.2849 206.865 105.312 209.575L105.632 208.627C97.6346 205.928 90.0856 202.958 82.9643 199.757L82.5543 200.669ZM109.241 210.867C116.701 213.26 124.537 215.42 132.765 217.32L132.99 216.346C124.788 214.452 116.979 212.299 109.547 209.915L109.241 210.867ZM136.8 218.224C144.462 219.889 152.456 221.33 160.794 222.526L160.936 221.536C152.621 220.343 144.651 218.906 137.012 217.247L136.8 218.224ZM164.857 223.085C172.669 224.117 180.777 224.936 189.19 225.525L189.26 224.527C180.867 223.94 172.779 223.123 164.988 222.094L164.857 223.085ZM193.22 225.787C201.106 226.264 209.255 226.541 217.675 226.603L217.683 225.603C209.28 225.541 201.148 225.265 193.28 224.789L193.22 225.787ZM221.822 226.616C229.709 226.608 237.829 226.414 246.19 226.022L246.143 225.024C237.797 225.414 229.692 225.608 221.821 225.616L221.822 226.616ZM250.221 225.819C254.271 225.601 258.376 225.336 262.537 225.025L262.463 224.028C258.308 224.339 254.21 224.603 250.167 224.821L250.221 225.819ZM262.537 225.025C266.588 224.722 270.587 224.387 274.535 224.021L274.443 223.026C270.5 223.391 266.508 223.725 262.463 224.028L262.537 225.025ZM278.466 223.646C286.536 222.851 294.392 221.927 302.044 220.882L301.909 219.892C294.27 220.934 286.426 221.857 278.368 222.651L278.466 223.646ZM305.934 220.338C313.965 219.189 321.769 217.905 329.357 216.497L329.175 215.513C321.6 216.919 313.81 218.201 305.793 219.348L305.934 220.338ZM333.185 215.772C341.146 214.236 348.868 212.562 356.364 210.761L356.131 209.789C348.649 211.586 340.942 213.257 332.996 214.79L333.185 215.772ZM360.261 209.809C368.151 207.847 375.788 205.744 383.189 203.513L382.901 202.556C375.515 204.782 367.894 206.88 360.02 208.838L360.261 209.809ZM386.991 202.349C394.735 199.944 402.218 197.398 409.46 194.728L409.114 193.79C401.888 196.454 394.421 198.994 386.695 201.395L386.991 202.349ZM413.125 193.358C420.713 190.485 428.034 187.475 435.113 184.348L434.709 183.433C427.647 186.553 420.342 189.556 412.771 192.423L413.125 193.358ZM438.755 182.719C446.126 179.382 453.233 175.918 460.102 172.349L459.641 171.461C452.787 175.022 445.697 178.478 438.342 181.808L438.755 182.719ZM463.569 170.528C470.722 166.732 477.617 162.823 484.286 158.829L483.773 157.971C477.118 161.957 470.237 165.857 463.1 169.645L463.569 170.528ZM487.674 156.781C494.551 152.585 501.187 148.301 507.619 143.958L507.06 143.129C500.639 147.464 494.016 151.74 487.154 155.927L487.674 156.781ZM510.913 141.717C517.549 137.168 523.97 132.562 530.217 127.93L529.622 127.126C523.383 131.752 516.972 136.352 510.348 140.892L510.913 141.717ZM533.39 125.565C539.825 120.742 546.081 115.899 552.203 111.072L551.584 110.287C545.466 115.11 539.217 119.948 532.791 124.764L533.39 125.565ZM555.286 108.635C561.582 103.644 567.744 98.6773 573.824 93.7778L573.196 92.9992C567.116 97.8991 560.957 102.863 554.665 107.851L555.286 108.635ZM576.888 91.3087C583.132 86.2796 589.296 81.3295 595.44 76.5027L594.823 75.7163C588.673 80.5471 582.505 85.5006 576.261 90.5299L576.888 91.3087ZM598.541 74.0765C604.846 69.1627 611.139 64.388 617.481 59.8014L616.895 58.9911C610.54 63.5866 604.238 68.3689 597.926 73.2878L598.541 74.0765ZM620.68 57.5069C627.165 52.8966 633.711 48.4907 640.384 44.3412L639.856 43.492C633.162 47.6542 626.599 52.0718 620.101 56.6919L620.68 57.5069ZM643.746 42.2793C650.501 38.1942 657.395 34.3773 664.496 30.8814L664.054 29.9843C656.925 33.4942 650.005 37.3253 643.228 41.4236L643.746 42.2793ZM668.047 29.1684C675.111 25.8306 682.386 22.8129 689.936 20.1658L689.605 19.2221C682.021 21.8814 674.713 24.9126 667.62 28.2642L668.047 29.1684ZM693.654 18.8997C700.99 16.4756 708.588 14.4007 716.506 12.7199L716.299 11.7417C708.344 13.4303 700.71 15.5149 693.34 17.9502L693.654 18.8997ZM720.35 11.9399C724.18 11.1987 728.084 10.5488 732.069 9.99535L731.931 9.00487C727.929 9.56078 724.007 10.2135 720.16 10.9582L720.35 11.9399ZM732.069 9.99535C736.366 9.39859 740.317 9.09586 743.932 9.05081L743.919 8.05089C740.258 8.09651 736.265 8.40298 731.931 9.00487L732.069 9.99535ZM747.787 9.10402C758.148 9.53389 765.309 12.2726 769.579 16.219L770.258 15.4846C765.751 11.3195 758.325 8.54037 747.829 8.10487L747.787 9.10402ZM772.067 19.1136C776.07 25.1126 775.077 33.062 769.389 40.5268L770.184 41.1329C776.032 33.458 777.218 25.0315 772.899 18.5586L772.067 19.1136ZM766.846 43.4981C762.254 48.3128 755.649 52.7276 747.18 55.9865L747.539 56.9198C756.124 53.6162 762.861 49.1256 767.569 44.1883L766.846 43.4981ZM743.429 57.313C736.716 59.4856 728.982 60.9531 720.294 61.4027L720.346 62.4013C729.115 61.9476 736.935 60.4656 743.737 58.2644L743.429 57.313ZM716.386 61.5342C709.144 61.6491 701.286 61.0699 692.85 59.6317L692.682 60.6175C701.176 62.0654 709.095 62.65 716.402 62.534L716.386 61.5342ZM689.004 58.9241C681.797 57.5008 674.188 55.4584 666.197 52.7001L665.871 53.6454C673.902 56.4179 681.556 58.4726 688.811 59.9051L689.004 58.9241ZM662.426 51.3549C655.466 48.7934 648.228 45.6934 640.725 41.9938L640.283 42.8907C647.815 46.6051 655.086 49.7191 662.08 52.2933L662.426 51.3549ZM637.217 40.2297C633.78 38.4686 630.29 36.5824 626.747 34.5656L626.253 35.4346C629.808 37.4585 633.311 39.3517 636.761 41.1196L637.217 40.2297ZM626.747 34.5656C623.009 32.4372 619.573 30.2832 616.428 28.1077L615.859 28.93C619.03 31.1237 622.491 33.2931 626.253 35.4346L626.747 34.5656ZM613.382 25.9252C606.004 20.451 600.435 14.8542 596.499 9.19774L595.678 9.76892C599.69 15.5333 605.342 21.2049 612.786 26.7283L613.382 25.9252ZM594.418 5.94431C590.053 -1.52357 588.449 -9.08479 589.219 -16.6179L588.225 -16.7196C587.431 -8.96375 589.089 -1.19151 593.554 6.44887L594.418 5.94431ZM589.831 -20.5259C591.318 -27.6003 594.854 -34.6577 600.159 -41.5874L599.365 -42.1953C593.993 -35.179 590.378 -27.987 588.852 -20.7316L589.831 -20.5259ZM602.595 -44.6146C607.293 -50.1796 613.112 -55.643 619.896 -60.9447L619.28 -61.7326C612.454 -56.3978 606.582 -50.8876 601.831 -45.2596L602.595 -44.6146ZM623.033 -63.3334C629.072 -67.8187 635.796 -72.1772 643.103 -76.3717L642.605 -77.239C635.269 -73.0277 628.512 -68.6481 622.436 -64.1363L623.033 -63.3334ZM646.504 -78.2889C653.192 -81.9917 660.332 -85.5584 667.854 -88.9627L667.441 -89.8737C659.898 -86.4594 652.733 -82.8808 646.019 -79.1638L646.504 -78.2889ZM671.544 -90.6066C678.624 -93.7103 686.02 -96.6706 693.675 -99.4668L693.332 -100.406C685.658 -97.6032 678.243 -94.635 671.143 -91.5225L671.544 -90.6066ZM697.394 -100.805C704.759 -103.416 712.35 -105.875 720.118 -108.164L719.835 -109.123C712.05 -106.829 704.442 -104.365 697.06 -101.748L697.394 -100.805ZM723.961 -109.278C731.533 -111.439 739.262 -113.437 747.105 -115.258L746.879 -116.232C739.02 -114.408 731.274 -112.405 723.687 -110.24L723.961 -109.278ZM750.966 -116.137C758.686 -117.863 766.507 -119.416 774.387 -120.779L774.217 -121.765C766.32 -120.398 758.483 -118.843 750.748 -117.113L750.966 -116.137ZM778.31 -121.442C786.158 -122.734 794.057 -123.837 801.967 -124.736L801.854 -125.729C793.927 -124.828 786.011 -123.723 778.148 -122.428L778.31 -121.442ZM805.92 -125.168C813.862 -126.001 821.807 -126.627 829.713 -127.03L829.662 -128.028C821.737 -127.625 813.774 -126.998 805.815 -126.162L805.92 -125.168ZM833.707 -127.214C841.73 -127.546 849.706 -127.645 857.591 -127.495L857.61 -128.495C849.704 -128.645 841.708 -128.546 833.666 -128.213L833.707 -127.214ZM861.57 -127.398C869.624 -127.157 877.574 -126.652 885.373 -125.864L885.474 -126.859C877.649 -127.649 869.676 -128.156 861.6 -128.397L861.57 -127.398ZM889.29 -125.444C897.349 -124.525 905.235 -123.299 912.897 -121.746L913.095 -122.726C905.404 -124.285 897.489 -125.516 889.403 -126.437L889.29 -125.444ZM916.808 -120.92C924.74 -119.177 932.414 -117.073 939.771 -114.586L940.091 -115.533C932.697 -118.033 924.987 -120.147 917.023 -121.897L916.808 -120.92ZM943.476 -113.291C951.144 -110.522 958.444 -107.32 965.304 -103.659L965.775 -104.542C958.868 -108.226 951.524 -111.447 943.816 -114.231L943.476 -113.291ZM968.786 -101.741C975.803 -97.7472 982.326 -93.2478 988.273 -88.213L988.92 -88.9763C982.921 -94.0542 976.347 -98.5884 969.281 -102.61L968.786 -101.741ZM991.268 -85.5879C994.212 -82.9157 997.002 -80.1018 999.626 -77.1421L1000.37 -77.8055C997.725 -80.793 994.91 -83.6326 991.941 -86.3283L991.268 -85.5879ZM999.626 -77.1421C1002.26 -74.1748 1004.84 -71.2256 1007.39 -68.2949L1008.14 -68.9507C1005.6 -71.8838 1003.01 -74.8356 1000.37 -77.8055L999.626 -77.1421ZM1009.93 -65.3623C1015.16 -59.296 1020.22 -53.3111 1025.11 -47.413L1025.88 -48.0514C1020.98 -53.9542 1015.92 -59.9441 1010.69 -66.0155L1009.93 -65.3623ZM1027.58 -44.4207C1032.68 -38.2333 1037.6 -32.1435 1042.36 -26.1578L1043.15 -26.7803C1038.38 -32.7701 1033.46 -38.8645 1028.35 -45.0567L1027.58 -44.4207ZM1044.78 -23.1128C1049.76 -16.8157 1054.56 -10.6364 1059.21 -4.58247L1060.01 -5.19153C1055.35 -11.2487 1050.55 -17.4318 1045.56 -23.7332L1044.78 -23.1128ZM1061.57 -1.50459C1066.46 4.88487 1071.17 11.1311 1075.74 17.225L1076.54 16.6251C1071.97 10.5295 1067.25 4.28062 1062.37 -2.11204L1061.57 -1.50459ZM1078.09 20.3592C1082.92 26.813 1087.58 33.0905 1092.12 39.1818L1092.92 38.5845C1088.39 32.4941 1083.72 26.2151 1078.89 19.7602L1078.09 20.3592ZM1094.47 42.3305C1099.3 48.809 1103.98 55.0697 1108.56 61.0979L1109.36 60.493C1104.78 54.4685 1100.1 48.2107 1095.27 41.7328L1094.47 42.3305ZM1110.92 64.1991C1115.85 70.6518 1120.67 76.8288 1125.41 82.7118L1126.19 82.0838C1121.45 76.2097 1116.64 70.04 1111.72 63.592L1110.92 64.1991ZM1127.87 85.735C1133.02 92.0423 1138.11 97.9966 1143.19 103.574L1143.93 102.901C1138.86 97.3392 1133.79 91.3989 1128.64 85.1021L1127.87 85.735ZM1145.83 106.44C1151.39 112.398 1156.96 117.902 1162.62 122.918L1163.29 122.17C1157.65 117.178 1152.11 111.697 1146.57 105.757L1145.83 106.44ZM1165.58 125.488C1171.74 130.725 1178.01 135.388 1184.52 139.436L1185.05 138.587C1178.59 134.568 1172.35 129.936 1166.23 124.727L1165.58 125.488ZM1187.89 141.461C1194.7 145.429 1201.79 148.732 1209.25 151.326L1209.58 150.381C1202.18 147.809 1195.16 144.534 1188.39 140.597L1187.89 141.461ZM1212.97 152.551C1216.68 153.703 1220.49 154.684 1224.4 155.49L1224.6 154.51C1220.72 153.711 1216.95 152.738 1213.27 151.596L1212.97 152.551ZM1224.4 155.49C1228.24 156.281 1232.05 156.93 1235.82 157.439L1235.95 156.448C1232.2 155.942 1228.42 155.297 1224.6 154.51L1224.4 155.49ZM1239.65 157.91C1247.54 158.783 1255.26 159.036 1262.77 158.689L1262.72 157.69C1255.26 158.034 1247.6 157.783 1239.76 156.916L1239.65 157.91ZM1266.62 158.457C1274.48 157.873 1282.1 156.624 1289.46 154.732L1289.21 153.764C1281.91 155.64 1274.35 156.88 1266.55 157.46L1266.62 158.457ZM1293.18 153.713C1300.66 151.543 1307.84 148.698 1314.7 145.203L1314.25 144.312C1307.44 147.778 1300.32 150.6 1292.91 152.752L1293.18 153.713ZM1318.11 143.396C1324.84 139.699 1331.23 135.362 1337.27 130.411L1336.63 129.638C1330.65 134.551 1324.3 138.853 1317.63 142.52L1318.11 143.396ZM1340.21 127.915C1345.93 122.931 1351.3 117.377 1356.29 111.276L1355.52 110.643C1350.56 116.701 1345.23 122.215 1339.56 127.162L1340.21 127.915ZM1358.7 108.256C1363.31 102.308 1367.57 95.8739 1371.47 88.9727L1370.6 88.4813C1366.72 95.342 1362.49 101.736 1357.91 107.644L1358.7 108.256ZM1373.33 85.5885C1375.12 82.2323 1376.83 78.7711 1378.46 75.2072L1377.54 74.7928C1375.93 78.3378 1374.23 81.7798 1372.44 85.1167L1373.33 85.5885Z" fill="black"/>
</svg>
