<svg width="290" height="49" viewBox="0 0 290 49" fill="none" xmlns="http://www.w3.org/2000/svg">
<path d="M1 1H240.342L259.704 24.5L240.342 48H1V1Z" fill="#FF662D" stroke="#FF662D" stroke-width="2"/>
<path d="M267.661 25.1302L268.173 24.5L267.661 23.8698L249.1 1H254.639L273.712 24.5L254.639 48H249.1L267.661 25.1302Z" fill="#FF662D" stroke="#FF662D" stroke-width="2"/>
<path d="M282.661 25.1302L283.173 24.5L282.661 23.8698L264.1 1H269.639L288.712 24.5L269.639 48H264.1L282.661 25.1302Z" fill="#FF662D" stroke="#FF662D" stroke-width="2"/>
<path d="M37.281 20.2L39.591 23.476L41.901 20.2H44.029L40.739 24.904L44.295 30H42.139L39.591 26.43L37.057 30H34.957L38.499 24.974L35.181 20.2H37.281ZM52.8209 30.14C51.8222 30.14 50.9216 29.9253 50.1189 29.496C49.3162 29.0573 48.6862 28.4553 48.2289 27.69C47.7716 26.9153 47.5429 26.052 47.5429 25.1C47.5429 24.148 47.7716 23.2893 48.2289 22.524C48.6862 21.7493 49.3162 21.1473 50.1189 20.718C50.9216 20.2793 51.8222 20.06 52.8209 20.06C53.8196 20.06 54.7202 20.2793 55.5229 20.718C56.3256 21.1473 56.9556 21.7447 57.4129 22.51C57.8702 23.2753 58.0989 24.1387 58.0989 25.1C58.0989 26.0613 57.8702 26.9247 57.4129 27.69C56.9556 28.4553 56.3256 29.0573 55.5229 29.496C54.7202 29.9253 53.8196 30.14 52.8209 30.14ZM52.8209 28.544C53.4742 28.544 54.0622 28.3993 54.5849 28.11C55.1076 27.8113 55.5182 27.4007 55.8169 26.878C56.1156 26.346 56.2649 25.7533 56.2649 25.1C56.2649 24.4467 56.1156 23.8587 55.8169 23.336C55.5182 22.804 55.1076 22.3933 54.5849 22.104C54.0622 21.8053 53.4742 21.656 52.8209 21.656C52.1676 21.656 51.5796 21.8053 51.0569 22.104C50.5342 22.3933 50.1236 22.804 49.8249 23.336C49.5262 23.8587 49.3769 24.4467 49.3769 25.1C49.3769 25.7533 49.5262 26.346 49.8249 26.878C50.1236 27.4007 50.5342 27.8113 51.0569 28.11C51.5796 28.3993 52.1676 28.544 52.8209 28.544ZM70.35 20.2V30H68.544V26.304C67.62 26.6493 66.7427 26.822 65.912 26.822C64.6613 26.822 63.6953 26.5233 63.014 25.926C62.342 25.3193 62.006 24.4513 62.006 23.322V20.2H63.812V23.126C63.812 23.8167 64.0127 24.344 64.414 24.708C64.8153 25.072 65.3893 25.254 66.136 25.254C66.9853 25.254 67.788 25.0813 68.544 24.736V20.2H70.35ZM84.3106 20.2L80.0546 28.11C79.6813 28.81 79.2333 29.3373 78.7106 29.692C78.1973 30.0373 77.6373 30.21 77.0306 30.21C76.5453 30.21 76.0646 30.1073 75.5886 29.902L76.0366 28.474C76.4193 28.5953 76.7366 28.656 76.9886 28.656C77.5766 28.656 78.0619 28.3527 78.4446 27.746L78.5986 27.508L74.6926 20.2H76.6386L79.5366 25.954L82.5186 20.2H84.3106ZM103.959 20.2V30H102.139V25.8H97.0705V30H95.2505V20.2H97.0705V24.246H102.139V20.2H103.959ZM116.004 27.732H111.104L110.138 30H108.262L112.672 20.2H114.464L118.888 30H116.984L116.004 27.732ZM115.402 26.304L113.554 22.02L111.72 26.304H115.402ZM138.862 30L138.848 23.504L135.628 28.88H134.816L131.596 23.588V30H129.874V20.2H131.372L135.25 26.682L139.086 20.2H140.57L140.598 30H138.862ZM152.636 27.732H147.736L146.77 30H144.894L149.304 20.2H151.096L155.52 30H153.616L152.636 27.732ZM152.034 26.304L150.186 22.02L148.352 26.304H152.034ZM163.855 20.2C164.704 20.2 165.441 20.34 166.067 20.62C166.701 20.9 167.187 21.3013 167.523 21.824C167.859 22.3467 168.027 22.9673 168.027 23.686C168.027 24.3953 167.859 25.016 167.523 25.548C167.187 26.0707 166.701 26.472 166.067 26.752C165.441 27.032 164.704 27.172 163.855 27.172H161.643V30H159.823V20.2H163.855ZM163.771 25.632C164.564 25.632 165.166 25.464 165.577 25.128C165.987 24.792 166.193 24.3113 166.193 23.686C166.193 23.0607 165.987 22.58 165.577 22.244C165.166 21.908 164.564 21.74 163.771 21.74H161.643V25.632H163.771ZM178.552 27.732H173.652L172.686 30H170.81L175.22 20.2H177.012L181.436 30H179.532L178.552 27.732ZM177.95 26.304L176.102 22.02L174.268 26.304H177.95ZM196.802 25.086C196.802 26.374 196.354 27.3913 195.458 28.138C194.562 28.8847 193.288 29.2907 191.636 29.356V30.392H189.956V29.356C188.304 29.272 187.026 28.8613 186.12 28.124C185.224 27.3867 184.776 26.374 184.776 25.086C184.776 23.798 185.224 22.7853 186.12 22.048C187.026 21.3013 188.304 20.886 189.956 20.802V19.808H191.636V20.802C193.288 20.886 194.562 21.3013 195.458 22.048C196.354 22.7853 196.802 23.798 196.802 25.086ZM191.636 27.928C192.756 27.844 193.606 27.564 194.184 27.088C194.763 26.6027 195.052 25.9307 195.052 25.072C195.052 24.2133 194.758 23.546 194.17 23.07C193.592 22.594 192.747 22.3187 191.636 22.244V27.928ZM186.554 25.086C186.554 25.9353 186.844 26.598 187.422 27.074C188.01 27.55 188.855 27.8347 189.956 27.928V22.244C187.688 22.412 186.554 23.3593 186.554 25.086ZM206.05 30.14C205.051 30.14 204.15 29.9253 203.348 29.496C202.545 29.0573 201.915 28.4553 201.458 27.69C201 26.9153 200.772 26.052 200.772 25.1C200.772 24.148 201 23.2893 201.458 22.524C201.915 21.7493 202.545 21.1473 203.348 20.718C204.15 20.2793 205.051 20.06 206.05 20.06C207.048 20.06 207.949 20.2793 208.752 20.718C209.554 21.1473 210.184 21.7447 210.642 22.51C211.099 23.2753 211.328 24.1387 211.328 25.1C211.328 26.0613 211.099 26.9247 210.642 27.69C210.184 28.4553 209.554 29.0573 208.752 29.496C207.949 29.9253 207.048 30.14 206.05 30.14ZM206.05 28.544C206.703 28.544 207.291 28.3993 207.814 28.11C208.336 27.8113 208.747 27.4007 209.046 26.878C209.344 26.346 209.494 25.7533 209.494 25.1C209.494 24.4467 209.344 23.8587 209.046 23.336C208.747 22.804 208.336 22.3933 207.814 22.104C207.291 21.8053 206.703 21.656 206.05 21.656C205.396 21.656 204.808 21.8053 204.286 22.104C203.763 22.3933 203.352 22.804 203.054 23.336C202.755 23.8587 202.606 24.4467 202.606 25.1C202.606 25.7533 202.755 26.346 203.054 26.878C203.352 27.4007 203.763 27.8113 204.286 28.11C204.808 28.3993 205.396 28.544 206.05 28.544ZM224.848 20.2V30H223.028V25.8H217.96V30H216.14V20.2H217.96V24.246H223.028V20.2H224.848Z" fill="white"/>
</svg>
