<svg width="47" height="36" viewBox="0 0 47 36" fill="none" xmlns="http://www.w3.org/2000/svg">
<path d="M30.0347 24.2056C30.0347 24.2056 30.203 24.0492 30.4556 23.7365C30.7924 23.4237 31.2133 23.0328 31.7184 22.5637C32.8129 21.5472 34.3283 20.2181 36.0121 18.7325V18.9671C34.3283 17.4816 32.8129 16.1524 31.7184 15.2142C31.2133 14.7451 30.7924 14.3541 30.4556 14.0414C30.1189 13.7286 30.0347 13.5723 30.0347 13.5723C30.0347 13.5723 30.2031 13.7286 30.5398 13.9632C30.8766 14.2759 31.3817 14.6669 31.8868 15.0578C32.9813 15.996 34.5809 17.3252 36.2646 18.8107L36.3488 18.8889L36.2646 18.9671C34.5809 20.4526 33.0655 21.7818 31.8868 22.7982C31.3817 23.2673 30.8766 23.6583 30.5398 23.8928C30.2031 24.1274 30.0347 24.2838 30.0347 24.2056Z" fill="white" stroke="white"/>
<path d="M16.9013 13.4932C16.9013 13.4932 16.7329 13.6495 16.4803 13.9623C16.1436 14.2751 15.7226 14.666 15.2175 15.1351C14.1231 16.1516 12.6077 17.4808 10.9239 18.9664V18.7318C12.6077 20.2174 14.1231 21.5467 15.2175 22.4849C15.7226 22.9541 16.1436 23.345 16.4803 23.6578C16.8171 23.9705 16.9013 24.1269 16.9013 24.1269C16.9013 24.1269 16.7329 23.9705 16.3962 23.736C16.0594 23.4232 15.5543 23.0323 15.0491 22.6413C13.9547 21.703 12.3551 20.3738 10.6714 18.8882L10.5872 18.81L10.6714 18.7318C12.3551 17.2462 13.8705 15.917 15.0491 14.9006C15.5543 14.4314 16.0594 14.0405 16.3962 13.8059C16.6487 13.5714 16.8171 13.4932 16.9013 13.4932Z" fill="white" stroke="white"/>
<path d="M20.2689 26.7854C20.1847 26.7854 21.5317 23.1887 23.3838 18.732C25.1518 14.3535 26.6672 10.7568 26.7513 10.7568C26.8355 10.7568 25.4885 14.3535 23.6364 18.8102C21.7843 23.2669 20.3531 26.7854 20.2689 26.7854Z" fill="white" stroke="white"/>
<path d="M44.936 34.4478C44.936 34.4478 44.936 34.2133 44.936 33.8223C44.936 33.4314 44.936 32.8059 44.936 32.1022C44.936 30.6166 44.936 28.3492 44.936 25.5344C44.936 19.9049 44.936 11.8516 44.8518 2.07819L44.936 2.15638C32.7287 2.15638 17.9958 2.15638 2.16839 2.15638L2.33677 2C2.33677 13.7281 2.33677 24.7526 2.33677 34.3696L2.16839 34.2133C14.8808 34.2133 25.4885 34.2915 33.0654 34.2915C36.8539 34.2915 39.8005 34.2915 41.821 34.2915C42.8313 34.2915 43.5889 34.2915 44.1783 34.2915C44.4308 34.2915 44.5992 34.2915 44.7676 34.2915C44.8518 34.4478 44.936 34.4478 44.936 34.4478C44.936 34.4478 44.8518 34.4478 44.7676 34.4478C44.5992 34.4478 44.4308 34.4478 44.1783 34.4478C43.6731 34.4478 42.9155 34.4478 41.9052 34.4478C39.8847 34.4478 36.9381 34.4478 33.1496 34.4478C25.6569 34.4478 14.965 34.4478 2.16839 34.526H2V34.3696C2 24.7526 2 13.7281 2 2H2.16839C17.9958 2 32.6445 2 44.936 2H45.0201V2.07819C45.0201 11.8516 44.936 19.9049 44.936 25.6126C44.936 28.4274 44.936 30.6166 44.936 32.1804C44.936 32.9623 44.936 33.5096 44.936 33.9005C44.936 34.2915 44.936 34.4478 44.936 34.4478Z" fill="white"/>
<path d="M44.936 34.4478C44.936 34.4478 44.936 34.2133 44.936 33.8223C44.936 33.4314 44.936 32.8059 44.936 32.1022C44.936 30.6166 44.936 28.3492 44.936 25.5344C44.936 19.9049 44.936 11.8516 44.8518 2.07819L44.936 2.15638C32.7287 2.15638 17.9958 2.15638 2.16839 2.15638L2.33677 2C2.33677 13.7281 2.33677 24.7526 2.33677 34.3696L2.16839 34.2133C14.8808 34.2133 25.4885 34.2914 33.0654 34.2914C36.8539 34.2914 39.8005 34.2914 41.821 34.2914C42.8313 34.2914 43.5889 34.2914 44.1783 34.2914C44.4308 34.2914 44.5992 34.2914 44.7676 34.2914C44.8518 34.4478 44.936 34.4478 44.936 34.4478ZM44.936 34.4478C44.936 34.4478 44.8518 34.4478 44.7676 34.4478C44.5992 34.4478 44.4308 34.4478 44.1783 34.4478C43.6731 34.4478 42.9155 34.4478 41.9052 34.4478C39.8847 34.4478 36.9381 34.4478 33.1496 34.4478C25.6569 34.4478 14.965 34.4478 2.16839 34.526H2V34.3696C2 24.7526 2 13.7281 2 2H2.16839C17.9958 2 32.6445 2 44.936 2H45.0201V2.07819C45.0201 11.8516 44.936 19.9049 44.936 25.6126C44.936 28.4274 44.936 30.6166 44.936 32.1804C44.936 32.9623 44.936 33.5096 44.936 33.9005C44.936 34.2914 44.936 34.4478 44.936 34.4478Z" stroke="white"/>
<path d="M45.2727 6.92602C45.2727 7.00427 35.591 7.08252 23.7205 7.08252C11.85 7.08252 2.16833 7.00427 2.16833 6.92602C2.16833 6.84778 11.85 6.76953 23.7205 6.76953C35.591 6.76953 45.2727 6.84778 45.2727 6.92602Z" fill="white" stroke="white"/>
<path d="M5.7043 4.58089C5.7043 4.89386 5.45172 5.12858 5.11497 5.12858C4.77821 5.12858 4.52563 4.89386 4.52563 4.58089C4.52563 4.26793 4.77821 4.0332 5.11497 4.0332C5.45172 4.0332 5.7043 4.26793 5.7043 4.58089Z" fill="white" stroke="white"/>
<path d="M7.21958 5.12721C7.54505 5.12721 7.80891 4.8822 7.80891 4.57996C7.80891 4.27773 7.54505 4.03271 7.21958 4.03271C6.89411 4.03271 6.63025 4.27773 6.63025 4.57996C6.63025 4.8822 6.89411 5.12721 7.21958 5.12721Z" fill="white" stroke="white"/>
<path d="M9.91365 4.57996C9.91365 4.89268 9.66107 5.12721 9.32432 5.12721C8.98756 5.12721 8.73499 4.89268 8.73499 4.57996C8.73499 4.26725 8.98756 4.03271 9.32432 4.03271C9.66107 4.03271 9.91365 4.26725 9.91365 4.57996Z" fill="white" stroke="white"/>
</svg>
