<svg width="60" height="60" viewBox="0 0 60 60" fill="none" xmlns="http://www.w3.org/2000/svg">
<circle cx="30" cy="30" r="30" fill="black"/>
<path d="M45 40.3125V15H15V40.3125H25.3125V43.125H23.4375V45H36.5625V43.125H34.6875V40.3125H45ZM32.8125 43.125H27.1875V40.3125H32.8125V43.125ZM25.3125 38.4375H16.875V16.875H43.125V33.75H26.25V35.625H43.125V38.4375H25.3125Z" fill="white"/>
<path d="M23.7122 20.8997L19.2994 25.3125L23.7122 29.7253L25.0379 28.3997L21.9507 25.3125L25.0379 22.2253L23.7122 20.8997Z" fill="white"/>
<path d="M36.2878 29.7253L40.7006 25.3125L36.2878 20.8997L34.9622 22.2253L38.0493 25.3125L34.9622 28.3997L36.2878 29.7253Z" fill="white"/>
<path d="M32.7131 21.9811L31.0361 21.1426L27.2864 28.6421L28.9634 29.4806L32.7131 21.9811Z" fill="white"/>
<path d="M20.625 33.75H18.75V35.625H20.625V33.75Z" fill="white"/>
<path d="M24.375 33.75H22.5V35.625H24.375V33.75Z" fill="white"/>
</svg>
