<svg width="60" height="60" viewBox="0 0 60 60" fill="none" xmlns="http://www.w3.org/2000/svg">
<circle cx="30" cy="30" r="30" fill="black"/>
<path d="M41.25 18.75V20.625H43.125V35.625H20.625V20.625H31.875V18.75H18.75V22.5H15V41.25H41.25V37.5H45V18.75H41.25ZM39.375 39.375H16.875V24.375H18.75V37.5H39.375V39.375Z" fill="white"/>
<path d="M35.625 18.75H33.75V20.625H35.625V18.75Z" fill="white"/>
<path d="M39.375 18.75H37.5V20.625H39.375V18.75Z" fill="white"/>
<path d="M38.4375 23.4375V22.5H25.3125V23.4375C25.3125 24.473 24.473 25.3125 23.4375 25.3125H22.5V30.9375H23.4375C24.473 30.9375 25.3125 31.777 25.3125 32.8125V33.75H38.4375V32.8125C38.4375 31.777 39.277 30.9375 40.3125 30.9375H41.25V25.3125H40.3125C39.277 25.3125 38.4375 24.473 38.4375 23.4375ZM28.125 28.125C28.1007 29.4359 28.4242 30.7298 29.0625 31.875H27.0684C26.725 30.5553 25.6946 29.5245 24.375 29.1806V27.0694C25.6946 26.7254 26.725 25.6947 27.0684 24.375H29.0625C28.4242 25.5202 28.1007 26.8141 28.125 28.125ZM31.875 31.875C30.99 31.875 30 30.2719 30 28.125C30 25.9781 30.99 24.375 31.875 24.375C32.76 24.375 33.75 25.9781 33.75 28.125C33.75 30.2719 32.76 31.875 31.875 31.875ZM39.375 29.1806C38.0554 29.5246 37.025 30.5553 36.6816 31.875H34.6875C35.3258 30.7298 35.6493 29.4359 35.625 28.125C35.6493 26.8141 35.3258 25.5202 34.6875 24.375H36.6825C37.0258 25.6945 38.0558 26.7251 39.375 27.0694V29.1806Z" fill="white"/>
</svg>
