<svg width="60" height="60" viewBox="0 0 60 60" fill="none" xmlns="http://www.w3.org/2000/svg">
<circle cx="30" cy="30" r="30" fill="black"/>
<path d="M30 15C21.7157 15 15 21.7157 15 30C15 38.2843 21.7157 45 30 45C38.2843 45 45 38.2843 45 30C45 21.7157 38.2843 15 30 15ZM30 43.125C22.7513 43.125 16.875 37.2488 16.875 30C16.875 22.7513 22.7513 16.875 30 16.875C37.2488 16.875 43.125 22.7513 43.125 30C43.125 37.2488 37.2488 43.125 30 43.125Z" fill="white"/>
<path d="M25.3125 27.1875C26.348 27.1875 27.1875 26.348 27.1875 25.3125C27.1875 24.277 26.348 23.4375 25.3125 23.4375C24.277 23.4375 23.4375 24.277 23.4375 25.3125C23.4375 26.348 24.277 27.1875 25.3125 27.1875Z" fill="white"/>
<path d="M34.6875 27.1875C35.723 27.1875 36.5625 26.348 36.5625 25.3125C36.5625 24.277 35.723 23.4375 34.6875 23.4375C33.652 23.4375 32.8125 24.277 32.8125 25.3125C32.8125 26.348 33.652 27.1875 34.6875 27.1875Z" fill="white"/>
<path d="M30 29.0625C25.3401 29.0625 21.5625 32.8401 21.5625 37.5H23.4375C23.4375 33.8756 26.3756 30.9375 30 30.9375C33.6244 30.9375 36.5625 33.8756 36.5625 37.5H38.4375C38.4375 32.8401 34.6599 29.0625 30 29.0625Z" fill="white"/>
</svg>
