<svg width="60" height="60" viewBox="0 0 60 60" fill="none" xmlns="http://www.w3.org/2000/svg">
<circle cx="30" cy="30" r="30" fill="black"/>
<g clip-path="url(#clip0)">
<path d="M29.0625 23.375H30.9375V30.3257L26.445 34.8182L25.1194 33.4925L29.0625 29.5493V23.375Z" fill="white"/>
<path d="M23.4408 15.3256L22.1153 14.0001L15.0046 21.1108L16.3301 22.4363L23.4408 15.3256Z" fill="white"/>
<path d="M45 21.1108L37.8892 14.0001L36.5638 15.3256L43.6745 22.4363L45 21.1108Z" fill="white"/>
<path d="M30 17.7501C37.2373 17.7501 43.125 23.6378 43.125 30.8751C43.125 38.1123 37.2373 44 30 44C22.7628 44 16.8751 38.1123 16.8751 30.8751C16.8751 23.6378 22.7628 17.7501 30 17.7501ZM30 42.125C36.2036 42.125 41.25 37.0786 41.25 30.8751C41.25 24.6715 36.2036 19.6251 30 19.6251C23.7965 19.6251 18.7501 24.6715 18.7501 30.8751C18.7501 37.0786 23.7965 42.125 30 42.125Z" fill="white"/>
</g>
<defs>
<clipPath id="clip0">
<rect width="30" height="30" fill="white" transform="matrix(-1 0 0 1 45 14)"/>
</clipPath>
</defs>
</svg>
