<svg width="60" height="60" viewBox="0 0 60 60" fill="none" xmlns="http://www.w3.org/2000/svg">
<circle cx="30" cy="30" r="30" fill="black"/>
<g clip-path="url(#clip0)">
<path d="M24.3778 26.259V29.0702H35.6224V26.259C35.6212 24.2103 34.5058 22.3245 32.711 21.3367C34.1406 19.8395 34.0857 17.4669 32.5886 16.0373C31.0914 14.6078 28.7188 14.6626 27.2892 16.1597C25.9061 17.6082 25.9061 19.8881 27.2892 21.3366C25.4944 22.3245 24.379 24.2103 24.3778 26.259ZM30.0001 16.8885C31.0351 16.8885 31.8742 17.7276 31.8742 18.7626C31.8742 19.7977 31.0351 20.6367 30.0001 20.6367C28.9651 20.6367 28.126 19.7977 28.126 18.7626C28.126 17.7276 28.9651 16.8885 30.0001 16.8885ZM26.2519 26.259C26.2519 24.189 27.93 22.5108 30.0001 22.5108C32.0702 22.5108 33.7483 24.189 33.7483 26.259V27.1961H26.2519V26.259Z" fill="white"/>
<path d="M23.3404 37.2666C24.77 35.7695 24.7152 33.3969 23.218 31.9673C21.7208 30.5377 19.3482 30.5925 17.9186 32.0897C16.5355 33.5382 16.5355 35.8181 17.9186 37.2666C16.1238 38.2545 15.0084 40.1403 15.0072 42.189V45.0001H26.2518V42.189C26.2507 40.1403 25.1352 38.2544 23.3404 37.2666ZM20.6296 32.8185C21.6646 32.8185 22.5037 33.6575 22.5037 34.6926C22.5037 35.7276 21.6646 36.5667 20.6296 36.5667C19.5945 36.5667 18.7555 35.7276 18.7555 34.6926C18.7555 33.6575 19.5945 32.8185 20.6296 32.8185ZM24.3778 43.126H16.8814V42.189C16.8814 40.1189 18.5595 38.4408 20.6296 38.4408C22.6996 38.4408 24.3778 40.1189 24.3778 42.189V43.126Z" fill="white"/>
<path d="M42.0815 37.2666C43.5111 35.7695 43.4562 33.3969 41.9591 31.9673C40.4619 30.5377 38.0893 30.5925 36.6597 32.0897C35.2766 33.5382 35.2766 35.8181 36.6597 37.2666C34.8649 38.2545 33.7495 40.1403 33.7483 42.189V45.0001H44.9929V42.189C44.9917 40.1403 43.8763 38.2544 42.0815 37.2666ZM39.3706 32.8185C40.4056 32.8185 41.2447 33.6575 41.2447 34.6926C41.2447 35.7276 40.4056 36.5667 39.3706 36.5667C38.3356 36.5667 37.4965 35.7276 37.4965 34.6926C37.4965 33.6575 38.3356 32.8185 39.3706 32.8185ZM43.1188 43.126H35.6224V42.189C35.6224 40.1189 37.3005 38.4408 39.3706 38.4408C41.4407 38.4408 43.1188 40.1189 43.1188 42.189V43.126Z" fill="white"/>
<path d="M41.2447 30.0072H43.1188C43.1271 25.1114 40.4019 20.6204 36.0553 18.3672L35.1895 20.0295C38.9153 21.961 41.2514 25.8105 41.2447 30.0072Z" fill="white"/>
<path d="M24.8107 20.0295L23.9448 18.3672C19.5983 20.6203 16.873 25.1114 16.8814 30.0072H18.7555C18.7487 25.8105 21.0849 21.961 24.8107 20.0295Z" fill="white"/>
<path d="M28.2703 41.1187L27.9817 42.9712C29.3194 43.1774 30.6808 43.1774 32.0185 42.9712L31.7299 41.1187C30.5834 41.2948 29.4168 41.2948 28.2703 41.1187Z" fill="white"/>
<path d="M30.9371 30.9443H29.063V32.8184H30.9371V30.9443Z" fill="white"/>
<path d="M28.1259 34.6924H26.2518V36.5665H28.1259V34.6924Z" fill="white"/>
<path d="M33.7482 34.6924H31.8741V36.5665H33.7482V34.6924Z" fill="white"/>
</g>
<defs>
<clipPath id="clip0">
<rect width="30" height="30" fill="white" transform="translate(15 15)"/>
</clipPath>
</defs>
</svg>
