<svg aria-hidden="true" style="position: absolute; width: 0; height: 0; overflow: hidden;" version="1.1" xmlns="http://www.w3.org/2000/svg" xmlns:xlink="http://www.w3.org/1999/xlink">
	<defs>
		<symbol id="clock" viewBox="0 0 60 60">
			<title>
				clock
			</title>
			<circle cx="30" cy="30" r="30" fill="black" />
			<g clip-path="url(#clip0)">
				<path d="M29.0625 23.375H30.9375V30.3257L26.445 34.8182L25.1194 33.4925L29.0625 29.5493V23.375Z" fill="white" />
				<path d="M23.4408 15.3256L22.1153 14.0001L15.0046 21.1108L16.3301 22.4363L23.4408 15.3256Z" fill="white" />
				<path d="M45 21.1108L37.8892 14.0001L36.5638 15.3256L43.6745 22.4363L45 21.1108Z" fill="white" />
				<path d="M30 17.7501C37.2373 17.7501 43.125 23.6378 43.125 30.8751C43.125 38.1123 37.2373 44 30 44C22.7628 44 16.8751 38.1123 16.8751 30.8751C16.8751 23.6378 22.7628 17.7501 30 17.7501ZM30 42.125C36.2036 42.125 41.25 37.0786 41.25 30.8751C41.25 24.6715 36.2036 19.6251 30 19.6251C23.7965 19.6251 18.7501 24.6715 18.7501 30.8751C18.7501 37.0786 23.7965 42.125 30 42.125Z" fill="white" />
			</g>
			<defs>
				<clipPath id="clip0">
					<rect width="30" height="30" fill="white" transform="matrix(-1 0 0 1 45 14)" />
				</clipPath>
			</defs>
			>
		</symbol>
		<symbol id="coding" viewBox="0 0 60 60">
			<title>
				coding
			</title>
			<circle cx="30" cy="30" r="30" fill="black" />
			<path d="M45 40.3125V15H15V40.3125H25.3125V43.125H23.4375V45H36.5625V43.125H34.6875V40.3125H45ZM32.8125 43.125H27.1875V40.3125H32.8125V43.125ZM25.3125 38.4375H16.875V16.875H43.125V33.75H26.25V35.625H43.125V38.4375H25.3125Z" fill="white" />
			<path d="M23.7122 20.8997L19.2994 25.3125L23.7122 29.7253L25.0379 28.3997L21.9507 25.3125L25.0379 22.2253L23.7122 20.8997Z" fill="white" />
			<path d="M36.2878 29.7253L40.7006 25.3125L36.2878 20.8997L34.9622 22.2253L38.0493 25.3125L34.9622 28.3997L36.2878 29.7253Z" fill="white" />
			<path d="M32.7131 21.9811L31.0361 21.1426L27.2864 28.6421L28.9634 29.4806L32.7131 21.9811Z" fill="white" />
			<path d="M20.625 33.75H18.75V35.625H20.625V33.75Z" fill="white" />
			<path d="M24.375 33.75H22.5V35.625H24.375V33.75Z" fill="white" />
			>
		</symbol>
		<symbol id="dollar" viewBox="0 0 60 60">
			<title>
				dollar
			</title>
			<circle cx="30" cy="30" r="30" fill="black" />
			<path d="M41.25 18.75V20.625H43.125V35.625H20.625V20.625H31.875V18.75H18.75V22.5H15V41.25H41.25V37.5H45V18.75H41.25ZM39.375 39.375H16.875V24.375H18.75V37.5H39.375V39.375Z" fill="white" />
			<path d="M35.625 18.75H33.75V20.625H35.625V18.75Z" fill="white" />
			<path d="M39.375 18.75H37.5V20.625H39.375V18.75Z" fill="white" />
			<path d="M38.4375 23.4375V22.5H25.3125V23.4375C25.3125 24.473 24.473 25.3125 23.4375 25.3125H22.5V30.9375H23.4375C24.473 30.9375 25.3125 31.777 25.3125 32.8125V33.75H38.4375V32.8125C38.4375 31.777 39.277 30.9375 40.3125 30.9375H41.25V25.3125H40.3125C39.277 25.3125 38.4375 24.473 38.4375 23.4375ZM28.125 28.125C28.1007 29.4359 28.4242 30.7298 29.0625 31.875H27.0684C26.725 30.5553 25.6946 29.5245 24.375 29.1806V27.0694C25.6946 26.7254 26.725 25.6947 27.0684 24.375H29.0625C28.4242 25.5202 28.1007 26.8141 28.125 28.125ZM31.875 31.875C30.99 31.875 30 30.2719 30 28.125C30 25.9781 30.99 24.375 31.875 24.375C32.76 24.375 33.75 25.9781 33.75 28.125C33.75 30.2719 32.76 31.875 31.875 31.875ZM39.375 29.1806C38.0554 29.5246 37.025 30.5553 36.6816 31.875H34.6875C35.3258 30.7298 35.6493 29.4359 35.625 28.125C35.6493 26.8141 35.3258 25.5202 34.6875 24.375H36.6825C37.0258 25.6945 38.0558 26.7251 39.375 27.0694V29.1806Z" fill="white" />
			>
		</symbol>
		<symbol id="face" viewBox="0 0 60 60">
			<title>
				face
			</title>
			<circle cx="30" cy="30" r="30" fill="black" />
			<path d="M30 15C21.7157 15 15 21.7157 15 30C15 38.2843 21.7157 45 30 45C38.2843 45 45 38.2843 45 30C45 21.7157 38.2843 15 30 15ZM30 43.125C22.7513 43.125 16.875 37.2488 16.875 30C16.875 22.7513 22.7513 16.875 30 16.875C37.2488 16.875 43.125 22.7513 43.125 30C43.125 37.2488 37.2488 43.125 30 43.125Z" fill="white" />
			<path d="M25.3125 27.1875C26.348 27.1875 27.1875 26.348 27.1875 25.3125C27.1875 24.277 26.348 23.4375 25.3125 23.4375C24.277 23.4375 23.4375 24.277 23.4375 25.3125C23.4375 26.348 24.277 27.1875 25.3125 27.1875Z" fill="white" />
			<path d="M34.6875 27.1875C35.723 27.1875 36.5625 26.348 36.5625 25.3125C36.5625 24.277 35.723 23.4375 34.6875 23.4375C33.652 23.4375 32.8125 24.277 32.8125 25.3125C32.8125 26.348 33.652 27.1875 34.6875 27.1875Z" fill="white" />
			<path d="M30 29.0625C25.3401 29.0625 21.5625 32.8401 21.5625 37.5H23.4375C23.4375 33.8756 26.3756 30.9375 30 30.9375C33.6244 30.9375 36.5625 33.8756 36.5625 37.5H38.4375C38.4375 32.8401 34.6599 29.0625 30 29.0625Z" fill="white" />
			>
		</symbol>
		<symbol id="id-card" viewBox="0 0 60 60">
			<title>
				id-card
			</title>
			<circle cx="30" cy="30" r="30" fill="black" />
			<path d="M16.875 27.125H15V29H16.875V27.125Z" fill="white" />
			<path d="M16.875 30.875H15V32.75H16.875V30.875Z" fill="white" />
			<path d="M15 20.5625V25.25H16.875V22.4375H43.125V39.3125H30V37.4375C29.9988 35.3878 28.8829 33.5011 27.0872 32.5128C28.5175 31.0149 28.4626 28.6412 26.9647 27.211C25.4668 25.7807 23.093 25.8355 21.6628 27.3334C20.279 28.7826 20.279 31.0636 21.6628 32.5128C19.8671 33.5011 18.7512 35.3878 18.75 37.4375V39.3125H16.875V34.625H15V41.1875H45V20.5625H15ZM24.375 28.0625C25.4105 28.0625 26.25 28.902 26.25 29.9375C26.25 30.973 25.4105 31.8125 24.375 31.8125C23.3395 31.8125 22.5 30.973 22.5 29.9375C22.5 28.902 23.3395 28.0625 24.375 28.0625ZM28.125 39.3125H20.625V37.4375C20.625 35.3664 22.3039 33.6875 24.375 33.6875C26.4461 33.6875 28.125 35.3664 28.125 37.4375V39.3125Z" fill="white" />
			<path d="M41.25 28.0625H31.875V29.9375H41.25V28.0625Z" fill="white" />
			<path d="M37.5 31.8125H31.875V33.6875H37.5V31.8125Z" fill="white" />
			<path d="M41.25 31.8125H39.375V33.6875H41.25V31.8125Z" fill="white" />
			<path d="M41.25 16.8125H18.75V18.6875H41.25V16.8125Z" fill="white" />
		</symbol>
		<symbol id="money" viewBox="0 0 60 60">
			<title>
				money
			</title>
			<circle cx="30" cy="30" r="30" fill="black" />
			<path d="M43.0302 25.3828C43.0659 25.2236 43.0851 25.0606 43.0851 24.8936V21.0638C43.0851 17.7471 35.85 15.9574 29.0425 15.9574C22.235 15.9574 15 17.7471 15 21.0638C15 21.2069 15.0144 21.3469 15.0407 21.4842C15.0158 21.5525 15 21.6253 15 21.7021V24.8936C15 25.9546 15.7413 26.8591 16.9713 27.599C16.9345 27.7598 16.9149 27.9222 16.9149 28.085C16.9149 28.2281 16.9293 28.3681 16.9556 28.5055C16.9306 28.5738 16.9149 28.6465 16.9149 28.7234V31.9149C16.9149 32.2079 16.9725 32.4888 17.0801 32.7578C15.9023 33.6306 15.6383 34.5043 15.6383 35.1064C15.6383 35.2495 15.6527 35.3895 15.679 35.5268C15.654 35.5951 15.6383 35.6678 15.6383 35.7447V38.9362C15.6383 42.2529 22.8734 44.0426 29.6809 44.0426C36.4884 44.0426 43.7235 42.2529 43.7235 38.9362V35.1064C43.7235 34.823 43.6668 34.5432 43.557 34.27C44.4675 33.6006 45 32.814 45 31.9149V28.0851V28.085C45 27.3822 44.6477 26.361 43.0302 25.3828ZM19.7662 18.5099C22.2345 17.6872 25.5289 17.2341 29.0425 17.2341C32.5561 17.2341 35.8505 17.6872 38.3188 18.5099C40.504 19.2383 41.8085 20.1931 41.8085 21.0638C41.8085 21.9346 40.504 22.8893 38.3188 23.6177C35.8504 24.4404 32.5561 24.8936 29.0425 24.8936C25.5289 24.8936 22.2344 24.4404 19.7662 23.6177C17.5811 22.8893 16.2766 21.9346 16.2766 21.0638C16.2766 20.1931 17.5811 19.2383 19.7662 18.5099ZM41.8085 23.292V24.8936C41.8085 25.6313 40.8697 26.4286 39.2554 27.0981V24.6391C40.2842 24.2583 41.1571 23.8085 41.8085 23.292ZM37.9787 25.0546V27.5554C37.1972 27.7981 36.3404 28.0054 35.4255 28.175V25.6344C36.3251 25.4756 37.1834 25.2821 37.9787 25.0546ZM34.149 25.8331V28.3827C33.3301 28.4974 32.4758 28.5844 31.5958 28.6415V26.0871C32.4607 26.0308 33.3169 25.9459 34.149 25.8331ZM30.3192 26.1494V28.703C29.8976 28.7164 29.4718 28.7234 29.0426 28.7234C28.6134 28.7234 28.1875 28.7164 27.766 28.703V26.1493C28.192 26.1632 28.6181 26.1701 29.0426 26.1701C29.467 26.1702 29.8932 26.1632 30.3192 26.1494ZM26.4894 26.0871V28.6416C25.6093 28.5844 24.755 28.4975 23.9361 28.3828V25.8332C24.7682 25.9459 25.6244 26.0308 26.4894 26.0871ZM22.6596 25.6344V28.175C21.7447 28.0054 20.8879 27.7982 20.1064 27.5555V25.0546C20.9017 25.2821 21.7601 25.4757 22.6596 25.6344ZM16.2766 24.8936V23.292C16.928 23.8085 17.8009 24.2583 18.8297 24.6391V27.0981C17.2154 26.4286 16.2766 25.6313 16.2766 24.8936ZM18.1915 30.3131C18.8429 30.8297 19.7158 31.2795 20.7446 31.6603V34.1193C19.1303 33.4498 18.1915 32.6525 18.1915 31.9148V30.3131ZM19.4681 41.1407C17.8537 40.4712 16.9149 39.6738 16.9149 38.9362V37.3345C17.5663 37.8511 18.4392 38.3009 19.4681 38.6817V41.1407ZM23.2979 42.2176C22.383 42.0479 21.5262 41.8407 20.7447 41.5981V39.0972C21.5401 39.3246 22.3984 39.5182 23.2979 39.677V42.2176ZM27.1277 42.6841C26.2477 42.6269 25.3933 42.5399 24.5745 42.4253V39.8757C25.4065 39.9884 26.2627 40.0733 27.1277 40.1297V42.6841ZM30.9574 42.7456C30.5358 42.759 30.11 42.7659 29.6808 42.7659C29.2516 42.7659 28.8258 42.759 28.4043 42.7456V40.192C28.8302 40.2058 29.2563 40.2128 29.6808 40.2128C30.1054 40.2128 30.5314 40.2058 30.9574 40.192V42.7456ZM34.7872 42.4253C33.9684 42.54 33.1141 42.627 32.2341 42.6841V40.1297C33.099 40.0734 33.9553 39.9885 34.7872 39.8757V42.4253ZM38.617 41.598C37.8355 41.8407 36.9788 42.0479 36.0639 42.2176V39.6769C36.9634 39.5182 37.8217 39.3246 38.617 39.0972V41.598ZM42.4468 38.9362C42.4468 39.6738 41.508 40.4712 39.8937 41.1407V38.6817C40.9226 38.3009 41.7954 37.8511 42.4468 37.3345V38.9362ZM38.9572 37.6603C36.4888 38.483 33.1945 38.9361 29.6809 38.9361C26.1673 38.9361 22.8728 38.483 20.4046 37.6603C18.2194 36.9319 16.915 35.9772 16.915 35.1064C16.915 34.6068 17.3476 34.1499 17.8078 33.8051C19.9455 35.906 25.5843 37.0213 30.9575 37.0213C35.2545 37.0213 39.721 36.308 42.4315 34.9479C42.441 35.0009 42.4469 35.0537 42.4469 35.1064C42.4468 35.9772 41.1423 36.9319 38.9572 37.6603ZM22.0213 34.5768V32.0758C22.8166 32.3033 23.675 32.4969 24.5745 32.6556V35.1963C23.6596 35.0267 22.8028 34.8195 22.0213 34.5768ZM25.8511 35.404V32.8543C26.6831 32.9671 27.5394 33.052 28.4043 33.1083V35.6629C27.5242 35.6057 26.6699 35.5187 25.8511 35.404ZM29.6808 35.7243V33.1706C30.1068 33.1844 30.5329 33.1914 30.9574 33.1914C31.3819 33.1914 31.808 33.1844 32.234 33.1706V35.7243C31.8124 35.7377 31.3866 35.7447 30.9574 35.7447C30.5282 35.7447 30.1024 35.7377 29.6808 35.7243ZM33.5106 35.6628V33.1083C34.3756 33.052 35.2318 32.9671 36.0638 32.8543V35.404C35.245 35.5187 34.3907 35.6057 33.5106 35.6628ZM37.3405 35.1963V32.6556C38.24 32.4969 39.0983 32.3033 39.8936 32.0758V34.5768C39.1121 34.8195 38.2553 35.0267 37.3405 35.1963ZM43.7234 31.9149C43.7234 32.6525 42.7846 33.4499 41.1703 34.1194V31.6603C42.1992 31.2795 43.072 30.8298 43.7234 30.3132V31.9149ZM40.2338 30.6389C37.7655 31.4617 34.4711 31.9148 30.9575 31.9148C27.4439 31.9148 24.1494 31.4617 21.6812 30.6389C19.6086 29.9481 18.3305 29.0537 18.2041 28.2203C20.945 29.3892 25.0663 30 29.0426 30C34.6383 30 40.5219 28.7905 42.4395 26.5179C43.2705 27.034 43.7234 27.583 43.7234 28.085C43.7234 28.9558 42.4189 29.9105 40.2338 30.6389Z" fill="white" />
		</symbol>
		<symbol id="person" viewBox="0 0 60 60">
			<title>
				person
			</title>
			<circle cx="30" cy="30" r="30" fill="black" />
			<path d="M37.6766 36.781L34.895 39.9601V45.0001H36.77V40.6651L39.0875 38.0157C41.0372 35.7859 42.3774 33.0899 42.9781 30.1895L41.1416 29.8145C40.606 32.3963 39.4124 34.7961 37.6766 36.781Z" fill="white" />
			<path d="M21.77 34.6874H19.3729L21.77 28.2956V26.7187C21.7693 25.0275 22.2042 23.3647 23.0329 21.8906L21.3997 20.969C20.4129 22.7246 19.8947 24.7047 19.895 26.7187V27.9543L16.6672 36.5624H19.895V41.2499H24.5826V44.9999H26.4576V39.3749H21.77V34.6874Z" fill="white" />
			<path d="M25.1938 19.2562L23.975 17.835C23.4586 18.2782 22.9815 18.7653 22.5491 19.2909L23.9994 20.4796C24.3614 20.0381 24.761 19.6287 25.1938 19.2562Z" fill="white" />
			<path d="M26.4575 15V28.125H29.27V32.6887L36.1138 28.125H43.3325V15H26.4575ZM41.4575 26.25H35.5513L31.145 29.1862V26.25H28.3325V16.875H41.4575V26.25Z" fill="white" />
			<path d="M39.5825 18.75H30.2075V20.625H39.5825V18.75Z" fill="white" />
			<path d="M39.5825 22.5H37.7075V24.375H39.5825V22.5Z" fill="white" />
			<path d="M35.8325 22.5H30.2075V24.375H35.8325V22.5Z" fill="white" />
		</symbol>
		<symbol id="sofa" viewBox="0 0 60 60">
			<title>
				sofa
			</title>
			<circle cx="30" cy="30" r="30" fill="black" />
			<path d="M43.125 24.5475V21.5625C43.125 20.0092 41.8658 18.75 40.3125 18.75H39.375V20.625H40.3125C40.8303 20.625 41.25 21.0447 41.25 21.5625V24.5475C40.1303 24.9434 39.3799 25.9999 39.375 27.1875V28.125H30.9375V21.5625C30.9375 21.0447 31.3572 20.625 31.875 20.625H33.75V18.75H31.875C31.1827 18.7494 30.5147 19.0052 30 19.4681C29.4853 19.0052 28.8173 18.7494 28.125 18.75H26.25V20.625H28.125C28.6428 20.625 29.0625 21.0447 29.0625 21.5625V28.125H20.625V27.1875C20.6201 25.9999 19.8697 24.9434 18.75 24.5475V21.5625C18.75 21.0447 19.1697 20.625 19.6875 20.625H20.6644V18.75H19.6875C18.1342 18.75 16.875 20.0092 16.875 21.5625V24.5475C15.7553 24.9434 15.0049 25.9999 15 27.1875V39.375H16.875V41.25H18.75V39.375H41.25V41.25H43.125V39.375H45V27.1875C44.9951 25.9999 44.2447 24.9434 43.125 24.5475ZM18.75 37.5H16.875V27.1875C16.875 26.6697 17.2947 26.25 17.8125 26.25C18.3303 26.25 18.75 26.6697 18.75 27.1875V37.5ZM39.375 37.5H20.625V33.75H39.375V37.5ZM39.375 31.875H20.625V30H39.375V31.875ZM43.125 37.5H41.25V27.1875C41.25 26.6697 41.6697 26.25 42.1875 26.25C42.7053 26.25 43.125 26.6697 43.125 27.1875V37.5Z" fill="white" />
			<path d="M24.375 18.75H22.5V20.625H24.375V18.75Z" fill="white" />
			<path d="M37.5 18.75H35.625V20.625H37.5V18.75Z" fill="white" />
		</symbol>
		<symbol id="summer" viewBox="0 0 60 60">
			<title>
				summer
			</title>
			<circle cx="30" cy="30" r="30" fill="black" />
			<path d="M41.37 21.4284L42.8053 20.2237C42.3601 19.6916 41.857 19.2109 41.3053 18.7903L40.1681 20.2809C40.6095 20.6182 41.0126 21.003 41.37 21.4284Z" fill="white" />
			<path d="M43.9594 21.9534L42.2925 22.8141C42.6971 23.5942 42.9594 24.4403 43.0669 25.3125H28.1841C28.6612 21.5651 31.8473 18.7551 35.625 18.75C36.7004 18.747 37.7637 18.9776 38.7412 19.4259L39.5212 17.7188C38.5857 17.2921 37.5859 17.0238 36.5625 16.9247V15H34.6875V16.9228C29.9 17.4097 26.2561 21.4379 26.25 26.25V27.1875H34.6875V30H36.5625V27.1875H45V26.25C44.9988 24.7556 44.6421 23.2828 43.9594 21.9534Z" fill="white" />
			<path d="M36.5625 35.6251H34.6875V43.1251H32.4544L30.0844 38.3841L32.7534 31.2676L30.9966 30.6113L29.8191 33.7501H23.7956L21.9206 37.5001H19.1859L15.4359 43.1251H15V45.0001H45V43.1251H36.5625V35.6251ZM24.9544 35.6251H29.1159L28.4128 37.5001H24.0169L24.9544 35.6251ZM17.6888 43.1251L20.1891 39.3751H28.4831L30.3581 43.1251H17.6888Z" fill="white" />
			<path d="M36.5625 31.875H34.6875V33.75H36.5625V31.875Z" fill="white" />
		</symbol>
		<symbol id="weekend" viewBox="0 0 60 60">
			<title>
				weekend
			</title>
			<circle cx="30" cy="30" r="30" fill="black" />
			<path d="M39.375 37.5C37.3039 37.5 35.625 39.1789 35.625 41.25C35.625 43.3211 37.3039 45 39.375 45C41.4461 45 43.125 43.3211 43.125 41.25C43.125 39.1789 41.4461 37.5 39.375 37.5ZM39.375 43.125C38.3395 43.125 37.5 42.2855 37.5 41.25C37.5 40.2145 38.3395 39.375 39.375 39.375C40.4105 39.375 41.25 40.2145 41.25 41.25C41.25 42.2855 40.4105 43.125 39.375 43.125Z" fill="white" />
			<path d="M26.25 37.5C24.1789 37.5 22.5 39.1789 22.5 41.25C22.5 43.3211 24.1789 45 26.25 45C28.3211 45 30 43.3211 30 41.25C30 39.1789 28.3211 37.5 26.25 37.5ZM26.25 43.125C25.2145 43.125 24.375 42.2855 24.375 41.25C24.375 40.2145 25.2145 39.375 26.25 39.375C27.2855 39.375 28.125 40.2145 28.125 41.25C28.125 42.2855 27.2855 43.125 26.25 43.125Z" fill="white" />
			<path d="M26.25 35.625V33.75H23.4375C22.402 33.75 21.5625 32.9105 21.5625 31.875V18.75C21.5625 16.6789 19.8836 15 17.8125 15H15V16.875H17.8125C18.848 16.875 19.6875 17.7145 19.6875 18.75V31.875C19.6875 33.9461 21.3664 35.625 23.4375 35.625H26.25Z" fill="white" />
			<path d="M45 33.75H31.875V35.625H45V33.75Z" fill="white" />
			<path d="M27.1875 31.875H32.8125V30H27.1875C26.6697 30 26.25 29.5803 26.25 29.0625V21.5625C26.25 21.0447 26.6697 20.625 27.1875 20.625H40.3125C40.8303 20.625 41.25 21.0447 41.25 21.5625V29.0625C41.25 29.5803 40.8303 30 40.3125 30H38.4375V31.875H40.3125C41.8658 31.875 43.125 30.6158 43.125 29.0625V21.5625C43.125 20.0092 41.8658 18.75 40.3125 18.75H37.5V15H30V18.75H27.1875C25.6342 18.75 24.375 20.0092 24.375 21.5625V29.0625C24.375 30.6158 25.6342 31.875 27.1875 31.875ZM31.875 16.875H35.625V18.75H31.875V16.875Z" fill="white" />
			<path d="M30 22.5H28.125V28.125H30V22.5Z" fill="white" />
			<path d="M39.375 22.5H37.5V28.125H39.375V22.5Z" fill="white" />
			<path d="M30 33.75H28.125V35.625H30V33.75Z" fill="white" />
			<path d="M36.5625 30H34.6875V31.875H36.5625V30Z" fill="white" />
		</symbol>
		<symbol id="win" viewBox="0 0 60 60">
			<title>
				win
			</title>
			<circle cx="30" cy="30" r="30" fill="black" />
			<path d="M31.875 43.125H33.75V45H31.875V43.125Z" fill="white" />
			<path d="M35.625 43.125H37.5V45H35.625V43.125Z" fill="white" />
			<path d="M18.75 43.125V39.375H26.25V35.625H33.75V31.875H41.25V24.375H31.2956L33.6394 19.6875L31.2956 15H43.125V31.875H45V45H39.375V43.125H43.125V33.75H35.625V37.5H28.125V41.25H20.625V43.125H30V45H15V43.125H18.75ZM41.25 16.875H34.3294L35.7356 19.6875L34.3294 22.5H41.25V16.875Z" fill="white" />
		</symbol>
		<symbol id="work" viewBox="0 0 60 60">
			<title>
				work
			</title>
			<circle cx="30" cy="30" r="30" fill="black" />
			<path d="M44.4643 23.8393H41.4965C42.0075 23.2698 42.3215 22.5204 42.3215 21.6964C42.3215 19.9237 40.8799 18.4821 39.1072 18.4821C37.3345 18.4821 35.8929 19.9237 35.8929 21.6964C35.8929 22.5204 36.2068 23.2698 36.7179 23.8393H35.3572C35.0609 23.8393 34.8215 24.0793 34.8215 24.375V24.9648C33.6006 25.2139 32.6786 26.2955 32.6786 27.5893V31.3393C32.6786 32.6325 33.6006 33.7146 34.8215 33.9637V37.0607L32.2431 40.6709C32.0738 40.9077 32.1247 41.2361 32.3577 41.4107L34.5006 43.0179C34.5938 43.088 34.7068 43.125 34.822 43.125C34.8525 43.125 34.882 43.1223 34.9125 43.1175C35.0577 43.0929 35.1863 43.0087 35.2677 42.8866L38.482 38.0652C38.5399 37.9773 38.5715 37.8734 38.5715 37.7679V35.7514L40.1786 38.9657V42.5893C40.1786 42.885 40.4181 43.125 40.7143 43.125H43.3929C43.6892 43.125 43.9286 42.885 43.9286 42.5893V38.8393C43.9286 38.7562 43.9093 38.6737 43.8724 38.5998L41.4215 33.698C42.119 33.3289 42.6413 32.6705 42.8031 31.875H44.4643C44.7606 31.875 45 31.635 45 31.3393V24.375C45 24.0793 44.7606 23.8393 44.4643 23.8393ZM36.9643 21.6964C36.9643 20.5146 37.9254 19.5536 39.1072 19.5536C40.289 19.5536 41.25 20.5146 41.25 21.6964C41.25 22.8782 40.289 23.8393 39.1072 23.8393C37.9254 23.8393 36.9643 22.8782 36.9643 21.6964ZM34.6897 41.8211L33.419 40.8675L35.7933 37.5434C35.8581 37.4529 35.8929 37.3436 35.8929 37.2321V34.0179H37.5V37.6055L34.6897 41.8211ZM42.8572 38.9657V42.0536H41.25V38.8393C41.25 38.7562 41.2308 38.6737 41.1938 38.5998L38.9025 34.0179H40.1786C40.245 34.0179 40.3077 34.0029 40.3731 33.998L42.8572 38.9657ZM40.1786 32.9464H35.3572C34.4711 32.9464 33.75 32.2254 33.75 31.3393V27.5893C33.75 26.8918 34.1995 26.3025 34.8215 26.0807V27.5893V31.3393C34.8215 31.635 35.0609 31.875 35.3572 31.875H41.6942C41.4729 32.4986 40.8772 32.9464 40.1786 32.9464ZM43.9286 30.8036H42.3215H40.1786V29.1964H39.1072V30.8036H35.8929V27.5893V24.9107H43.9286V30.8036Z" fill="white" />
			<path d="M29.4643 23.5714C29.4643 23.2827 29.393 23.0121 29.2762 22.7679H32.9464C33.9804 22.7679 34.8214 21.9268 34.8214 20.8929C34.8214 19.8589 33.9804 19.0179 32.9464 19.0179H21.4286H20.3571H18.75H16.6071H15V20.0893H16.0714V29.7321H15V30.8036H16.6071H18.75H27.5893C28.6232 30.8036 29.4643 29.9625 29.4643 28.9286C29.4643 28.4036 29.2462 27.93 28.8975 27.5893C29.2462 27.2486 29.4643 26.775 29.4643 26.25C29.4643 25.725 29.2462 25.2514 28.8975 24.9107C29.2462 24.57 29.4643 24.0964 29.4643 23.5714ZM18.2143 29.7321H17.1429V20.0893H18.2143V29.7321ZM33.75 20.8929C33.75 21.3359 33.3895 21.6964 32.9464 21.6964H27.5893H24.1071C24.1071 21.0911 23.8977 20.5382 23.5575 20.0893H32.9464C33.3895 20.0893 33.75 20.4498 33.75 20.8929ZM28.3929 26.25C28.3929 26.693 28.0323 27.0536 27.5893 27.0536H23.5714V28.125H27.5893C28.0323 28.125 28.3929 28.4855 28.3929 28.9286C28.3929 29.3716 28.0323 29.7321 27.5893 29.7321H19.2857V20.0893H20.3571H21.4286C22.3146 20.0893 23.0357 20.8104 23.0357 21.6964V24.9107C23.0357 25.3537 22.6752 25.7143 22.2321 25.7143C21.7891 25.7143 21.4286 25.3537 21.4286 24.9107V22.2321H20.3571V24.9107C20.3571 25.9446 21.1982 26.7857 22.2321 26.7857C23.0786 26.7857 23.7873 26.2184 24.0198 25.4464H27.5893C28.0323 25.4464 28.3929 25.807 28.3929 26.25ZM24.1071 24.375V22.7679H27.5893C28.0323 22.7679 28.3929 23.1284 28.3929 23.5714C28.3929 24.0145 28.0323 24.375 27.5893 24.375H24.1071Z" fill="white" />
			<path d="M31.0714 42.0536H30V43.125H31.0714V42.0536Z" fill="white" />
			<path d="M28.9286 42.0536H27.8572V43.125H28.9286V42.0536Z" fill="white" />
			<path d="M26.7857 42.0536H25.7142V43.125H26.7857V42.0536Z" fill="white" />
		</symbol>
		<symbol id="group" viewBox="0 0 60 60">
			<title>
				group
			</title>
			<circle cx="30" cy="30" r="30" fill="black" />
			<g clip-path="url(#clip0)">
				<path d="M24.3778 26.259V29.0702H35.6224V26.259C35.6212 24.2103 34.5058 22.3245 32.711 21.3367C34.1406 19.8395 34.0857 17.4669 32.5886 16.0373C31.0914 14.6078 28.7188 14.6626 27.2892 16.1597C25.9061 17.6082 25.9061 19.8881 27.2892 21.3366C25.4944 22.3245 24.379 24.2103 24.3778 26.259ZM30.0001 16.8885C31.0351 16.8885 31.8742 17.7276 31.8742 18.7626C31.8742 19.7977 31.0351 20.6367 30.0001 20.6367C28.9651 20.6367 28.126 19.7977 28.126 18.7626C28.126 17.7276 28.9651 16.8885 30.0001 16.8885ZM26.2519 26.259C26.2519 24.189 27.93 22.5108 30.0001 22.5108C32.0702 22.5108 33.7483 24.189 33.7483 26.259V27.1961H26.2519V26.259Z" fill="white" />
				<path d="M23.3404 37.2666C24.77 35.7695 24.7152 33.3969 23.218 31.9673C21.7208 30.5377 19.3482 30.5925 17.9186 32.0897C16.5355 33.5382 16.5355 35.8181 17.9186 37.2666C16.1238 38.2545 15.0084 40.1403 15.0072 42.189V45.0001H26.2518V42.189C26.2507 40.1403 25.1352 38.2544 23.3404 37.2666ZM20.6296 32.8185C21.6646 32.8185 22.5037 33.6575 22.5037 34.6926C22.5037 35.7276 21.6646 36.5667 20.6296 36.5667C19.5945 36.5667 18.7555 35.7276 18.7555 34.6926C18.7555 33.6575 19.5945 32.8185 20.6296 32.8185ZM24.3778 43.126H16.8814V42.189C16.8814 40.1189 18.5595 38.4408 20.6296 38.4408C22.6996 38.4408 24.3778 40.1189 24.3778 42.189V43.126Z" fill="white" />
				<path d="M42.0815 37.2666C43.5111 35.7695 43.4562 33.3969 41.9591 31.9673C40.4619 30.5377 38.0893 30.5925 36.6597 32.0897C35.2766 33.5382 35.2766 35.8181 36.6597 37.2666C34.8649 38.2545 33.7495 40.1403 33.7483 42.189V45.0001H44.9929V42.189C44.9917 40.1403 43.8763 38.2544 42.0815 37.2666ZM39.3706 32.8185C40.4056 32.8185 41.2447 33.6575 41.2447 34.6926C41.2447 35.7276 40.4056 36.5667 39.3706 36.5667C38.3356 36.5667 37.4965 35.7276 37.4965 34.6926C37.4965 33.6575 38.3356 32.8185 39.3706 32.8185ZM43.1188 43.126H35.6224V42.189C35.6224 40.1189 37.3005 38.4408 39.3706 38.4408C41.4407 38.4408 43.1188 40.1189 43.1188 42.189V43.126Z" fill="white" />
				<path d="M41.2447 30.0072H43.1188C43.1271 25.1114 40.4019 20.6204 36.0553 18.3672L35.1895 20.0295C38.9153 21.961 41.2514 25.8105 41.2447 30.0072Z" fill="white" />
				<path d="M24.8107 20.0295L23.9448 18.3672C19.5983 20.6203 16.873 25.1114 16.8814 30.0072H18.7555C18.7487 25.8105 21.0849 21.961 24.8107 20.0295Z" fill="white" />
				<path d="M28.2703 41.1187L27.9817 42.9712C29.3194 43.1774 30.6808 43.1774 32.0185 42.9712L31.7299 41.1187C30.5834 41.2948 29.4168 41.2948 28.2703 41.1187Z" fill="white" />
				<path d="M30.9371 30.9443H29.063V32.8184H30.9371V30.9443Z" fill="white" />
				<path d="M28.1259 34.6924H26.2518V36.5665H28.1259V34.6924Z" fill="white" />
				<path d="M33.7482 34.6924H31.8741V36.5665H33.7482V34.6924Z" fill="white" />
			</g>
			<defs>
				<clipPath id="clip0">
					<rect width="30" height="30" fill="white" transform="translate(15 15)" />
				</clipPath>
			</defs>
		</symbol>
	</defs>
</svg>
