<svg width="60" height="60" viewBox="0 0 60 60" fill="none" xmlns="http://www.w3.org/2000/svg">
<circle cx="30" cy="30" r="30" fill="black"/>
<path d="M16.875 27.125H15V29H16.875V27.125Z" fill="white"/>
<path d="M16.875 30.875H15V32.75H16.875V30.875Z" fill="white"/>
<path d="M15 20.5625V25.25H16.875V22.4375H43.125V39.3125H30V37.4375C29.9988 35.3878 28.8829 33.5011 27.0872 32.5128C28.5175 31.0149 28.4626 28.6412 26.9647 27.211C25.4668 25.7807 23.093 25.8355 21.6628 27.3334C20.279 28.7826 20.279 31.0636 21.6628 32.5128C19.8671 33.5011 18.7512 35.3878 18.75 37.4375V39.3125H16.875V34.625H15V41.1875H45V20.5625H15ZM24.375 28.0625C25.4105 28.0625 26.25 28.902 26.25 29.9375C26.25 30.973 25.4105 31.8125 24.375 31.8125C23.3395 31.8125 22.5 30.973 22.5 29.9375C22.5 28.902 23.3395 28.0625 24.375 28.0625ZM28.125 39.3125H20.625V37.4375C20.625 35.3664 22.3039 33.6875 24.375 33.6875C26.4461 33.6875 28.125 35.3664 28.125 37.4375V39.3125Z" fill="white"/>
<path d="M41.25 28.0625H31.875V29.9375H41.25V28.0625Z" fill="white"/>
<path d="M37.5 31.8125H31.875V33.6875H37.5V31.8125Z" fill="white"/>
<path d="M41.25 31.8125H39.375V33.6875H41.25V31.8125Z" fill="white"/>
<path d="M41.25 16.8125H18.75V18.6875H41.25V16.8125Z" fill="white"/>
</svg>
