<svg width="30" height="30" viewBox="0 0 30 30" fill="none" xmlns="http://www.w3.org/2000/svg">
<rect width="30" height="30" fill="#FF662D"/>
<path d="M18.6689 7H11.331C8.94287 7 7 8.94287 7 11.331V18.669C7 21.0571 8.94287 23 11.331 23H18.669C21.0571 23 23 21.0571 23 18.669V11.331C23 8.94287 21.0571 7 18.6689 7ZM15 19.3749C12.5876 19.3749 10.6251 17.4123 10.6251 15C10.6251 12.5876 12.5876 10.6251 15 10.6251C17.4123 10.6251 19.3749 12.5876 19.3749 15C19.3749 17.4123 17.4123 19.3749 15 19.3749ZM19.4795 11.6569C18.7666 11.6569 18.1867 11.077 18.1867 10.3641C18.1867 9.65124 18.7666 9.07129 19.4795 9.07129C20.1924 9.07129 20.7723 9.65124 20.7723 10.3641C20.7723 11.077 20.1924 11.6569 19.4795 11.6569Z" fill="white"/>
<path d="M15 12.3335C13.5297 12.3335 12.3334 13.5297 12.3334 15.0002C12.3334 16.4705 13.5297 17.6668 15 17.6668C16.4705 17.6668 17.6667 16.4705 17.6667 15.0002C17.6667 13.5297 16.4705 12.3335 15 12.3335Z" fill="white"/>
</svg>
