<svg width="66" height="44" viewBox="0 0 66 44" fill="none" xmlns="http://www.w3.org/2000/svg">
<g filter="url(#filter0_b)">
<path d="M65.5138 0.40332H0.369629V43.5215H65.5138V0.40332Z" fill="white" fill-opacity="0.4"/>
<path d="M18.5781 30.4398L20.0381 28.8894C20.9766 30.1491 22.228 30.8274 23.6879 30.8274C25.6693 30.8274 26.7121 29.6646 26.7121 27.5329V18.4245H20.3509V16.3896H29.1105V27.436C29.1105 31.0212 27.2335 32.8622 23.5836 32.8622C21.6023 32.7653 19.7252 31.9901 18.5781 30.4398Z" fill="white"/>
<path d="M32.656 30.7308L33.5945 28.8898C34.8459 29.9556 37.1401 30.7308 39.33 30.7308C42.3541 30.7308 43.6055 29.665 43.6055 28.2115C43.6055 24.2386 32.9688 26.758 32.9688 20.7503C32.9688 18.2309 35.0545 16.0991 39.6428 16.0991C41.7285 16.0991 43.8141 16.5836 45.274 17.5526L44.4398 19.3937C42.8755 18.5216 41.2071 18.0371 39.6428 18.0371C36.6187 18.0371 35.3673 19.1999 35.3673 20.6534C35.3673 24.6262 46.004 22.1068 46.004 28.1146C46.004 30.6339 43.8141 32.7657 39.2257 32.7657C36.6187 32.7657 34.0117 31.9905 32.656 30.7308Z" fill="white"/>
<path d="M65.9999 6.83675C65.9999 6.94946 51.2939 7.06216 33.1848 7.06216C15.0757 7.06216 0.369629 6.94946 0.369629 6.83675C0.369629 6.72405 15.0757 6.61133 33.1848 6.61133C51.2939 6.61133 65.9999 6.72405 65.9999 6.83675Z" fill="white"/>
<path d="M5.71736 3.67634C5.71736 4.01503 5.35272 4.35372 4.86655 4.35372C4.38039 4.35372 4.01575 4.01503 4.01575 3.67634C4.01575 3.33764 4.38039 2.99893 4.86655 2.99893C5.35272 2.88603 5.71736 3.22474 5.71736 3.67634Z" fill="white"/>
<path d="M8.8773 3.67612C8.8773 4.0149 8.51271 4.35368 8.02656 4.35368C7.54041 4.35368 7.17578 4.0149 7.17578 3.67612C7.17578 3.33733 7.54041 2.99854 8.02656 2.99854C8.51271 2.99854 8.8773 3.2244 8.8773 3.67612Z" fill="white"/>
<path d="M12.1587 3.67649C12.1587 4.01526 11.7941 4.35402 11.308 4.35402C10.8218 4.35402 10.4573 4.01526 10.4573 3.67649C10.4573 3.33771 10.8218 2.99894 11.308 2.99894C11.6726 2.88601 12.1587 3.22479 12.1587 3.67649Z" fill="white"/>
</g>
<defs>
<filter id="filter0_b" x="-3.63037" y="-3.59668" width="73.6303" height="51.1182" filterUnits="userSpaceOnUse" color-interpolation-filters="sRGB">
<feFlood flood-opacity="0" result="BackgroundImageFix"/>
<feGaussianBlur in="BackgroundImage" stdDeviation="2"/>
<feComposite in2="SourceAlpha" operator="in" result="effect1_backgroundBlur"/>
<feBlend mode="normal" in="SourceGraphic" in2="effect1_backgroundBlur" result="shape"/>
</filter>
</defs>
</svg>
