<svg width="60" height="60" viewBox="0 0 60 60" fill="none" xmlns="http://www.w3.org/2000/svg">
<circle cx="30" cy="30" r="30" fill="black"/>
<path d="M43.0302 25.3828C43.0659 25.2236 43.0851 25.0606 43.0851 24.8936V21.0638C43.0851 17.7471 35.85 15.9574 29.0425 15.9574C22.235 15.9574 15 17.7471 15 21.0638C15 21.2069 15.0144 21.3469 15.0407 21.4842C15.0158 21.5525 15 21.6253 15 21.7021V24.8936C15 25.9546 15.7413 26.8591 16.9713 27.599C16.9345 27.7598 16.9149 27.9222 16.9149 28.085C16.9149 28.2281 16.9293 28.3681 16.9556 28.5055C16.9306 28.5738 16.9149 28.6465 16.9149 28.7234V31.9149C16.9149 32.2079 16.9725 32.4888 17.0801 32.7578C15.9023 33.6306 15.6383 34.5043 15.6383 35.1064C15.6383 35.2495 15.6527 35.3895 15.679 35.5268C15.654 35.5951 15.6383 35.6678 15.6383 35.7447V38.9362C15.6383 42.2529 22.8734 44.0426 29.6809 44.0426C36.4884 44.0426 43.7235 42.2529 43.7235 38.9362V35.1064C43.7235 34.823 43.6668 34.5432 43.557 34.27C44.4675 33.6006 45 32.814 45 31.9149V28.0851V28.085C45 27.3822 44.6477 26.361 43.0302 25.3828ZM19.7662 18.5099C22.2345 17.6872 25.5289 17.2341 29.0425 17.2341C32.5561 17.2341 35.8505 17.6872 38.3188 18.5099C40.504 19.2383 41.8085 20.1931 41.8085 21.0638C41.8085 21.9346 40.504 22.8893 38.3188 23.6177C35.8504 24.4404 32.5561 24.8936 29.0425 24.8936C25.5289 24.8936 22.2344 24.4404 19.7662 23.6177C17.5811 22.8893 16.2766 21.9346 16.2766 21.0638C16.2766 20.1931 17.5811 19.2383 19.7662 18.5099ZM41.8085 23.292V24.8936C41.8085 25.6313 40.8697 26.4286 39.2554 27.0981V24.6391C40.2842 24.2583 41.1571 23.8085 41.8085 23.292ZM37.9787 25.0546V27.5554C37.1972 27.7981 36.3404 28.0054 35.4255 28.175V25.6344C36.3251 25.4756 37.1834 25.2821 37.9787 25.0546ZM34.149 25.8331V28.3827C33.3301 28.4974 32.4758 28.5844 31.5958 28.6415V26.0871C32.4607 26.0308 33.3169 25.9459 34.149 25.8331ZM30.3192 26.1494V28.703C29.8976 28.7164 29.4718 28.7234 29.0426 28.7234C28.6134 28.7234 28.1875 28.7164 27.766 28.703V26.1493C28.192 26.1632 28.6181 26.1701 29.0426 26.1701C29.467 26.1702 29.8932 26.1632 30.3192 26.1494ZM26.4894 26.0871V28.6416C25.6093 28.5844 24.755 28.4975 23.9361 28.3828V25.8332C24.7682 25.9459 25.6244 26.0308 26.4894 26.0871ZM22.6596 25.6344V28.175C21.7447 28.0054 20.8879 27.7982 20.1064 27.5555V25.0546C20.9017 25.2821 21.7601 25.4757 22.6596 25.6344ZM16.2766 24.8936V23.292C16.928 23.8085 17.8009 24.2583 18.8297 24.6391V27.0981C17.2154 26.4286 16.2766 25.6313 16.2766 24.8936ZM18.1915 30.3131C18.8429 30.8297 19.7158 31.2795 20.7446 31.6603V34.1193C19.1303 33.4498 18.1915 32.6525 18.1915 31.9148V30.3131ZM19.4681 41.1407C17.8537 40.4712 16.9149 39.6738 16.9149 38.9362V37.3345C17.5663 37.8511 18.4392 38.3009 19.4681 38.6817V41.1407ZM23.2979 42.2176C22.383 42.0479 21.5262 41.8407 20.7447 41.5981V39.0972C21.5401 39.3246 22.3984 39.5182 23.2979 39.677V42.2176ZM27.1277 42.6841C26.2477 42.6269 25.3933 42.5399 24.5745 42.4253V39.8757C25.4065 39.9884 26.2627 40.0733 27.1277 40.1297V42.6841ZM30.9574 42.7456C30.5358 42.759 30.11 42.7659 29.6808 42.7659C29.2516 42.7659 28.8258 42.759 28.4043 42.7456V40.192C28.8302 40.2058 29.2563 40.2128 29.6808 40.2128C30.1054 40.2128 30.5314 40.2058 30.9574 40.192V42.7456ZM34.7872 42.4253C33.9684 42.54 33.1141 42.627 32.2341 42.6841V40.1297C33.099 40.0734 33.9553 39.9885 34.7872 39.8757V42.4253ZM38.617 41.598C37.8355 41.8407 36.9788 42.0479 36.0639 42.2176V39.6769C36.9634 39.5182 37.8217 39.3246 38.617 39.0972V41.598ZM42.4468 38.9362C42.4468 39.6738 41.508 40.4712 39.8937 41.1407V38.6817C40.9226 38.3009 41.7954 37.8511 42.4468 37.3345V38.9362ZM38.9572 37.6603C36.4888 38.483 33.1945 38.9361 29.6809 38.9361C26.1673 38.9361 22.8728 38.483 20.4046 37.6603C18.2194 36.9319 16.915 35.9772 16.915 35.1064C16.915 34.6068 17.3476 34.1499 17.8078 33.8051C19.9455 35.906 25.5843 37.0213 30.9575 37.0213C35.2545 37.0213 39.721 36.308 42.4315 34.9479C42.441 35.0009 42.4469 35.0537 42.4469 35.1064C42.4468 35.9772 41.1423 36.9319 38.9572 37.6603ZM22.0213 34.5768V32.0758C22.8166 32.3033 23.675 32.4969 24.5745 32.6556V35.1963C23.6596 35.0267 22.8028 34.8195 22.0213 34.5768ZM25.8511 35.404V32.8543C26.6831 32.9671 27.5394 33.052 28.4043 33.1083V35.6629C27.5242 35.6057 26.6699 35.5187 25.8511 35.404ZM29.6808 35.7243V33.1706C30.1068 33.1844 30.5329 33.1914 30.9574 33.1914C31.3819 33.1914 31.808 33.1844 32.234 33.1706V35.7243C31.8124 35.7377 31.3866 35.7447 30.9574 35.7447C30.5282 35.7447 30.1024 35.7377 29.6808 35.7243ZM33.5106 35.6628V33.1083C34.3756 33.052 35.2318 32.9671 36.0638 32.8543V35.404C35.245 35.5187 34.3907 35.6057 33.5106 35.6628ZM37.3405 35.1963V32.6556C38.24 32.4969 39.0983 32.3033 39.8936 32.0758V34.5768C39.1121 34.8195 38.2553 35.0267 37.3405 35.1963ZM43.7234 31.9149C43.7234 32.6525 42.7846 33.4499 41.1703 34.1194V31.6603C42.1992 31.2795 43.072 30.8298 43.7234 30.3132V31.9149ZM40.2338 30.6389C37.7655 31.4617 34.4711 31.9148 30.9575 31.9148C27.4439 31.9148 24.1494 31.4617 21.6812 30.6389C19.6086 29.9481 18.3305 29.0537 18.2041 28.2203C20.945 29.3892 25.0663 30 29.0426 30C34.6383 30 40.5219 28.7905 42.4395 26.5179C43.2705 27.034 43.7234 27.583 43.7234 28.085C43.7234 28.9558 42.4189 29.9105 40.2338 30.6389Z" fill="white"/>
</svg>
