<svg width="60" height="60" viewBox="0 0 60 60" fill="none" xmlns="http://www.w3.org/2000/svg">
<circle cx="30" cy="30" r="30" fill="black"/>
<path d="M37.6766 36.781L34.895 39.9601V45.0001H36.77V40.6651L39.0875 38.0157C41.0372 35.7859 42.3774 33.0899 42.9781 30.1895L41.1416 29.8145C40.606 32.3963 39.4124 34.7961 37.6766 36.781Z" fill="white"/>
<path d="M21.77 34.6874H19.3729L21.77 28.2956V26.7187C21.7693 25.0275 22.2042 23.3647 23.0329 21.8906L21.3997 20.969C20.4129 22.7246 19.8947 24.7047 19.895 26.7187V27.9543L16.6672 36.5624H19.895V41.2499H24.5826V44.9999H26.4576V39.3749H21.77V34.6874Z" fill="white"/>
<path d="M25.1938 19.2562L23.975 17.835C23.4586 18.2782 22.9815 18.7653 22.5491 19.2909L23.9994 20.4796C24.3614 20.0381 24.761 19.6287 25.1938 19.2562Z" fill="white"/>
<path d="M26.4575 15V28.125H29.27V32.6887L36.1138 28.125H43.3325V15H26.4575ZM41.4575 26.25H35.5513L31.145 29.1862V26.25H28.3325V16.875H41.4575V26.25Z" fill="white"/>
<path d="M39.5825 18.75H30.2075V20.625H39.5825V18.75Z" fill="white"/>
<path d="M39.5825 22.5H37.7075V24.375H39.5825V22.5Z" fill="white"/>
<path d="M35.8325 22.5H30.2075V24.375H35.8325V22.5Z" fill="white"/>
</svg>
