<svg width="80" height="80" viewBox="0 0 80 80" fill="none" xmlns="http://www.w3.org/2000/svg">
<circle cx="39.7274" cy="39.7274" r="23.369" fill="#FF662D"/>
<path d="M46.7382 39.7273L36.2221 45.7988L36.2221 33.6559L46.7382 39.7273Z" fill="white"/>
<g clip-path="url(#clip0)">
<path d="M0.803122 32.0376L5.68453 32.781L5.57832 33.4784L3.63677 33.2001C3.74153 33.712 3.77105 34.2038 3.72533 34.6754C3.63928 35.2975 3.44307 35.7288 3.06146 35.9491C2.67984 36.1694 2.31839 36.3145 1.77153 36.2486L0.226357 35.9959L0.332566 35.2986L1.8025 35.5311C2.17871 35.6319 2.44476 35.5419 2.65573 35.3565C2.8667 35.1711 3.02258 34.8903 3.04815 34.4939C3.09387 34.0223 3.04419 33.6058 2.93943 33.0939L0.621672 32.7148L0.803122 32.0376Z" fill="white"/>
<path d="M2.87686 26.7062L2.35807 28.3413L6.45608 29.6007L6.27463 30.2779L2.17662 29.0185L1.67799 30.5785L1.07605 30.4172L2.27492 26.5449L2.87686 26.7062Z" fill="white"/>
<path d="M7.43852 26.2349C7.03675 26.5305 6.67529 26.6756 6.25876 26.7253C5.84222 26.775 5.39077 26.654 4.95948 26.4578C4.52818 26.2616 4.19229 26.0103 3.97197 25.6287C3.75164 25.247 3.60656 24.8856 3.57704 24.3938C3.54752 23.902 3.64833 23.5258 3.8647 23.0193C3.98567 22.5678 4.23696 22.2319 4.63873 21.9364C5.04051 21.6408 5.40196 21.4957 5.8185 21.4461C6.23503 21.3964 6.68649 21.5173 7.11778 21.7135C7.54907 21.9098 7.88496 22.161 8.18053 22.5628C8.40086 22.9444 8.52578 23.3811 8.57546 23.7977C8.60498 24.2894 8.50417 24.6657 8.2878 25.1722C8.09159 25.6035 7.8403 25.9394 7.43852 26.2349ZM7.91303 23.8621C7.91844 23.541 7.75319 23.2548 7.58795 22.9686C7.42271 22.6823 7.16206 22.4512 6.78585 22.3504C6.50504 22.1945 6.10866 22.169 5.78753 22.1636C5.4664 22.1582 5.18019 22.3234 4.89398 22.4886C4.60777 22.6539 4.45188 22.9347 4.27583 23.2907C4.09978 23.6468 4.09438 23.9679 4.08898 24.2891C4.08358 24.6102 4.24882 24.8964 4.41407 25.1826C4.57931 25.4688 4.83996 25.6999 5.21617 25.8008C5.49698 25.9566 5.89335 25.9822 6.21448 25.9876C6.53561 25.993 6.82183 25.8278 7.10804 25.6625C7.39425 25.4973 7.55013 25.2165 7.72618 24.8604C7.88207 24.5796 7.98288 24.2034 7.91303 23.8621Z" fill="white"/>
<path d="M7.25391 16.992L9.57061 14.0644L10.0368 14.4312L8.18238 16.8375L9.32038 17.707L10.2852 16.5139C10.6521 16.0477 11.0538 15.7521 11.3951 15.6823C11.7364 15.6124 12.1126 15.7133 12.5238 15.9847C12.9349 16.2562 13.08 16.6176 13.1297 17.0341C13.1041 17.4305 12.9831 17.882 12.5961 18.4234L11.3397 20.1029L7.25391 16.992ZM11.9794 18.0162C12.2307 17.6804 12.3866 17.3996 12.3718 17.1537C12.3571 16.9078 12.2671 16.6417 12.0615 16.506C11.5953 16.1391 11.0834 16.2439 10.5808 16.9157L9.73151 17.9784L11.1301 19.079L11.9794 18.0162Z" fill="white"/>
<path d="M13.8008 9.71397L15.0299 14.1562C15.0997 14.4975 15.1696 14.8388 15.1091 15.0645C15.0285 15.3655 14.8927 15.571 14.757 15.7766C14.6414 15.9069 14.4506 16.0171 14.1846 16.1071L13.9293 15.5548C14.1201 15.4447 14.2155 15.3896 14.3311 15.2592C14.5421 15.0738 14.6227 14.7729 14.573 14.3563L14.5381 14.1857L10.4199 13.0016L10.9574 12.5004L14.2829 13.6334L13.2432 10.2903L13.8008 9.71397Z" fill="white"/>
<path d="M21.2675 9.53725L22.2643 10.9334L21.7671 11.284L21.1209 10.3851L17.8315 12.7295L18.4777 13.6284L17.9805 13.9791L16.9836 12.5829L17.1745 12.4728C17.3854 12.2874 17.4661 11.9864 17.2659 11.5295C17.0657 11.0727 16.7352 10.5003 16.2744 9.81227L15.4079 8.5317L18.2002 6.53797L20.7299 10.0384L21.2675 9.53725ZM17.6529 10.9881C17.8531 11.4449 17.9431 11.711 17.8624 12.012L20.0823 10.3487L17.9031 7.34548L16.2006 8.58283L16.7716 9.46162C17.1773 10.0542 17.4528 10.5312 17.6529 10.9881Z" fill="white"/>
<path d="M25.48 7.35957L25.7353 7.91183L22.552 9.55887L20.3394 5.1757L23.4273 3.58374L23.6825 4.136L21.2423 5.41764L21.9382 6.73313L24.0922 5.61674L24.3474 6.169L22.1935 7.28539L22.9444 8.69628L25.48 7.35957Z" fill="white"/>
<path d="M28.6071 2.31043L27.0108 2.85044L28.436 6.86135L27.8085 7.09644L26.3833 3.08553L24.787 3.62553L24.607 3.09343L28.4472 1.70309L28.6071 2.31043Z" fill="white"/>
<path d="M36.5227 0.157237L37.2344 5.02533L36.5519 5.16501L36.2484 2.98693L33.4079 3.35485L33.7114 5.53293L33.0288 5.67261L32.3171 0.804511L32.9996 0.664829L33.3233 2.76767L36.0885 2.37959L35.7649 0.276758L36.5227 0.157237Z" fill="white"/>
<path d="M42.0179 3.72642L39.3736 3.66304L38.8052 4.88168L38.0876 4.85071L40.4368 -0.00368466L41.1543 0.0272779L43.301 4.95731L42.5835 4.92634L42.0179 3.72642ZM41.7627 3.17416L40.7269 0.71922L39.6101 3.08126L41.7627 3.17416Z" fill="white"/>
<path d="M50.625 6.51661L51.4772 3.0353L49.0355 5.52621L48.7346 5.44556L47.7701 2.12264L46.918 5.60396L46.2408 5.4225L47.4357 0.662069L47.9624 0.803197L49.1068 4.65822L51.8951 1.77634L52.4218 1.91747L51.2269 6.6779L50.625 6.51661Z" fill="white"/>
<path d="M56.2387 7.53689L53.8565 6.49536L52.8971 7.3673L52.2602 7.03536L56.2686 3.51267L56.9257 3.76936L56.854 9.15335L56.2171 8.82141L56.2387 7.53689ZM56.2495 6.89463L56.3129 4.25034L54.394 5.99422L56.2495 6.89463Z" fill="white"/>
<path d="M62.9422 7.80084C63.0671 8.23754 63.0214 8.70916 62.7499 9.12029C62.4583 9.60666 62.0767 9.82699 61.5849 9.8565C61.0931 9.88602 60.6417 9.76505 60.08 9.45328L59.0522 8.77465L58.2379 10.0081L57.6212 9.60087L60.3357 5.48954L61.905 6.55519C62.4464 6.94221 62.8172 7.36414 62.9422 7.80084ZM61.425 9.24916C61.7462 9.25456 61.9572 9.06916 62.2084 8.73327C62.4597 8.39738 62.445 8.15149 62.355 7.88544C62.265 7.61939 62.0245 7.31302 61.6886 7.06173L60.6608 6.3831L59.4392 8.2332L60.4671 8.91183C60.803 9.16312 61.1039 9.24376 61.425 9.24916Z" fill="white"/>
<path d="M64.8671 13.5585L62.9122 11.8251L61.7123 12.3906L61.191 11.9284L66.0659 9.68626L66.5872 10.1485L65.0456 15.2999L64.5243 14.8377L64.8671 13.5585ZM65.0284 12.9566L65.7891 10.4185L63.4645 11.5698L65.0284 12.9566Z" fill="white"/>
<path d="M69.2913 19.0181C68.7646 18.877 68.1277 18.545 67.6467 17.9323L67.245 18.2279L66.8191 17.7105L67.2208 17.415C66.76 16.727 66.4295 16.1546 66.5156 15.5325C66.5062 14.9654 66.7226 14.4589 67.2399 14.033C67.7573 13.6071 68.2692 13.5024 68.8913 13.5884C69.4933 13.7497 70.0549 14.0615 70.6111 14.6944L71.0129 14.3988L71.4388 14.9161L71.037 15.2117C71.4978 15.8997 71.753 16.452 71.7422 17.0942C71.7516 17.6612 71.46 18.1476 71.0179 18.5937C70.4253 18.9994 69.9134 19.1042 69.2913 19.0181ZM69.3021 18.3758C69.6783 18.4767 70.115 18.3517 70.5167 18.0562C70.9185 17.7606 71.0946 17.4045 71.0449 16.988C70.9952 16.5715 70.8703 16.1348 70.5398 15.5624L68.0687 17.5615C68.5147 18.0036 68.9259 18.275 69.3021 18.3758ZM67.1377 15.6185C67.092 16.0901 67.2921 16.547 67.6428 17.0442L70.1139 15.045C69.6679 14.6029 69.2567 14.3315 68.8805 14.2307C68.5043 14.1299 68.0676 14.2548 67.6658 14.5503C67.2641 14.8459 67.088 15.202 67.1377 15.6185Z" fill="white"/>
<path d="M70.2463 21.774C70.2168 21.2822 70.3176 20.906 70.5891 20.4949C70.8605 20.0838 71.0917 19.8231 71.5687 19.5477C72.0457 19.2723 72.387 19.2025 72.8586 19.2482C73.3302 19.2939 73.7064 19.3947 74.1176 19.6662C74.5287 19.9376 74.8444 20.2641 75.0648 20.6458C75.2649 21.1026 75.3899 21.5393 75.4395 21.9558C75.4691 22.4476 75.3682 22.8238 75.0968 23.235C74.8455 23.5709 74.5942 23.9067 74.1172 24.1822C73.7356 24.4025 73.2989 24.5274 72.8273 24.4817C72.3556 24.436 71.9794 24.3352 71.5683 24.0637C71.1572 23.7922 70.9167 23.4859 70.6211 23.0841C70.4209 22.6272 70.296 22.1905 70.2463 21.774ZM71.8801 23.5021C72.1609 23.658 72.4619 23.7386 72.783 23.744C73.1041 23.7494 73.4454 23.6796 73.7316 23.5143C74.0178 23.3491 74.3242 23.1086 74.4801 22.8278C74.636 22.547 74.7166 22.246 74.722 21.9249C74.7274 21.6037 74.6576 21.2625 74.4923 20.9762C74.3271 20.69 74.0866 20.3837 73.8058 20.2278C73.525 20.0719 73.224 19.9912 72.9029 19.9858C72.5818 19.9804 72.2405 20.0503 71.9543 20.2155C71.668 20.3808 71.3617 20.6213 71.2058 20.9021C71.0499 21.1829 70.9693 21.4838 70.9638 21.805C70.9584 22.1261 71.0283 22.4674 71.1935 22.7536C71.3386 23.1151 71.5993 23.3462 71.8801 23.5021Z" fill="white"/>
<path d="M78.442 28.8087L73.8035 30.4691L73.5685 29.8416L75.6216 29.1014L74.7216 26.4409L72.6684 27.1811L72.4334 26.5536L77.0718 24.8932L77.3069 25.5207L75.3491 26.2058L76.2491 28.8663L78.2069 28.1812L78.442 28.8087Z" fill="white"/>
<path d="M75.4586 35.4286L74.8714 35.5132L74.1932 32.025L79.0264 31.1427L79.6495 34.5354L79.0623 34.62L78.5789 31.9099L77.1384 32.1691L77.6273 34.5581L77.0401 34.6427L76.4559 32.3087L74.92 32.623L75.4586 35.4286Z" fill="white"/>
<path d="M77.0653 38.7624C77.1808 38.632 77.3515 38.5971 77.5221 38.5622C77.6928 38.5273 77.8231 38.6428 77.9534 38.7584C78.0837 38.874 78.1187 39.0446 78.1536 39.2153C78.1885 39.3859 78.0729 39.5162 77.9574 39.6465C77.8418 39.7769 77.6712 39.8118 77.5005 39.8467C77.3299 39.8816 77.1995 39.7661 77.0692 39.6505C76.9389 39.5349 76.904 39.3643 76.8691 39.1937C76.9094 39.0432 76.9497 38.8927 77.0653 38.7624Z" fill="white"/>
<path d="M79.2573 47.7368L74.3759 46.9933L74.4821 46.296L76.4237 46.5743C76.3189 46.0623 76.2894 45.5705 76.3351 45.0989C76.4211 44.4768 76.6174 44.0455 76.999 43.8252C77.3255 43.5095 77.742 43.4598 78.2889 43.5257L79.8341 43.7784L79.7279 44.4758L78.2579 44.2432C77.8616 44.2176 77.6157 44.2324 77.4047 44.4178C77.1937 44.6032 77.0378 44.884 77.0123 45.2804C76.9666 45.752 77.0162 46.1685 77.121 46.6805L79.4388 47.0596L79.2573 47.7368Z" fill="white"/>
<path d="M77.1836 53.0682L77.7024 51.433L73.5842 50.2489L73.7656 49.5717L77.8838 50.7558L78.4026 49.1207L79.0045 49.2819L77.8809 53.1744L77.1836 53.0682Z" fill="white"/>
<path d="M72.6219 53.5394C73.0237 53.2438 73.3851 53.0988 73.8017 53.0491C74.2182 52.9994 74.6898 53.0451 75.1211 53.2413C75.5524 53.4376 75.8883 53.6888 76.1086 54.0705C76.329 54.4521 76.474 54.8135 76.5036 55.3053C76.5532 55.7218 76.4323 56.1733 76.2159 56.6798C76.0197 57.1111 75.7482 57.5223 75.3666 57.7426C74.9648 58.0382 74.6034 58.1832 74.1869 58.2329C73.7703 58.2826 73.2987 58.2369 72.8876 57.9654C72.4563 57.7692 72.1204 57.5179 71.8248 57.1161C71.6045 56.7345 71.4594 56.3731 71.4299 55.8813C71.3802 55.4648 71.5012 55.0133 71.7176 54.5068C71.9688 54.1709 72.2954 53.8551 72.6219 53.5394ZM72.1474 55.9123C72.142 56.2334 72.3072 56.5196 72.4725 56.8058C72.6377 57.092 72.9185 57.2479 73.2746 57.424C73.6306 57.6 73.9518 57.6054 74.2729 57.6108C74.594 57.6162 74.8802 57.451 75.1665 57.2857C75.4527 57.1205 75.6086 56.8397 75.7846 56.4836C75.9606 56.1276 75.9661 55.8064 75.9715 55.4853C75.9769 55.1642 75.8116 54.878 75.6464 54.5918C75.4811 54.3055 75.2003 54.1497 74.8443 53.9736C74.4882 53.7976 74.1671 53.7922 73.846 53.7868C73.5248 53.7813 73.2386 53.9466 72.9524 54.1118C72.6662 54.2771 72.5103 54.5579 72.3343 54.9139C72.1582 55.27 72.1528 55.5911 72.1474 55.9123Z" fill="white"/>
<path d="M72.8817 62.8026L70.6403 65.7503L70.1741 65.3835L72.0285 62.9772L70.8905 62.1077L70.0009 63.321C69.6341 63.7872 69.3075 64.1029 68.891 64.1526C68.5497 64.2224 68.1533 64.1969 67.7623 63.8502C67.3512 63.5787 67.2061 63.2173 67.1565 62.8007C67.182 62.4044 67.303 61.9529 67.69 61.4114L68.9465 59.732L72.8817 62.8026ZM68.1361 61.8535C67.8848 62.1894 67.7289 62.4702 67.7436 62.7161C67.7584 62.962 67.8484 63.2281 68.1292 63.384C68.5954 63.7508 69.1275 63.5708 69.6099 62.9743L70.4592 61.9115L69.0606 60.811L68.1361 61.8535Z" fill="white"/>
<path d="M66.4102 70.1007L65.0858 65.7135C65.0159 65.3722 64.9461 65.031 65.0066 64.8052C65.067 64.5795 65.2229 64.2987 65.3587 64.0931C65.4742 63.9628 65.665 63.8526 65.9311 63.7626L66.2065 64.2397C66.0157 64.3498 65.9203 64.4049 65.8047 64.5352C65.5937 64.7206 65.5131 65.0216 65.5628 65.4381L65.5977 65.6088L69.6205 66.848L69.083 67.3491L65.7575 66.2161L66.7972 69.5592L66.4102 70.1007Z" fill="white"/>
<path d="M58.9233 70.3526L57.9264 68.9565L58.4438 68.5306L59.09 69.4296L62.3794 67.0852L61.7332 66.1862L62.2506 65.7603L63.2474 67.1565L63.0365 67.3419C62.8255 67.5273 62.7449 67.8282 62.945 68.2851C63.1452 68.742 63.4757 69.3144 63.9365 70.0024L64.803 71.2829L62.0108 73.2767L59.481 69.7762L58.9233 70.3526ZM62.5378 68.9018C62.3377 68.4449 62.2477 68.1789 62.3283 67.8779L60.0332 69.521L62.2124 72.5242L63.935 71.2116L63.3641 70.3328C63.0134 69.8357 62.7582 69.2834 62.5378 68.9018Z" fill="white"/>
<path d="M54.7108 72.5304L54.4556 71.9781L57.6388 70.3311L59.9469 74.6591L56.859 76.2511L56.6038 75.6988L59.0439 74.4172L58.348 73.1017L56.1941 74.2181L55.9388 73.6658L58.0928 72.5495L57.3418 71.1386L54.7108 72.5304Z" fill="white"/>
<path d="M51.6388 77.6749L53.2351 77.1349L51.7346 73.1038L52.3621 72.8687L53.8626 76.8998L55.4589 76.3598L55.6591 76.8167L51.8941 78.2272L51.6388 77.6749Z" fill="white"/>
<path d="M43.7232 79.8281L43.0115 74.96L43.6941 74.8203L43.9976 76.9984L46.8381 76.6305L46.5346 74.4524L47.2172 74.3127L47.9289 79.1808L47.2463 79.3205L46.9227 77.2176L44.1373 77.681L44.4609 79.7838L43.7232 79.8281Z" fill="white"/>
<path d="M38.228 76.2589L40.797 76.3021L41.3655 75.0834L42.083 75.1144L39.8091 79.989L39.0916 79.958L36.9449 75.028L37.6624 75.0589L38.228 76.2589ZM38.408 76.791L39.4437 79.2459L40.5605 76.8839L38.408 76.791Z" fill="white"/>
<path d="M29.5253 73.5238L28.6731 77.0051L31.1147 74.5142L31.4157 74.5948L32.3802 77.9178L33.2323 74.4364L33.9095 74.6179L32.7146 79.3783L32.1879 79.2372L31.0435 75.3822L28.2551 78.2641L27.7284 78.1229L28.9234 73.3625L29.5253 73.5238Z" fill="white"/>
<path d="M23.9667 72.5989L26.3489 73.6405L27.3084 72.7685L27.9654 73.0252L23.9368 76.6231L23.2798 76.3665L23.2762 70.9623L23.9333 71.219L23.9667 72.5989ZM23.9761 73.1659L23.9879 75.8304L25.9068 74.0865L23.9761 73.1659Z" fill="white"/>
<path d="M17.2633 72.335C17.1384 71.8983 17.1842 71.4266 17.4556 71.0155C17.7472 70.5291 18.1288 70.3088 18.6206 70.2793C19.1124 70.2498 19.5638 70.3707 20.1255 70.6825L21.1533 71.3611L21.9676 70.1277L22.5843 70.5349L19.9451 74.6664L18.3556 73.676C17.6838 73.1734 17.3883 72.7716 17.2633 72.335ZM18.7804 70.8866C18.4593 70.8812 18.2483 71.0666 18.0723 71.4227C17.9164 71.7035 17.8358 72.0045 17.9258 72.2705C18.0158 72.5366 18.2563 72.8429 18.6123 73.019L19.6401 73.6976L20.8617 71.8475L19.7586 71.1487C19.4025 70.9727 19.0465 70.7966 18.7804 70.8866Z" fill="white"/>
<path d="M15.3182 66.6525L17.2731 68.386L18.473 67.8204L18.9943 68.2827L14.1395 70.4496L13.6182 69.9873L15.1598 64.8359L15.7564 65.3183L15.3182 66.6525ZM15.1019 67.159L14.3411 69.6971L16.741 68.566L15.1019 67.159Z" fill="white"/>
<path d="M10.8188 61.1728C11.3455 61.3139 11.9824 61.6458 12.5386 62.2787L12.9404 61.9832L13.3663 62.5005L12.9645 62.7961C13.4253 63.4841 13.7558 64.0565 13.745 64.6987C13.7543 65.2658 13.538 65.7723 13.0206 66.1982C12.5033 66.6241 11.9913 66.7288 11.3692 66.6428C10.7673 66.4815 10.2057 66.1697 9.64947 65.5368L9.24769 65.8324L8.8218 65.315L9.22358 65.0195C8.7426 64.4067 8.43228 63.7591 8.44308 63.1168C8.45389 62.4745 8.65009 62.0433 9.16744 61.6174C9.68478 61.1915 10.272 61.1069 10.8188 61.1728ZM13.0678 64.5173C13.0934 64.1209 12.8932 63.6641 12.5425 63.1669L10.0714 65.166C10.5175 65.6081 10.9286 65.8796 11.3048 65.9804C11.681 66.0812 12.1177 65.9562 12.5195 65.6607C12.846 65.3449 13.0422 64.9137 13.0678 64.5173ZM10.808 61.815C10.4318 61.7142 9.9951 61.8391 9.59333 62.1347C9.19155 62.4303 9.0155 62.7863 9.06518 63.2029C9.03962 63.5992 9.23978 64.0561 9.59043 64.5533L12.0616 62.5541C11.6706 62.2074 11.2595 61.936 10.808 61.815Z" fill="white"/>
<path d="M9.86372 58.4168C9.89324 58.9086 9.79244 59.2848 9.52098 59.696C9.24953 60.1071 9.0184 60.3678 8.54138 60.6432C8.15977 60.8635 7.72307 60.9884 7.25146 60.9427C6.77984 60.897 6.40363 60.7961 5.99249 60.5247C5.58136 60.2532 5.26563 59.9267 5.04531 59.5451C4.84514 59.0882 4.72022 58.6515 4.67054 58.235C4.64102 57.7432 4.74183 57.367 5.01328 56.9559C5.18933 56.5998 5.51586 56.2841 5.99288 56.0087C6.3745 55.7884 6.81119 55.6635 7.28281 55.7092C7.75442 55.7549 8.13064 55.8557 8.54177 56.1272C8.9529 56.3986 9.26863 56.7251 9.48896 57.1068C9.68912 57.5636 9.81404 58.0003 9.86372 58.4168ZM8.23 56.6888C7.94919 56.5329 7.64822 56.4522 7.32709 56.4468C7.00595 56.4414 6.66466 56.5113 6.37845 56.6765C6.09224 56.8418 5.86111 57.1024 5.62998 57.3631C5.47409 57.6439 5.39345 57.9448 5.38805 58.266C5.38264 58.5871 5.45248 58.9284 5.61773 59.2146C5.78297 59.5008 6.02346 59.8072 6.30427 59.9631C6.58508 60.119 6.88605 60.1996 7.20718 60.205C7.52831 60.2104 7.8696 60.1406 8.15581 59.9753C8.44202 59.8101 8.67315 59.5494 8.90428 59.2888C9.13541 59.0281 9.14082 58.707 9.14622 58.3859C9.15162 58.0648 9.08178 57.7235 8.84129 57.4171C8.77145 57.0758 8.51081 56.8447 8.23 56.6888Z" fill="white"/>
<path d="M1.64796 51.4574L6.28637 49.797L6.52145 50.4246L4.4683 51.1647L5.44355 53.8454L7.49671 53.1052L7.73179 53.7327L3.09338 55.3931L2.8583 54.7656L4.81605 54.0805L3.84079 51.3998L1.88304 52.0849L1.64796 51.4574Z" fill="white"/>
<path d="M4.63139 44.8375L5.23874 44.6776L5.91698 48.1658L1.06364 49.1234L0.44048 45.7307L1.02766 45.6461L1.58638 48.3764L3.0268 48.1172L2.53791 45.7281L3.1251 45.6436L3.61398 48.0326L5.14979 47.7183L4.63139 44.8375Z" fill="white"/>
<path d="M2.94948 41.4836C2.83392 41.6139 2.66327 41.6488 2.49263 41.6837C2.32198 41.7187 2.19166 41.6031 2.06133 41.4875C1.93101 41.372 1.89609 41.2013 1.86117 41.0307C1.82625 40.86 1.94181 40.7297 2.05738 40.5994C2.17294 40.4691 2.34359 40.4341 2.51424 40.3992C2.68488 40.3643 2.8152 40.4799 2.94553 40.5954C3.07585 40.711 3.13093 40.8064 3.16585 40.977C3.10537 41.2028 3.06505 41.3533 2.94948 41.4836Z" fill="white"/>
</g>
<defs>
<clipPath id="clip0">
<rect width="80" height="80" fill="white"/>
</clipPath>
</defs>
</svg>
