<svg width="768" height="384" viewBox="0 0 768 384" fill="none" xmlns="http://www.w3.org/2000/svg">
<mask id="mask0" mask-type="alpha" maskUnits="userSpaceOnUse" x="0" y="0" width="768" height="384">
<rect width="768" height="384" fill="#5A2D86"/>
</mask>
<g mask="url(#mask0)">
<path d="M-414.5 412.59L-414.463 413.088L-414.5 412.59ZM55 197.563L55.0688 198.059L55 197.563ZM-50.5 223.063L-50.7474 223.498L-50.5 223.063ZM323 110.59L323.374 110.258L323 110.59ZM547.5 343.063L547.601 342.574L547.5 343.063ZM701.468 262.888C701.371 262.629 701.083 262.498 700.825 262.595L696.61 264.173C696.352 264.269 696.22 264.558 696.317 264.816C696.414 265.075 696.702 265.206 696.961 265.109L700.707 263.707L702.109 267.453C702.206 267.712 702.494 267.843 702.753 267.746C703.011 267.649 703.143 267.361 703.046 267.102L701.468 262.888ZM-702.5 246.608C-702.355 250.471 -701.987 254.555 -701.372 258.812L-700.382 258.669C-700.993 254.445 -701.357 250.397 -701.5 246.571L-702.5 246.608ZM-700.728 262.814C-699.403 270.308 -697.323 278.278 -694.365 286.49L-693.424 286.151C-696.363 277.992 -698.428 270.078 -699.744 262.639L-700.728 262.814ZM-692.941 290.285C-690.114 297.529 -686.599 304.931 -682.313 312.336L-681.447 311.835C-685.708 304.475 -689.2 297.119 -692.009 289.921L-692.941 290.285ZM-680.211 315.866C-676.12 322.545 -671.39 329.206 -665.959 335.734L-665.19 335.094C-670.59 328.604 -675.292 321.982 -679.358 315.344L-680.211 315.866ZM-663.292 338.863C-658.134 344.774 -652.385 350.558 -645.998 356.13L-645.341 355.377C-651.693 349.835 -657.41 344.082 -662.539 338.205L-663.292 338.863ZM-642.875 358.795C-636.846 363.827 -630.276 368.669 -623.132 373.255L-622.592 372.414C-629.701 367.85 -636.237 363.033 -642.235 358.027L-642.875 358.795ZM-619.705 375.408C-613.02 379.517 -605.853 383.403 -598.175 387.017L-597.749 386.112C-605.394 382.514 -612.529 378.645 -619.181 374.556L-619.705 375.408ZM-594.446 388.732C-587.294 391.947 -579.715 394.928 -571.688 397.638L-571.368 396.69C-579.365 393.991 -586.914 391.022 -594.036 387.82L-594.446 388.732ZM-567.759 398.931C-560.299 401.323 -552.463 403.484 -544.235 405.384L-544.01 404.409C-552.212 402.515 -560.021 400.362 -567.453 397.979L-567.759 398.931ZM-540.2 406.288C-532.538 407.952 -524.544 409.393 -516.206 410.589L-516.064 409.599C-524.379 408.407 -532.349 406.97 -539.988 405.31L-540.2 406.288ZM-512.143 411.149C-504.331 412.181 -496.223 413 -487.81 413.588L-487.74 412.59C-496.133 412.003 -504.221 411.186 -512.012 410.157L-512.143 411.149ZM-483.78 413.851C-475.894 414.328 -467.745 414.604 -459.325 414.666L-459.317 413.666C-467.72 413.604 -475.852 413.328 -483.72 412.853L-483.78 413.851ZM-455.178 414.679C-447.291 414.672 -439.171 414.477 -430.81 414.086L-430.857 413.087C-439.203 413.478 -447.308 413.672 -455.179 413.679L-455.178 414.679ZM-426.779 413.883C-422.729 413.664 -418.624 413.4 -414.463 413.088L-414.537 412.091C-418.692 412.402 -422.79 412.666 -426.833 412.884L-426.779 413.883ZM-414.463 413.088C-410.412 412.785 -406.413 412.45 -402.465 412.085L-402.557 411.089C-406.5 411.454 -410.492 411.788 -414.537 412.091L-414.463 413.088ZM-398.534 411.709C-390.464 410.914 -382.608 409.99 -374.956 408.946L-375.091 407.955C-382.73 408.998 -390.574 409.92 -398.632 410.714L-398.534 411.709ZM-371.066 408.402C-363.035 407.252 -355.231 405.968 -347.643 404.56L-347.825 403.577C-355.4 404.983 -363.19 406.264 -371.207 407.412L-371.066 408.402ZM-343.815 403.836C-335.854 402.3 -328.132 400.625 -320.636 398.825L-320.869 397.852C-328.351 399.65 -336.058 401.32 -344.004 402.854L-343.815 403.836ZM-316.739 397.872C-308.849 395.91 -301.212 393.807 -293.811 391.576L-294.099 390.619C-301.485 392.845 -309.106 394.944 -316.98 396.902L-316.739 397.872ZM-290.009 390.413C-282.265 388.007 -274.782 385.461 -267.54 382.791L-267.886 381.853C-275.112 384.517 -282.579 387.057 -290.305 389.458L-290.009 390.413ZM-263.875 381.422C-256.287 378.548 -248.966 375.538 -241.887 372.411L-242.291 371.496C-249.353 374.617 -256.658 377.62 -264.229 380.486L-263.875 381.422ZM-238.245 370.782C-230.874 367.445 -223.767 363.981 -216.898 360.412L-217.359 359.525C-224.213 363.085 -231.303 366.542 -238.658 369.871L-238.245 370.782ZM-213.431 358.592C-206.278 354.795 -199.383 350.886 -192.714 346.892L-193.227 346.034C-199.882 350.02 -206.763 353.92 -213.9 357.708L-213.431 358.592ZM-189.326 344.844C-182.449 340.648 -175.813 336.364 -169.381 332.021L-169.94 331.193C-176.361 335.528 -182.984 339.803 -189.846 343.99L-189.326 344.844ZM-166.087 329.78C-159.451 325.232 -153.03 320.625 -146.783 315.993L-147.378 315.19C-153.617 319.815 -160.028 324.415 -166.652 328.955L-166.087 329.78ZM-143.61 313.628C-137.175 308.805 -130.919 303.962 -124.797 299.136L-125.416 298.35C-131.534 303.173 -137.783 308.011 -144.209 312.828L-143.61 313.628ZM-121.714 296.698C-115.418 291.707 -109.256 286.741 -103.176 281.841L-103.804 281.063C-109.884 285.962 -116.043 290.927 -122.335 295.915L-121.714 296.698ZM-100.112 279.372C-93.8685 274.343 -87.7038 269.393 -81.5598 264.566L-82.1775 263.78C-88.3267 268.611 -94.4955 273.564 -100.739 278.593L-100.112 279.372ZM-78.4594 262.14C-72.1539 257.226 -65.8612 252.451 -59.5192 247.865L-60.1053 247.054C-66.4595 251.65 -72.7621 256.432 -79.074 261.351L-78.4594 262.14ZM-56.3198 245.57C-49.8353 240.96 -43.2893 236.554 -36.6163 232.405L-37.1444 231.555C-43.8378 235.718 -50.4011 240.135 -56.8993 244.755L-56.3198 245.57ZM-33.2545 230.343C-26.4992 226.258 -19.6046 222.441 -12.5043 218.945L-12.946 218.048C-20.075 221.558 -26.9949 225.389 -33.7719 229.487L-33.2545 230.343ZM-8.95325 217.232C-1.88879 213.894 5.38635 210.876 12.9357 208.229L12.6049 207.285C5.02063 209.945 -2.28662 212.976 -9.38043 216.328L-8.95325 217.232ZM16.6537 206.963C23.9896 204.539 31.5883 202.464 39.5063 200.783L39.2986 199.805C31.3441 201.494 23.7099 203.578 16.34 206.014L16.6537 206.963ZM43.3503 200.003C47.1796 199.262 51.0837 198.612 55.0688 198.059L54.9312 197.068C50.9286 197.624 47.007 198.277 43.1603 199.022L43.3503 200.003ZM55.0688 198.059C59.3655 197.462 63.3171 197.159 66.9319 197.114L66.9194 196.114C63.2583 196.16 59.2647 196.466 54.9312 197.068L55.0688 198.059ZM70.7873 197.167C81.1475 197.597 88.3088 200.336 92.5789 204.282L93.2576 203.548C88.7508 199.383 81.3245 196.604 70.8287 196.168L70.7873 197.167ZM95.0671 207.177C99.07 213.176 98.077 221.125 92.3887 228.59L93.1841 229.196C99.0324 221.521 100.218 213.095 95.8989 206.622L95.0671 207.177ZM89.8458 231.561C85.2543 236.376 78.6486 240.791 70.1801 244.05L70.5393 244.983C79.1239 241.68 85.861 237.189 90.5694 232.252L89.8458 231.561ZM66.4286 245.376C59.7155 247.549 51.9816 249.016 43.2943 249.466L43.3459 250.465C52.1146 250.011 59.9351 248.529 66.7366 246.328L66.4286 245.376ZM39.3862 249.598C32.144 249.712 24.2865 249.133 15.8499 247.695L15.6818 248.681C24.176 250.129 32.095 250.713 39.4021 250.597L39.3862 249.598ZM12.0044 246.987C4.79706 245.564 -2.81238 243.522 -10.8026 240.763L-11.1288 241.709C-3.09753 244.481 4.55615 246.536 11.8107 247.968L12.0044 246.987ZM-14.5744 239.418C-21.5343 236.857 -28.7723 233.757 -36.2748 230.057L-36.717 230.954C-29.1845 234.668 -21.9142 237.782 -14.9197 240.357L-14.5744 239.418ZM-39.7833 228.293C-43.2197 226.532 -46.7098 224.646 -50.2526 222.629L-50.7474 223.498C-47.1921 225.522 -43.6891 227.415 -40.2394 229.183L-39.7833 228.293ZM-50.2526 222.629C-53.9915 220.501 -57.4275 218.347 -60.5715 216.171L-61.1405 216.993C-57.9703 219.187 -54.5092 221.356 -50.7474 223.498L-50.2526 222.629ZM-63.6185 213.989C-70.9957 208.514 -76.5647 202.918 -80.5009 197.261L-81.3217 197.832C-77.3104 203.597 -71.658 209.268 -64.2144 214.792L-63.6185 213.989ZM-82.5825 194.008C-86.9468 186.54 -88.551 178.979 -87.7805 171.445L-88.7753 171.344C-89.5685 179.1 -87.9109 186.872 -83.4458 194.512L-82.5825 194.008ZM-87.1691 167.537C-85.6819 160.463 -82.1463 153.406 -76.8411 146.476L-77.6352 145.868C-83.0067 152.884 -86.6225 160.076 -88.1478 167.332L-87.1691 167.537ZM-74.4047 143.449C-69.7071 137.884 -63.8879 132.42 -57.1038 127.119L-57.7196 126.331C-64.546 131.666 -70.4181 137.176 -75.1689 142.804L-74.4047 143.449ZM-53.9675 124.73C-47.9276 120.245 -41.2042 115.886 -33.8973 111.692L-34.3951 110.824C-41.7313 115.036 -48.4881 119.415 -54.5637 123.927L-53.9675 124.73ZM-30.4963 109.774C-23.8084 106.072 -16.6678 102.505 -9.1463 99.1007L-9.55859 98.1896C-17.1024 101.604 -24.2672 105.183 -30.9807 108.9L-30.4963 109.774ZM-5.45569 97.4568C1.6239 94.3531 9.01984 91.3927 16.675 88.5965L16.3318 87.6572C8.65814 90.4602 1.24268 93.4283 -5.85718 96.5409L-5.45569 97.4568ZM20.394 87.2582C27.7588 84.6475 35.3499 82.1886 43.1177 79.8996L42.8351 78.9404C35.0504 81.2343 27.4422 83.6987 20.0599 86.3157L20.394 87.2582ZM46.9609 78.7852C54.5327 76.6247 62.2625 74.6261 70.1053 72.8057L69.8792 71.8316C62.0203 73.6557 54.2745 75.6585 46.6865 77.8236L46.9609 78.7852ZM73.9661 71.926C81.6857 70.2 89.5067 68.6475 97.387 67.2841L97.2166 66.2987C89.3201 67.665 81.4832 69.2205 73.7479 70.9501L73.9661 71.926ZM101.31 66.6218C109.158 65.3297 117.057 64.2268 124.967 63.3278L124.854 62.3342C116.927 63.2351 109.011 64.3404 101.148 65.6351L101.31 66.6218ZM128.92 62.8956C136.862 62.0619 144.807 61.4362 152.713 61.0337L152.662 60.035C144.737 60.4384 136.774 61.0655 128.815 61.9011L128.92 62.8956ZM156.707 60.8493C164.73 60.5171 172.706 60.4182 180.591 60.5684L180.61 59.5685C172.704 59.4179 164.708 59.5172 156.666 59.8502L156.707 60.8493ZM184.57 60.6656C192.624 60.9062 200.574 61.4117 208.373 62.1991L208.474 61.2042C200.649 60.4143 192.676 59.9073 184.6 59.6661L184.57 60.6656ZM212.29 62.6198C220.349 63.5379 228.235 64.7641 235.897 66.3175L236.095 65.3374C228.404 63.7779 220.489 62.5473 212.403 61.6262L212.29 62.6198ZM239.808 67.1435C247.74 68.886 255.414 70.9901 262.771 73.4774L263.091 72.53C255.697 70.0301 247.987 67.9165 240.023 66.1668L239.808 67.1435ZM266.476 74.7725C274.144 77.5417 281.444 80.7437 288.304 84.4041L288.775 83.5218C281.868 79.8369 274.524 76.6159 266.816 73.832L266.476 74.7725ZM291.786 86.3227C298.803 90.3161 305.326 94.8156 311.273 99.8503L311.92 99.0871C305.921 94.0092 299.347 89.4749 292.281 85.4536L291.786 86.3227ZM314.268 102.475C317.212 105.148 320.002 107.962 322.626 110.921L323.374 110.258C320.725 107.27 317.91 104.431 314.941 101.735L314.268 102.475ZM322.626 110.921C325.257 113.889 327.844 116.838 330.39 119.768L331.145 119.113C328.597 116.18 326.007 113.228 323.374 110.258L322.626 110.921ZM332.928 122.701C338.162 128.767 343.217 134.752 348.109 140.65L348.878 140.012C343.983 134.109 338.923 128.119 333.685 122.048L332.928 122.701ZM350.583 143.643C355.683 149.83 360.604 155.92 365.364 161.906L366.147 161.283C361.383 155.293 356.458 149.199 351.354 143.007L350.583 143.643ZM367.779 164.951C372.76 171.248 377.564 177.427 382.213 183.481L383.006 182.872C378.355 176.815 373.548 170.632 368.564 164.33L367.779 164.951ZM384.572 186.559C389.458 192.948 394.173 199.194 398.742 205.288L399.542 204.688C394.971 198.593 390.255 192.344 385.366 185.951L384.572 186.559ZM401.089 208.423C405.917 214.876 410.583 221.154 415.12 227.245L415.922 226.648C411.386 220.557 406.719 214.278 401.89 207.824L401.089 208.423ZM417.466 230.394C422.295 236.872 426.98 243.133 431.56 249.161L432.356 248.556C427.78 242.532 423.096 236.274 418.267 229.796L417.466 230.394ZM433.922 252.262C438.853 258.715 443.667 264.892 448.414 270.775L449.192 270.147C444.452 264.273 439.644 258.103 434.717 251.655L433.922 252.262ZM450.869 273.798C456.024 280.106 461.111 286.06 466.193 291.637L466.932 290.964C461.865 285.403 456.79 279.462 451.643 273.165L450.869 273.798ZM468.835 294.503C474.395 300.462 479.963 305.965 485.623 310.982L486.287 310.233C480.654 305.241 475.109 299.761 469.566 293.821L468.835 294.503ZM488.582 313.551C494.735 318.789 501.014 323.451 507.524 327.5L508.052 326.651C501.59 322.632 495.351 317.999 489.23 312.79L488.582 313.551ZM510.887 329.524C517.704 333.492 524.787 336.795 532.252 339.389L532.58 338.445C525.179 335.873 518.155 332.598 511.391 328.66L510.887 329.524ZM535.974 340.614C539.682 341.766 543.486 342.748 547.399 343.553L547.601 342.574C543.72 341.775 539.948 340.802 536.271 339.659L535.974 340.614ZM547.399 343.553C551.241 344.344 555.048 344.993 558.816 345.502L558.95 344.511C555.205 344.005 551.421 343.36 547.601 342.574L547.399 343.553ZM562.65 345.973C570.542 346.846 578.257 347.099 585.768 346.752L585.722 345.753C578.265 346.098 570.602 345.847 562.76 344.979L562.65 345.973ZM589.619 346.52C597.477 345.937 605.1 344.687 612.457 342.796L612.208 341.827C604.91 343.704 597.345 344.944 589.545 345.523L589.619 346.52ZM616.184 341.776C623.658 339.606 630.842 336.761 637.702 333.267L637.248 332.376C630.445 335.841 623.319 338.663 615.905 340.816L616.184 341.776ZM641.115 331.46C647.84 327.762 654.235 323.425 660.266 318.474L659.631 317.701C653.647 322.614 647.303 326.916 640.633 330.583L641.115 331.46ZM663.215 315.979C668.932 310.994 674.301 305.44 679.292 299.339L678.518 298.706C673.561 304.765 668.231 310.279 662.558 315.225L663.215 315.979ZM681.696 296.32C686.307 290.372 690.573 283.937 694.466 277.036L693.596 276.545C689.724 283.405 685.485 289.799 680.906 295.707L681.696 296.32ZM696.326 273.652C698.122 270.296 699.833 266.834 701.455 263.271L700.545 262.856C698.931 266.401 697.23 269.843 695.444 273.18L696.326 273.652Z" fill="black"/>
<circle cx="83" cy="368" r="43.5" stroke="black" stroke-dasharray="24 4"/>
<circle cx="676" cy="-4" r="72.5" stroke="black" stroke-dasharray="24 4"/>
</g>
<circle cx="714" cy="226" r="3" fill="black"/>
<circle cx="714" cy="226" r="21.5" stroke="black" stroke-dasharray="24 4"/>
</svg>
