<svg width="1005" height="628" viewBox="0 0 1005 628" fill="none" xmlns="http://www.w3.org/2000/svg">
<path d="M999.811 191L999.325 190.881L999.811 191ZM820.811 325.5L821.183 325.834L820.811 325.5ZM642.268 367.557C642.023 367.686 641.929 367.988 642.057 368.232L644.149 372.217C644.277 372.461 644.58 372.555 644.824 372.427C645.069 372.299 645.163 371.996 645.034 371.752L643.175 368.21L646.717 366.351C646.961 366.223 647.055 365.92 646.927 365.676C646.799 365.431 646.496 365.337 646.252 365.466L642.268 367.557ZM642.351 368.477C645.595 369.488 649.442 370.608 653.802 371.717L654.049 370.748C649.708 369.644 645.879 368.529 642.649 367.523L642.351 368.477ZM657.668 372.664C664.528 374.279 672.454 375.796 681.166 376.83L681.284 375.837C672.615 374.808 664.726 373.298 657.897 371.691L657.668 372.664ZM685.132 377.261C692.613 377.998 700.615 378.356 708.973 378.109L708.943 377.11C700.633 377.355 692.674 376.999 685.23 376.266L685.132 377.261ZM712.963 377.946C720.624 377.544 728.556 376.618 736.636 374.999L736.439 374.018C728.411 375.627 720.528 376.548 712.91 376.948L712.963 377.946ZM740.525 374.167C748.046 372.459 755.676 370.134 763.319 367.058L762.945 366.131C755.355 369.185 747.776 371.495 740.304 373.192L740.525 374.167ZM766.981 365.527C774.028 362.468 781.07 358.754 788.033 354.281L787.493 353.44C780.576 357.883 773.581 361.572 766.583 364.609L766.981 365.527ZM791.357 352.084C797.67 347.79 803.907 342.853 810.009 337.196L809.329 336.463C803.263 342.086 797.066 346.991 790.794 351.257L791.357 352.084ZM812.887 334.465C815.685 331.747 818.452 328.872 821.183 325.834L820.439 325.166C817.723 328.187 814.972 331.045 812.19 333.747L812.887 334.465ZM821.183 325.834C823.82 322.9 826.325 319.994 828.702 317.118L827.931 316.481C825.563 319.346 823.068 322.242 820.439 325.166L821.183 325.834ZM831.153 314.104C836.247 307.745 840.713 301.534 844.6 295.486L843.759 294.945C839.891 300.962 835.446 307.145 830.373 313.479L831.153 314.104ZM846.641 292.239C850.953 285.225 854.484 278.437 857.313 271.9L856.395 271.503C853.586 277.993 850.078 284.739 845.789 291.716L846.641 292.239ZM858.805 268.315C861.896 260.576 863.997 253.206 865.244 246.243L864.26 246.067C863.025 252.958 860.944 260.264 857.877 267.944L858.805 268.315ZM865.848 242.434C866.994 234.117 866.904 226.422 865.831 219.425L864.843 219.577C865.9 226.473 865.991 234.071 864.858 242.298L865.848 242.434ZM865.142 215.643C863.414 207.475 860.307 200.357 856.274 194.426L855.447 194.989C859.405 200.809 862.461 207.806 864.164 215.85L865.142 215.643ZM853.991 191.318C848.874 184.86 842.59 180.077 835.874 177.192L835.479 178.111C842.036 180.927 848.188 185.605 853.207 191.939L853.991 191.318ZM832.249 175.833C828.487 174.624 824.633 174 820.811 174V175C824.524 175 828.275 175.606 831.943 176.785L832.249 175.833ZM820.811 174C817.019 174 812.984 174.662 809.002 175.936L809.307 176.888C813.2 175.643 817.132 175 820.811 175V174ZM805.248 177.326C798.049 180.368 791.308 185.435 786.877 192.261L787.716 192.805C792.02 186.175 798.59 181.225 805.638 178.247L805.248 177.326ZM784.896 195.75C781.677 202.316 780.533 210.211 782.728 219.219L783.7 218.982C781.559 210.197 782.68 202.542 785.794 196.191L784.896 195.75ZM783.845 223.052C786.007 229.439 789.819 236.328 795.681 243.656L796.462 243.032C790.658 235.776 786.91 228.988 784.793 222.731L783.845 223.052ZM798.242 246.734C800.674 249.549 803.408 252.425 806.465 255.361L807.157 254.639C804.121 251.724 801.409 248.869 798.998 246.08L798.242 246.734ZM806.465 255.361C809.214 258.001 812.169 260.425 815.304 262.636L815.881 261.819C812.785 259.636 809.869 257.243 807.157 254.639L806.465 255.361ZM818.475 264.761C824.795 268.784 831.759 272.001 839.166 274.424L839.477 273.474C832.142 271.074 825.255 267.891 819.012 263.917L818.475 264.761ZM842.815 275.544C849.989 277.603 857.536 278.948 865.286 279.588L865.369 278.592C857.68 277.956 850.197 276.622 843.091 274.583L842.815 275.544ZM869.096 279.846C876.59 280.241 884.247 279.989 891.916 279.1L891.801 278.107C884.186 278.99 876.585 279.239 869.148 278.847L869.096 279.846ZM895.687 278.612C903.168 277.541 910.639 275.865 917.959 273.592L917.662 272.637C910.393 274.894 902.974 276.559 895.545 277.622L895.687 278.612ZM921.583 272.413C928.779 269.966 935.804 266.934 942.526 263.324L942.053 262.443C935.381 266.026 928.406 269.036 921.261 271.466L921.583 272.413ZM945.856 261.474C952.46 257.68 958.738 253.311 964.556 248.375L963.909 247.612C958.139 252.507 951.911 256.841 945.358 260.607L945.856 261.474ZM967.423 245.862C973.046 240.771 978.193 235.121 982.73 228.92L981.923 228.329C977.428 234.473 972.327 240.073 966.752 245.121L967.423 245.862ZM984.925 225.807C989.136 219.603 992.751 212.88 995.647 205.646L994.719 205.274C991.85 212.44 988.269 219.1 984.098 225.245L984.925 225.807ZM996.999 202.088C998.271 198.548 999.375 194.891 1000.3 191.119L999.325 190.881C998.412 194.62 997.318 198.243 996.057 201.75L996.999 202.088ZM1000.3 191.119C1001.27 187.135 1002.04 183.117 1002.63 179.074L1001.64 178.93C1001.06 182.943 1000.29 186.93 999.325 190.881L1000.3 191.119ZM1003.16 175.019C1004.09 166.911 1004.3 158.719 1003.91 150.526L1002.91 150.573C1003.29 158.718 1003.09 166.856 1002.16 174.905L1003.16 175.019ZM1003.66 146.448C1003.09 138.32 1001.94 130.203 1000.34 122.178L999.358 122.373C1000.95 130.361 1002.09 138.437 1002.67 146.519L1003.66 146.448ZM999.503 118.18C997.754 110.17 995.571 102.265 993.073 94.5473L992.122 94.8552C994.611 102.546 996.785 110.419 998.526 118.393L999.503 118.18ZM991.79 90.6763C989.121 82.8197 986.141 75.1734 982.979 67.8253L982.061 68.2206C985.213 75.547 988.183 83.1687 990.843 90.9979L991.79 90.6763ZM981.344 64.0872C977.907 56.3573 974.287 48.9834 970.64 42.0722L969.756 42.5389C973.394 49.4322 977.003 56.7859 980.43 64.4935L981.344 64.0872ZM968.718 38.477C964.527 30.737 960.336 23.6301 956.379 17.3171L955.532 17.8483C959.478 24.1444 963.659 31.2331 967.839 38.9532L968.718 38.477ZM954.196 13.8774C951.81 10.1629 949.53 6.76258 947.411 3.71458L946.59 4.28542C948.702 7.32337 950.975 10.7135 953.355 14.4179L954.196 13.8774Z" fill="black"/>
<path d="M641.569 326.253C641.708 326.491 642.014 326.571 642.253 326.431L646.136 324.157C646.374 324.018 646.454 323.711 646.314 323.473C646.175 323.235 645.869 323.155 645.63 323.294L642.179 325.316L640.157 321.864C640.018 321.626 639.711 321.546 639.473 321.686C639.235 321.825 639.155 322.131 639.294 322.37L641.569 326.253ZM642.484 326.126C643.503 322.226 644.575 318.386 645.7 314.603L644.741 314.318C643.614 318.111 642.538 321.963 641.516 325.874L642.484 326.126ZM646.842 310.84C649.242 303.083 651.862 295.576 654.683 288.311L653.75 287.949C650.921 295.236 648.294 302.766 645.886 310.544L646.842 310.84ZM656.141 284.621C659.159 277.116 662.392 269.874 665.82 262.888L664.922 262.448C661.483 269.456 658.24 276.72 655.213 284.248L656.141 284.621ZM667.599 259.318C671.246 252.117 675.101 245.193 679.139 238.536L678.284 238.017C674.233 244.696 670.366 251.642 666.707 258.867L667.599 259.318ZM681.236 235.131C685.509 228.289 689.978 221.737 694.615 215.463L693.811 214.869C689.159 221.163 684.675 227.737 680.387 234.601L681.236 235.131ZM697.005 212.273C701.881 205.856 706.933 199.737 712.131 193.906L711.384 193.241C706.169 199.091 701.101 205.229 696.209 211.669L697.005 212.273ZM714.802 190.948C720.24 185.006 725.829 179.372 731.535 174.032L730.851 173.302C725.127 178.659 719.52 184.312 714.064 190.273L714.802 190.948ZM734.466 171.324C740.42 165.894 746.494 160.778 752.65 155.962L752.034 155.174C745.859 160.005 739.765 165.138 733.792 170.585L734.466 171.324ZM755.8 153.529C762.219 148.636 768.718 144.063 775.257 139.797L774.71 138.959C768.152 143.239 761.632 147.825 755.194 152.734L755.8 153.529ZM778.59 137.65C785.419 133.31 792.283 129.299 799.133 125.599L798.658 124.72C791.787 128.43 784.903 132.453 778.053 136.806L778.59 137.65ZM802.626 123.739C809.825 119.959 817 116.521 824.095 113.404L823.693 112.488C816.577 115.615 809.381 119.063 802.161 122.854L802.626 123.739ZM827.752 111.822C835.281 108.618 842.709 105.774 849.968 103.265L849.641 102.32C842.361 104.836 834.911 107.688 827.36 110.902L827.752 111.822ZM853.727 101.991C861.597 99.3752 869.251 97.1554 876.601 95.2992L876.356 94.3296C868.983 96.1918 861.305 98.4185 853.412 101.042L853.727 101.991ZM880.424 94.3595C888.677 92.3875 896.514 90.8808 903.803 89.791L903.655 88.802C896.336 89.8962 888.472 91.4085 880.192 93.3869L880.424 94.3595ZM907.76 89.233C911.889 88.6861 915.823 88.2778 919.537 87.9986L919.463 87.0014C915.728 87.2821 911.775 87.6924 907.628 88.2416L907.76 89.233Z" fill="black"/>
<path d="M480.821 411.117C480.609 410.939 480.294 410.967 480.117 411.179L477.227 414.628C477.049 414.84 477.077 415.155 477.289 415.333C477.501 415.51 477.816 415.482 477.993 415.27L480.562 412.204L483.628 414.773C483.84 414.951 484.155 414.923 484.333 414.711C484.51 414.499 484.482 414.184 484.27 414.007L480.821 411.117ZM395.351 625.356C398.069 622.68 401.001 619.608 404.086 616.168L403.341 615.501C400.269 618.927 397.351 621.984 394.649 624.644L395.351 625.356ZM406.883 612.995C411.891 607.22 417.236 600.546 422.679 593.087L421.871 592.498C416.444 599.935 411.117 606.586 406.128 612.34L406.883 612.995ZM425.147 589.659C429.8 583.112 434.497 576.007 439.091 568.415L438.236 567.897C433.655 575.468 428.971 582.552 424.332 589.08L425.147 589.659ZM441.255 564.79C445.418 557.716 449.476 550.243 453.316 542.425L452.418 541.985C448.59 549.779 444.544 557.229 440.393 564.283L441.255 564.79ZM455.151 538.626C458.715 531.124 462.067 523.321 465.112 515.261L464.177 514.907C461.142 522.941 457.801 530.718 454.248 538.196L455.151 538.626ZM466.581 511.286C469.422 503.421 471.962 495.323 474.115 487.031L473.147 486.779C471.002 495.039 468.472 503.109 465.64 510.947L466.581 511.286ZM475.145 482.924C477.12 474.767 478.711 466.433 479.84 457.959L478.849 457.827C477.725 466.265 476.14 474.564 474.173 482.688L475.145 482.924ZM480.36 453.754C481.313 445.415 481.81 436.947 481.774 428.386L480.774 428.39C480.809 436.91 480.315 445.338 479.367 453.64L480.36 453.754ZM481.713 424.155C481.608 419.942 481.373 415.707 480.998 411.456L480.002 411.544C480.375 415.774 480.609 419.987 480.713 424.18L481.713 424.155Z" fill="black"/>
<path d="M212.501 216.699L212.57 216.204L212.501 216.699ZM314.999 337.866C315.222 337.704 315.273 337.392 315.111 337.168L312.475 333.521C312.313 333.297 312.001 333.247 311.777 333.408C311.553 333.57 311.503 333.883 311.664 334.107L314.008 337.348L310.766 339.692C310.542 339.853 310.492 340.166 310.653 340.39C310.815 340.613 311.128 340.664 311.352 340.502L314.999 337.866ZM83.3008 5.91968C82.6724 9.63635 82.1193 13.5874 81.6614 17.7357L82.6553 17.8454C83.1113 13.7154 83.6617 9.78343 84.2868 6.0864L83.3008 5.91968ZM81.2611 21.6753C80.5682 29.1296 80.1842 37.152 80.2146 45.5456L81.2145 45.542C81.1843 37.1809 81.5669 29.1906 82.2568 21.7679L81.2611 21.6753ZM80.2598 49.5238C80.4076 57.2353 80.9096 65.2272 81.8448 73.3527L82.8382 73.2384C81.9069 65.1463 81.4069 57.1862 81.2597 49.5046L80.2598 49.5238ZM82.3329 77.3059C83.358 85.0748 84.7869 92.9437 86.6876 100.786L87.6594 100.55C85.7677 92.7453 84.3451 84.9115 83.3244 77.1751L82.3329 77.3059ZM87.6638 104.652C89.6731 112.298 92.1431 119.899 95.1374 127.337L96.065 126.963C93.0877 119.567 90.6305 112.006 88.631 104.398L87.6638 104.652ZM96.6666 131.014C99.7943 138.297 103.443 145.404 107.674 152.219L108.523 151.691C104.321 144.922 100.695 137.86 97.5855 130.619L96.6666 131.014ZM109.819 155.573C114.16 162.162 119.071 168.452 124.61 174.336L125.338 173.651C119.841 167.811 114.966 161.566 110.654 155.023L109.819 155.573ZM127.384 177.196C132.9 182.714 139.003 187.842 145.742 192.482L146.31 191.659C139.621 187.053 133.566 181.965 128.091 176.489L127.384 177.196ZM149.057 194.692C155.534 198.87 162.57 202.612 170.207 205.84L170.597 204.919C163.012 201.713 156.027 197.998 149.599 193.852L149.057 194.692ZM173.868 207.33C180.971 210.111 188.573 212.459 196.704 214.318L196.927 213.343C188.842 211.495 181.288 209.161 174.232 206.399L173.868 207.33ZM200.654 215.173C204.466 215.954 208.391 216.629 212.432 217.194L212.57 216.204C208.55 215.642 204.646 214.97 200.855 214.193L200.654 215.173ZM212.432 217.194C216.802 217.805 221.008 218.282 225.055 218.633L225.141 217.637C221.113 217.287 216.924 216.812 212.57 216.204L212.432 217.194ZM229.269 218.957C238.549 219.577 246.95 219.509 254.528 218.853L254.442 217.856C246.921 218.508 238.571 218.576 229.336 217.959L229.269 218.957ZM258.755 218.416C268.255 217.27 276.368 215.149 283.214 212.272L282.827 211.35C276.079 214.186 268.058 216.286 258.636 217.423L258.755 218.416ZM287.044 210.52C295.652 206.243 301.978 200.66 306.315 194.323L305.49 193.758C301.257 199.942 295.068 205.417 286.599 209.625L287.044 210.52ZM308.528 190.717C312.71 183.071 314.281 174.577 313.736 166.112L312.738 166.177C313.272 174.475 311.731 182.777 307.651 190.237L308.528 190.717ZM313.291 161.89C312.076 153.604 308.898 145.481 304.218 138.345L303.382 138.894C307.986 145.915 311.109 153.901 312.301 162.035L313.291 161.89ZM301.772 134.886C296.607 128.099 290.009 122.425 282.433 118.699L281.992 119.596C289.414 123.247 295.895 128.815 300.976 135.492L301.772 134.886ZM278.547 116.995C270.903 114.039 262.418 113.045 253.516 114.766L253.706 115.748C262.414 114.064 270.708 115.036 278.187 117.927L278.547 116.995ZM249.394 115.752C245.527 116.855 241.599 118.476 237.643 120.675L238.129 121.549C242.022 119.386 245.879 117.794 249.668 116.714L249.394 115.752ZM237.643 120.675C233.962 122.721 230.545 125.06 227.392 127.659L228.028 128.43C231.135 125.87 234.501 123.565 238.129 121.549L237.643 120.675ZM224.289 130.379C218.251 136.002 213.297 142.651 209.403 150.054L210.288 150.52C214.134 143.208 219.022 136.652 224.97 131.111L224.289 130.379ZM207.569 153.764C204.185 161.059 201.762 169.002 200.279 177.359L201.264 177.533C202.733 169.253 205.132 161.394 208.476 154.185L207.569 153.764ZM199.638 181.413C198.53 189.369 198.246 197.658 198.769 206.089L199.767 206.027C199.248 197.658 199.531 189.437 200.629 181.551L199.638 181.413ZM199.088 210.207C199.833 218.254 201.303 226.403 203.486 234.491L204.451 234.23C202.283 226.196 200.823 218.103 200.083 210.115L199.088 210.207ZM204.615 238.459C206.95 246.252 209.948 253.964 213.597 261.447L214.496 261.009C210.871 253.575 207.893 245.913 205.573 238.172L204.615 238.459ZM215.452 265.124C219.231 272.367 223.632 279.368 228.643 285.989L229.44 285.385C224.464 278.81 220.093 271.856 216.339 264.662L215.452 265.124ZM231.175 289.236C236.288 295.605 241.988 301.587 248.263 307.05L248.919 306.296C242.691 300.873 237.032 294.935 231.955 288.61L231.175 289.236ZM251.409 309.707C257.695 314.851 264.523 319.484 271.884 323.488L272.362 322.609C265.058 318.636 258.281 314.038 252.043 308.933L251.409 309.707ZM275.54 325.402C282.72 329.017 290.38 332.041 298.514 334.372L298.789 333.411C290.717 331.097 283.114 328.096 275.99 324.509L275.54 325.402ZM302.51 335.452C306.443 336.45 310.482 337.288 314.626 337.954L314.785 336.967C310.67 336.305 306.66 335.473 302.756 334.482L302.51 335.452Z" fill="black"/>
<path d="M142 530L141.512 530.11L142 530ZM48.5001 483L48.9911 483.094L48.5001 483ZM250.5 428L250.076 428.264L250.5 428ZM209.5 457.5L209.086 457.78L209.5 457.5ZM313.401 363.298C313.566 363.077 313.52 362.764 313.298 362.599L309.688 359.913C309.466 359.748 309.153 359.794 308.988 360.016C308.823 360.237 308.869 360.55 309.091 360.715L312.3 363.103L309.913 366.312C309.748 366.534 309.794 366.847 310.016 367.012C310.237 367.177 310.55 367.131 310.715 366.909L313.401 363.298ZM9.96643 624.819C8.53354 621.115 7.29943 617.493 6.2535 613.954L5.2945 614.237C6.34847 617.804 7.59146 621.451 9.03378 625.18L9.96643 624.819ZM5.20529 610.197C3.11567 602.231 1.99204 594.698 1.70744 587.599L0.70824 587.639C0.995943 594.815 2.13142 602.42 4.23802 610.451L5.20529 610.197ZM1.63451 583.841C1.64705 575.707 2.78002 568.166 4.83136 561.223L3.87234 560.94C1.79328 567.977 0.64719 575.612 0.634506 583.84L1.63451 583.841ZM5.99591 557.621C8.60378 550.204 12.2844 543.507 16.7718 537.536L15.9724 536.936C11.4265 542.984 7.69597 549.771 5.05253 557.289L5.99591 557.621ZM19.1403 534.54C24.0464 528.636 29.7639 523.503 36.0009 519.15L35.4286 518.33C29.1245 522.73 23.3392 527.922 18.3711 533.901L19.1403 534.54ZM39.175 517.03C45.6513 512.891 52.6076 509.551 59.7399 507.02L59.4053 506.077C52.2057 508.633 45.1804 512.005 38.6365 516.187L39.175 517.03ZM63.3709 505.805C70.8378 503.457 78.4365 501.984 85.8242 501.392L85.7444 500.395C78.2804 500.993 70.608 502.481 63.0709 504.851L63.3709 505.805ZM89.6254 501.165C97.6819 500.848 105.403 501.605 112.333 503.439L112.589 502.473C105.55 500.609 97.7275 499.845 89.5861 500.166L89.6254 501.165ZM115.971 504.526C123.706 507.116 130.239 511.167 134.871 516.676L135.637 516.032C130.86 510.352 124.156 506.212 116.288 503.578L115.971 504.526ZM137.129 519.707C139.146 522.786 140.64 526.252 141.512 530.11L142.488 529.89C141.589 525.915 140.048 522.338 137.965 519.159L137.129 519.707ZM141.512 530.11C142.521 534.57 143.094 538.74 143.279 542.621L144.277 542.574C144.09 538.629 143.508 534.401 142.488 529.89L141.512 530.11ZM143.327 546.805C143.074 556.609 140.179 564.352 135.567 570.07L136.346 570.698C141.114 564.787 144.068 556.824 144.327 546.831L143.327 546.805ZM132.746 573.122C126.789 578.752 118.794 581.809 110.047 582.277L110.101 583.276C119.045 582.797 127.277 579.667 133.433 573.849L132.746 573.122ZM105.88 582.306C98.0255 582.004 89.7598 579.704 81.974 575.407L81.4908 576.283C89.4045 580.651 97.8216 582.997 105.841 583.306L105.88 582.306ZM78.3682 573.25C71.7267 568.958 65.5587 563.148 60.4563 555.822L59.6357 556.393C64.8128 563.827 71.0753 569.728 77.8254 574.09L78.3682 573.25ZM58.1783 552.331C54.1109 545.673 50.8863 537.905 48.8763 529.03L47.901 529.25C49.9344 538.229 53.1992 546.099 57.3249 552.853L58.1783 552.331ZM48.0546 524.958C46.7014 517.346 46.2158 508.975 46.8092 499.846L45.8113 499.781C45.213 508.985 45.7018 517.437 47.07 525.133L48.0546 524.958ZM47.1549 495.634C47.5544 491.596 48.1609 487.416 48.9911 483.094L48.0091 482.906C47.1733 487.256 46.5624 491.466 46.1598 495.536L47.1549 495.634ZM48.9911 483.094C49.7952 478.91 50.7112 474.901 51.7323 471.063L50.7659 470.806C49.7386 474.668 48.8174 478.699 48.0091 482.906L48.9911 483.094ZM52.8547 467.055C55.3473 458.586 58.3718 450.991 61.8458 444.195L60.9554 443.74C57.4509 450.595 54.4042 458.249 51.8954 466.772L52.8547 467.055ZM63.7643 440.604C68.0255 432.968 72.8855 426.413 78.213 420.823L77.4891 420.133C72.1012 425.787 67.1916 432.41 62.8911 440.116L63.7643 440.604ZM81.1011 417.929C87.2339 412.062 93.9244 407.37 100.992 403.691L100.53 402.804C93.382 406.525 86.6137 411.272 80.4098 417.206L81.1011 417.929ZM104.655 401.889C112.136 398.418 119.994 396.013 128.026 394.495L127.84 393.513C119.736 395.044 111.798 397.472 104.234 400.982L104.655 401.889ZM132.065 393.808C140.174 392.579 148.421 392.213 156.602 392.529L156.641 391.53C148.405 391.211 140.094 391.579 131.915 392.819L132.065 393.808ZM160.698 392.745C168.997 393.294 177.19 394.52 185.056 396.231L185.269 395.254C177.359 393.534 169.117 392.3 160.764 391.747L160.698 392.745ZM189.065 397.151C197.413 399.167 205.337 401.706 212.563 404.529L212.927 403.598C205.66 400.759 197.693 398.206 189.3 396.179L189.065 397.151ZM216.347 406.059C224.901 409.638 232.324 413.577 238.115 417.428L238.669 416.595C232.816 412.703 225.334 408.736 216.733 405.137L216.347 406.059ZM241.482 419.792C245.565 422.833 248.501 425.735 250.076 428.264L250.925 427.736C249.253 425.051 246.203 422.062 242.079 418.99L241.482 419.792ZM250.076 428.264C252.121 431.549 253.228 434.789 253.584 437.9L254.577 437.786C254.203 434.516 253.042 431.136 250.925 427.736L250.076 428.264ZM253.677 441.331C253.263 448.221 249.25 454.366 243.646 458.71L244.259 459.5C250.026 455.03 254.24 448.641 254.675 441.391L253.677 441.331ZM240.797 460.68C234.67 464.444 227.337 466.136 220.962 464.73L220.746 465.707C227.429 467.18 235.026 465.399 241.321 461.532L240.797 460.68ZM217.7 463.697C214.687 462.424 212.001 460.314 209.915 457.22L209.086 457.78C211.282 461.036 214.122 463.271 217.311 464.618L217.7 463.697ZM209.915 457.22C207.66 453.877 206.117 450.431 205.226 446.925L204.257 447.171C205.177 450.795 206.77 454.346 209.086 457.78L209.915 457.22ZM204.526 443.209C203.636 436.029 205.335 428.613 209.209 421.298L208.326 420.83C204.377 428.284 202.614 435.906 203.534 443.332L204.526 443.209ZM211.112 417.993C214.793 412.071 219.868 406.26 226.103 400.749L225.441 400C219.149 405.561 214.004 411.445 210.263 417.465L211.112 417.993ZM229.015 398.267C234.589 393.68 240.964 389.334 247.993 385.342L247.499 384.472C240.426 388.489 234.002 392.868 228.379 397.495L229.015 398.267ZM251.343 383.493C257.851 380.003 264.868 376.816 272.287 374.015L271.934 373.08C264.476 375.895 257.418 379.1 250.87 382.612L251.343 383.493ZM275.894 372.695C282.953 370.193 290.347 368.042 297.987 366.309L297.766 365.334C290.088 367.075 282.656 369.238 275.56 371.753L275.894 372.695ZM301.736 365.497C305.465 364.726 309.247 364.057 313.073 363.495L312.927 362.505C309.082 363.07 305.281 363.743 301.534 364.517L301.736 365.497Z" fill="black"/>
<path d="M771 460.001L771.217 460.451L771 460.001ZM687 609.501L686.961 609.999L687 609.501ZM599.556 447.051L599.866 447.444L599.556 447.051ZM633.439 484.511L633.763 484.892L633.439 484.511ZM528.252 391.747C528.014 391.608 527.708 391.689 527.569 391.927L525.301 395.814C525.162 396.053 525.243 396.359 525.481 396.498C525.72 396.637 526.026 396.557 526.165 396.318L528.18 392.863L531.636 394.878C531.874 395.017 532.18 394.937 532.32 394.698C532.459 394.46 532.378 394.153 532.14 394.014L528.252 391.747ZM981.09 523.214C978.642 526.717 976.167 530.061 973.666 533.251L974.453 533.868C976.965 530.663 979.452 527.304 981.91 523.786L981.09 523.214ZM971.158 536.391C965.659 543.139 960.049 549.16 954.358 554.503L955.043 555.232C960.767 549.857 966.408 543.804 971.933 537.022L971.158 536.391ZM951.332 557.274C944.876 563.038 938.325 567.949 931.726 572.08L932.256 572.928C938.906 568.765 945.502 563.82 951.998 558.02L951.332 557.274ZM928.206 574.207C920.79 578.53 913.321 581.889 905.866 584.385L906.184 585.334C913.705 582.815 921.235 579.428 928.71 575.071L928.206 574.207ZM901.976 585.61C893.867 588.004 885.785 589.397 877.813 589.918L877.878 590.916C885.922 590.39 894.077 588.985 902.259 586.57L901.976 585.61ZM873.717 590.11C865.385 590.347 857.19 589.646 849.228 588.158L849.044 589.141C857.072 590.641 865.339 591.348 873.745 591.109L873.717 590.11ZM845.209 587.336C837.122 585.54 829.299 582.941 821.843 579.701L821.445 580.618C828.956 583.882 836.84 586.501 844.992 588.312L845.209 587.336ZM818.098 578.006C810.567 574.459 803.444 570.264 796.843 565.597L796.266 566.414C802.913 571.113 810.086 575.338 817.672 578.91L818.098 578.006ZM793.537 563.189C786.789 558.122 780.64 552.569 775.223 546.734L774.49 547.414C779.949 553.293 786.142 558.887 792.937 563.988L793.537 563.189ZM772.477 543.68C766.812 537.175 762.057 530.375 758.386 523.552L757.506 524.026C761.215 530.92 766.014 537.781 771.722 544.337L772.477 543.68ZM756.529 519.906C752.678 511.897 750.368 503.934 749.864 496.453L748.867 496.52C749.38 504.154 751.734 512.242 755.627 520.339L756.529 519.906ZM749.772 492.37C749.969 483.974 752.627 476.322 758.161 470.054L757.411 469.393C751.703 475.858 748.974 483.745 748.772 492.346L749.772 492.37ZM760.982 467.207C763.809 464.656 767.207 462.385 771.217 460.451L770.783 459.55C766.696 461.521 763.216 463.844 760.312 466.464L760.982 467.207ZM771.217 460.451C775.129 458.565 778.816 457.255 782.272 456.464L782.049 455.489C778.51 456.3 774.752 457.637 770.783 459.55L771.217 460.451ZM786.034 455.794C794.846 454.685 802.009 457.153 807.445 462.154L808.122 461.418C802.459 456.208 794.999 453.658 785.909 454.802L786.034 455.794ZM810.104 464.963C814.528 470.308 817.52 477.653 818.959 486.246L819.946 486.081C818.486 477.366 815.441 469.842 810.874 464.325L810.104 464.963ZM819.488 490.07C820.281 497.27 820.053 505.193 818.751 513.43L819.739 513.586C821.053 505.271 821.286 497.258 820.482 489.96L819.488 490.07ZM818.065 517.301C816.618 524.659 814.326 532.21 811.156 539.67L812.077 540.061C815.273 532.538 817.585 524.921 819.046 517.494L818.065 517.301ZM809.57 543.238C806.357 550.148 802.38 556.938 797.612 563.382L798.416 563.977C803.226 557.477 807.237 550.628 810.476 543.659L809.57 543.238ZM795.235 566.482C790.489 572.457 785.033 578.089 778.845 583.188L779.481 583.96C785.725 578.814 791.23 573.131 796.018 567.104L795.235 566.482ZM775.767 585.633C769.761 590.23 763.112 594.335 755.8 597.791L756.227 598.695C763.604 595.209 770.314 591.067 776.375 586.427L775.767 585.633ZM752.242 599.399C745.365 602.364 737.931 604.766 729.926 606.486L730.136 607.464C738.204 605.731 745.7 603.308 752.638 600.317L752.242 599.399ZM726.042 607.258C718.733 608.595 710.965 609.373 702.729 609.506L702.745 610.506C711.034 610.372 718.857 609.589 726.222 608.242L726.042 607.258ZM698.83 609.521C694.998 609.488 691.068 609.318 687.039 609.002L686.961 609.999C691.013 610.317 694.966 610.488 698.821 610.521L698.83 609.521ZM687.039 609.002C682.74 608.665 678.597 608.223 674.608 607.68L674.473 608.671C678.482 609.216 682.643 609.661 686.961 609.999L687.039 609.002ZM670.426 607.067C661.569 605.67 653.498 603.766 646.153 601.428L645.85 602.381C653.246 604.735 661.368 606.65 670.27 608.054L670.426 607.067ZM642.253 600.122C633.764 597.136 626.304 593.546 619.77 589.477L619.241 590.326C625.842 594.436 633.369 598.057 641.921 601.065L642.253 600.122ZM616.327 587.232C609.016 582.238 602.963 576.609 598.004 570.547L597.23 571.18C602.25 577.317 608.374 583.01 615.763 588.057L616.327 587.232ZM595.449 567.256C590.365 560.355 586.593 552.959 583.909 545.347L582.966 545.679C585.68 553.378 589.497 560.862 594.644 567.849L595.449 567.256ZM582.62 541.399C580.183 533.317 578.908 525.046 578.539 516.909L577.54 516.955C577.913 525.164 579.199 533.518 581.662 541.688L582.62 541.399ZM578.428 512.753C578.355 504.147 579.259 495.76 580.824 487.983L579.844 487.786C578.266 495.625 577.355 504.081 577.428 512.762L578.428 512.753ZM581.711 483.935C583.84 474.946 586.827 466.93 590.135 460.549L589.247 460.089C585.897 466.551 582.884 474.645 580.737 483.704L581.711 483.935ZM592.153 456.924C594.697 452.676 597.345 449.435 599.866 447.444L599.247 446.659C596.594 448.754 593.873 452.107 591.295 456.41L592.153 456.924ZM599.866 447.444C602.903 445.046 605.999 443.584 609.051 442.885L608.828 441.91C605.62 442.645 602.39 444.177 599.247 446.659L599.866 447.444ZM612.451 442.41C619.344 442.054 625.898 445.358 630.839 450.442L631.556 449.745C626.471 444.513 619.652 441.037 612.399 441.411L612.451 442.41ZM633.114 453.054C637.537 458.724 640.034 465.824 639.348 472.316L640.342 472.421C641.062 465.615 638.446 458.264 633.902 452.439L633.114 453.054ZM638.684 475.672C637.755 478.808 635.957 481.712 633.115 484.13L633.763 484.892C636.755 482.346 638.659 479.275 639.643 475.956L638.684 475.672ZM633.115 484.13C630.043 486.743 626.791 488.661 623.406 489.936L623.758 490.872C627.257 489.554 630.609 487.576 633.763 484.892L633.115 484.13ZM619.79 491.045C612.754 492.729 605.196 491.868 597.495 488.832L597.128 489.762C604.976 492.856 612.746 493.76 620.023 492.018L619.79 491.045ZM593.998 487.309C587.703 484.311 581.363 479.914 575.192 474.331L574.521 475.073C580.749 480.707 587.169 485.164 593.568 488.212L593.998 487.309ZM572.401 471.714C567.222 466.686 562.193 460.834 557.443 454.293L556.634 454.881C561.414 461.463 566.48 467.359 571.705 472.432L572.401 471.714ZM555.233 451.171C551.039 445.092 547.09 438.473 543.481 431.412L542.591 431.868C546.219 438.965 550.19 445.622 554.41 451.738L555.233 451.171ZM541.768 427.974C538.495 421.238 535.534 414.13 532.961 406.73L532.016 407.058C534.602 414.495 537.578 421.64 540.868 428.411L541.768 427.974ZM531.736 403.095C530.555 399.475 529.468 395.791 528.484 392.052L527.517 392.306C528.506 396.065 529.599 399.767 530.785 403.405L531.736 403.095Z" fill="black"/>
<path d="M324.86 351.347C325.052 351.148 325.046 350.831 324.847 350.64L321.603 347.52C321.404 347.329 321.088 347.335 320.896 347.534C320.705 347.733 320.711 348.049 320.91 348.241L323.793 351.014L321.02 353.897C320.829 354.096 320.835 354.412 321.034 354.604C321.233 354.795 321.549 354.789 321.741 354.59L324.86 351.347ZM123.113 297.316C125.099 299.751 127.827 302.472 131.323 305.362L131.96 304.591C128.502 301.732 125.823 299.057 123.887 296.684L123.113 297.316ZM134.316 307.732C139.429 311.619 145.874 315.748 153.721 319.859L154.185 318.973C146.382 314.885 139.984 310.785 134.921 306.936L134.316 307.732ZM157.133 321.601C163.332 324.684 170.329 327.737 178.154 330.647L178.503 329.71C170.709 326.811 163.744 323.773 157.578 320.706L157.133 321.601ZM181.731 331.947C188.443 334.328 195.729 336.6 203.608 338.698L203.865 337.732C196.012 335.641 188.751 333.377 182.065 331.004L181.731 331.947ZM207.27 339.65C214.267 341.424 221.712 343.059 229.616 344.514L229.797 343.531C221.914 342.079 214.491 340.449 207.516 338.681L207.27 339.65ZM233.389 345.189C240.557 346.433 248.091 347.529 255.999 348.447L256.114 347.454C248.225 346.538 240.709 345.445 233.56 344.203L233.389 345.189ZM259.804 348.872C267.089 349.654 274.682 350.285 282.59 350.743L282.648 349.745C274.756 349.287 267.179 348.658 259.91 347.878L259.804 348.872ZM286.375 350.948C293.726 351.318 301.343 351.54 309.229 351.596L309.237 350.596C301.364 350.54 293.762 350.319 286.425 349.949L286.375 350.948ZM313.08 351.61C316.83 351.611 320.64 351.575 324.51 351.5L324.49 350.5C320.627 350.575 316.823 350.611 313.08 350.61L313.08 351.61Z" fill="black"/>
<path d="M350.325 418.5L350.031 418.095L350.325 418.5ZM422.325 463L421.913 462.716L422.325 463ZM437.178 389.646C436.983 389.451 436.667 389.451 436.471 389.646L433.289 392.828C433.094 393.023 433.094 393.34 433.289 393.535C433.485 393.73 433.801 393.73 433.997 393.535L436.825 390.707L439.653 393.535C439.849 393.73 440.165 393.73 440.36 393.535C440.556 393.34 440.556 393.023 440.36 392.828L437.178 389.646ZM404.31 435.621C405.289 431.705 403.24 426.523 399.256 421.903L398.498 422.557C402.409 427.09 404.2 431.939 403.34 435.379L404.31 435.621ZM395.738 418.411C389.105 412.738 379.239 408.656 368.044 410.352L368.194 411.341C379.054 409.695 388.636 413.653 395.088 419.171L395.738 418.411ZM363.21 411.433C358.921 412.705 354.495 414.857 350.031 418.095L350.619 418.905C354.998 415.728 359.322 413.629 363.494 412.392L363.21 411.433ZM350.031 418.095C346.661 420.541 343.822 423.176 341.477 425.946L342.24 426.592C344.53 423.887 347.308 421.306 350.619 418.905L350.031 418.095ZM339.107 429.025C334.288 435.951 332.287 443.533 332.518 450.975L333.517 450.944C333.293 443.709 335.235 436.34 339.928 429.597L339.107 429.025ZM332.838 454.846C333.862 462.464 337.159 469.776 342.065 475.915L342.846 475.29C338.043 469.281 334.827 462.136 333.83 454.713L332.838 454.846ZM344.608 478.839C349.879 484.416 356.58 488.757 364.11 491.055L364.401 490.098C357.048 487.854 350.495 483.612 345.335 478.152L344.608 478.839ZM367.867 492.015C375.046 493.498 382.838 493.129 390.767 490.286L390.429 489.345C382.677 492.125 375.071 492.482 368.069 491.035L367.867 492.015ZM394.358 488.83C400.628 485.992 406.928 481.562 413.031 475.248L412.312 474.553C406.286 480.788 400.087 485.139 393.946 487.919L394.358 488.83ZM415.601 472.463C418.021 469.719 420.404 466.666 422.737 463.284L421.913 462.716C419.602 466.067 417.243 469.089 414.851 471.802L415.601 472.463ZM422.737 463.284C424.744 460.374 426.481 457.185 427.983 453.777L427.068 453.374C425.587 456.732 423.88 459.865 421.913 462.716L422.737 463.284ZM429.357 450.431C431.817 444.002 433.544 436.904 434.745 429.484L433.758 429.324C432.564 436.697 430.852 443.725 428.423 450.074L429.357 450.431ZM435.279 425.92C436.251 418.891 436.792 411.621 437.071 404.39L436.071 404.351C435.794 411.56 435.254 418.796 434.288 425.783L435.279 425.92ZM437.188 400.792C437.286 397.162 437.325 393.552 437.325 390H436.325C436.325 393.545 436.286 397.145 436.188 400.765L437.188 400.792Z" fill="black"/>
</svg>
