<svg aria-hidden="true" style="position: absolute; width: 0; height: 0; overflow: hidden;" version="1.1" xmlns="http://www.w3.org/2000/svg" xmlns:xlink="http://www.w3.org/1999/xlink">
	<defs>
		<symbol id="instagram" viewBox="0 0 30 30">
			<title>
				instagram
			</title>
			<rect width="30" height="30" fill="#FF662D" />
			<path d="M18.6689 7H11.331C8.94287 7 7 8.94287 7 11.331V18.669C7 21.0571 8.94287 23 11.331 23H18.669C21.0571 23 23 21.0571 23 18.669V11.331C23 8.94287 21.0571 7 18.6689 7ZM15 19.3749C12.5876 19.3749 10.6251 17.4123 10.6251 15C10.6251 12.5876 12.5876 10.6251 15 10.6251C17.4123 10.6251 19.3749 12.5876 19.3749 15C19.3749 17.4123 17.4123 19.3749 15 19.3749ZM19.4795 11.6569C18.7666 11.6569 18.1867 11.077 18.1867 10.3641C18.1867 9.65124 18.7666 9.07129 19.4795 9.07129C20.1924 9.07129 20.7723 9.65124 20.7723 10.3641C20.7723 11.077 20.1924 11.6569 19.4795 11.6569Z" fill="white" />
			<path d="M15 12.3335C13.5297 12.3335 12.3334 13.5297 12.3334 15.0002C12.3334 16.4705 13.5297 17.6668 15 17.6668C16.4705 17.6668 17.6667 16.4705 17.6667 15.0002C17.6667 13.5297 16.4705 12.3335 15 12.3335Z" fill="white" />
			>
		</symbol>
		<symbol id="facebook" viewBox="0 0 30 30">
			<title>
				facebook
			</title>
			<rect width="30" height="30" fill="#FF662D" />
			<path d="M18.9178 14.9827H16.4707V24H12.7633V14.9827H11V11.8136H12.7633V9.76288C12.7633 8.29638 13.4558 6 16.5037 6L19.25 6.01156V9.08766H17.2574C16.9306 9.08766 16.471 9.25192 16.471 9.95148V11.8166H19.2417L18.9178 14.9827Z" fill="white" />
		</symbol>
		<symbol id="youtube" viewBox="0 0 30 30">
			<title>
				youtube
			</title>
			<rect width="30" height="30" fill="#FF662D" />
			<path d="M20.2616 8H9.73837C7.67372 8 6 9.70825 6 11.8155V17.1845C6 19.2917 7.67372 21 9.73837 21H20.2616C22.3263 21 24 19.2917 24 17.1845V11.8155C24 9.70825 22.3263 8 20.2616 8ZM17.7334 14.7612L12.8113 17.1572C12.6802 17.221 12.5287 17.1234 12.5287 16.9751V12.0335C12.5287 11.8831 12.6842 11.7856 12.8156 11.8536L17.7377 14.3993C17.884 14.475 17.8815 14.6892 17.7334 14.7612Z" fill="white" />
		</symbol>
		<symbol id="telegram" viewBox="0 0 30 30">
			<title>
				telegram
			</title>
			<rect width="30" height="30" fill="#FF662D" />
			<path d="M12.0631 17.2269L11.7653 21.1357C12.1913 21.1357 12.3758 20.9649 12.5971 20.7598L14.5944 18.9783L18.733 21.807C19.492 22.2018 20.0267 21.9939 20.2315 21.1553L22.9481 9.27498L22.9488 9.27428C23.1896 8.22708 22.5431 7.81758 21.8035 8.07448L5.83565 13.7802C4.74588 14.175 4.76238 14.7419 5.6504 14.9988L9.73275 16.1839L19.2152 10.6463C19.6615 10.3705 20.0672 10.5231 19.7335 10.7989L12.0631 17.2269Z" fill="white" />
		</symbol>
	</defs>
</svg>
