<svg width="60" height="60" viewBox="0 0 60 60" fill="none" xmlns="http://www.w3.org/2000/svg">
<circle cx="30" cy="30" r="30" fill="black"/>
<path d="M43.125 24.5475V21.5625C43.125 20.0092 41.8658 18.75 40.3125 18.75H39.375V20.625H40.3125C40.8303 20.625 41.25 21.0447 41.25 21.5625V24.5475C40.1303 24.9434 39.3799 25.9999 39.375 27.1875V28.125H30.9375V21.5625C30.9375 21.0447 31.3572 20.625 31.875 20.625H33.75V18.75H31.875C31.1827 18.7494 30.5147 19.0052 30 19.4681C29.4853 19.0052 28.8173 18.7494 28.125 18.75H26.25V20.625H28.125C28.6428 20.625 29.0625 21.0447 29.0625 21.5625V28.125H20.625V27.1875C20.6201 25.9999 19.8697 24.9434 18.75 24.5475V21.5625C18.75 21.0447 19.1697 20.625 19.6875 20.625H20.6644V18.75H19.6875C18.1342 18.75 16.875 20.0092 16.875 21.5625V24.5475C15.7553 24.9434 15.0049 25.9999 15 27.1875V39.375H16.875V41.25H18.75V39.375H41.25V41.25H43.125V39.375H45V27.1875C44.9951 25.9999 44.2447 24.9434 43.125 24.5475ZM18.75 37.5H16.875V27.1875C16.875 26.6697 17.2947 26.25 17.8125 26.25C18.3303 26.25 18.75 26.6697 18.75 27.1875V37.5ZM39.375 37.5H20.625V33.75H39.375V37.5ZM39.375 31.875H20.625V30H39.375V31.875ZM43.125 37.5H41.25V27.1875C41.25 26.6697 41.6697 26.25 42.1875 26.25C42.7053 26.25 43.125 26.6697 43.125 27.1875V37.5Z" fill="white"/>
<path d="M24.375 18.75H22.5V20.625H24.375V18.75Z" fill="white"/>
<path d="M37.5 18.75H35.625V20.625H37.5V18.75Z" fill="white"/>
</svg>
