<svg width="60" height="60" viewBox="0 0 60 60" fill="none" xmlns="http://www.w3.org/2000/svg">
<circle cx="30" cy="30" r="30" fill="black"/>
<path d="M41.37 21.4284L42.8053 20.2237C42.3601 19.6916 41.857 19.2109 41.3053 18.7903L40.1681 20.2809C40.6095 20.6182 41.0126 21.003 41.37 21.4284Z" fill="white"/>
<path d="M43.9594 21.9534L42.2925 22.8141C42.6971 23.5942 42.9594 24.4403 43.0669 25.3125H28.1841C28.6612 21.5651 31.8473 18.7551 35.625 18.75C36.7004 18.747 37.7637 18.9776 38.7412 19.4259L39.5212 17.7188C38.5857 17.2921 37.5859 17.0238 36.5625 16.9247V15H34.6875V16.9228C29.9 17.4097 26.2561 21.4379 26.25 26.25V27.1875H34.6875V30H36.5625V27.1875H45V26.25C44.9988 24.7556 44.6421 23.2828 43.9594 21.9534Z" fill="white"/>
<path d="M36.5625 35.6251H34.6875V43.1251H32.4544L30.0844 38.3841L32.7534 31.2676L30.9966 30.6113L29.8191 33.7501H23.7956L21.9206 37.5001H19.1859L15.4359 43.1251H15V45.0001H45V43.1251H36.5625V35.6251ZM24.9544 35.6251H29.1159L28.4128 37.5001H24.0169L24.9544 35.6251ZM17.6888 43.1251L20.1891 39.3751H28.4831L30.3581 43.1251H17.6888Z" fill="white"/>
<path d="M36.5625 31.875H34.6875V33.75H36.5625V31.875Z" fill="white"/>
</svg>
