<svg width="360" height="605" viewBox="0 0 360 605" fill="none" xmlns="http://www.w3.org/2000/svg">
<path d="M650.814 181.638L650.329 181.52L650.814 181.638ZM464.285 243.493L463.939 243.853L464.285 243.493ZM477.816 311.629L478.188 311.963L477.816 311.629ZM305.251 352.261C305.006 352.389 304.912 352.692 305.041 352.936L307.132 356.921C307.261 357.165 307.563 357.259 307.807 357.131C308.052 357.002 308.146 356.7 308.018 356.456L306.158 352.914L309.7 351.055C309.944 350.926 310.039 350.624 309.91 350.38C309.782 350.135 309.48 350.041 309.235 350.169L305.251 352.261ZM305.335 353.181C308.47 354.158 312.188 355.24 316.402 356.313L316.649 355.344C312.454 354.276 308.754 353.199 305.632 352.226L305.335 353.181ZM320.139 357.228C326.769 358.789 334.431 360.255 342.851 361.255L342.968 360.262C334.591 359.267 326.968 357.808 320.368 356.255L320.139 357.228ZM346.684 361.671C353.915 362.383 361.649 362.73 369.728 362.491L369.698 361.492C361.667 361.729 353.976 361.385 346.782 360.676L346.684 361.671ZM373.584 362.333C380.99 361.945 388.656 361.049 396.466 359.484L396.27 358.504C388.512 360.059 380.893 360.949 373.532 361.335L373.584 362.333ZM400.226 358.681C407.495 357.029 414.87 354.782 422.257 351.809L421.884 350.882C414.549 353.833 407.225 356.065 400.004 357.705L400.226 358.681ZM425.798 350.329C432.608 347.372 439.416 343.783 446.146 339.459L445.606 338.618C438.922 342.911 432.162 346.476 425.399 349.412L425.798 350.329ZM449.358 337.336C455.461 333.185 461.489 328.413 467.387 322.945L466.708 322.212C460.846 327.646 454.857 332.386 448.796 336.509L449.358 337.336ZM470.169 320.305C472.874 317.678 475.548 314.9 478.188 311.963L477.444 311.295C474.819 314.214 472.16 316.976 469.473 319.588L470.169 320.305ZM478.188 311.963C481.184 308.63 484.002 305.335 486.651 302.079L485.875 301.448C483.237 304.691 480.429 307.974 477.444 311.295L478.188 311.963ZM489.354 298.696C495.1 291.369 499.982 284.249 504.083 277.362L503.224 276.85C499.146 283.698 494.288 290.783 488.567 298.079L489.354 298.696ZM506.223 273.664C510.862 265.408 514.373 257.5 516.901 249.984L515.954 249.665C513.446 257.117 509.962 264.968 505.352 273.174L506.223 273.664ZM518.196 245.883C520.909 236.682 522.134 228.104 522.156 220.235L521.156 220.232C521.134 227.999 519.925 236.483 517.237 245.6L518.196 245.883ZM522.044 215.907C521.52 206.332 519.171 197.912 515.572 190.822L514.68 191.275C518.213 198.235 520.528 206.519 521.046 215.961L522.044 215.907ZM513.449 187.024C508.527 178.996 501.91 172.993 494.644 169.333L494.194 170.226C501.286 173.798 507.767 179.669 512.597 187.546L513.449 187.024ZM490.642 167.579C486.45 166.007 482.113 165.192 477.816 165.192V166.192C481.986 166.192 486.205 166.983 490.291 168.516L490.642 167.579ZM477.816 165.192C474.149 165.192 470.248 165.832 466.398 167.063L466.702 168.016C470.464 166.812 474.263 166.192 477.816 166.192V165.192ZM462.768 168.408C455.808 171.348 449.29 176.247 445.005 182.848L445.844 183.392C450.002 176.987 456.349 172.205 463.158 169.329L462.768 168.408ZM443.09 186.222C439.978 192.571 438.871 200.205 440.994 208.915L441.965 208.678C439.897 200.191 440.98 192.797 443.988 186.662L443.09 186.222ZM442.074 212.621C444.163 218.797 447.849 225.456 453.515 232.54L454.296 231.915C448.688 224.904 445.066 218.345 443.021 212.3L442.074 212.621ZM455.991 235.514C458.342 238.235 460.985 241.016 463.939 243.853L464.632 243.132C461.698 240.314 459.077 237.556 456.747 234.861L455.991 235.514ZM463.939 243.853C466.928 246.723 470.169 249.33 473.626 251.676L474.187 250.848C470.775 248.533 467.578 245.962 464.632 243.132L463.939 243.853ZM477.117 253.913C484.064 258.113 491.769 261.341 499.962 263.613L500.229 262.65C492.115 260.399 484.496 257.206 477.634 253.057L477.117 253.913ZM503.987 264.644C511.873 266.499 520.157 267.504 528.614 267.672L528.634 266.672C520.243 266.505 512.029 265.508 504.216 263.671L503.987 264.644ZM532.763 267.687C540.929 267.587 549.222 266.719 557.442 265.093L557.248 264.112C549.087 265.726 540.855 266.588 532.751 266.688L532.763 267.687ZM561.496 264.228C569.525 262.39 577.454 259.825 585.093 256.545L584.699 255.626C577.116 258.882 569.245 261.428 561.273 263.253L561.496 264.228ZM588.874 254.852C596.377 251.351 603.563 247.143 610.247 242.236L609.656 241.43C603.027 246.296 595.898 250.471 588.452 253.946L588.874 254.852ZM613.545 239.726C620.029 234.609 625.986 228.802 631.23 222.313L630.452 221.684C625.257 228.112 619.355 233.868 612.926 238.941L613.545 239.726ZM633.771 219.039C638.646 212.499 642.815 205.315 646.108 197.497L645.187 197.109C641.925 204.85 637.797 211.964 632.97 218.442L633.771 219.039ZM647.635 193.659C649.068 189.835 650.296 185.867 651.3 181.757L650.329 181.52C649.334 185.591 648.118 189.521 646.699 193.308L647.635 193.659ZM651.3 181.757C652.241 177.907 652.987 174.023 653.555 170.115L652.565 169.971C652.002 173.849 651.261 177.702 650.329 181.52L651.3 181.757ZM654.064 166.195C654.962 158.358 655.165 150.44 654.789 142.521L653.79 142.568C654.164 150.439 653.962 158.303 653.07 166.081L654.064 166.195ZM654.555 138.579C653.996 130.722 652.886 122.877 651.34 115.12L650.36 115.316C651.898 123.036 653.001 130.84 653.558 138.65L654.555 138.579ZM650.533 111.256C648.842 103.514 646.732 95.8741 644.319 88.4144L643.367 88.7223C645.772 96.1543 647.873 103.763 649.556 111.47L650.533 111.256ZM643.078 84.673C640.498 77.0793 637.618 69.689 634.562 62.5869L633.644 62.9822C636.69 70.0626 639.561 77.4283 642.131 84.9946L643.078 84.673ZM632.982 58.9739C629.66 51.5029 626.161 44.3759 622.636 37.696L621.752 38.1628C625.267 44.8247 628.756 51.9315 632.068 59.3802L632.982 58.9739ZM620.779 34.2213C616.728 26.7405 612.677 19.8715 608.852 13.7699L608.005 14.3011C611.819 20.3859 615.86 27.2365 619.899 34.6974L620.779 34.2213ZM606.743 10.4454C604.437 6.85522 602.233 3.56876 600.184 0.622785L599.363 1.19362C601.405 4.12955 603.602 7.40589 605.902 10.9859L606.743 10.4454Z" fill="black"/>
<path d="M304.569 312.365C304.708 312.603 305.014 312.683 305.253 312.544L309.136 310.269C309.374 310.13 309.454 309.824 309.314 309.585C309.175 309.347 308.869 309.267 308.63 309.407L305.179 311.428L303.157 307.977C303.018 307.738 302.711 307.658 302.473 307.798C302.235 307.938 302.155 308.244 302.294 308.482L304.569 312.365ZM305.484 312.239C306.544 308.18 307.665 304.187 308.844 300.26L307.886 299.972C306.704 303.911 305.58 307.915 304.516 311.986L305.484 312.239ZM310.043 296.349C312.574 288.27 315.352 280.472 318.354 272.947L317.425 272.576C314.414 280.125 311.627 287.947 309.089 296.05L310.043 296.349ZM319.9 269.142C323.13 261.339 326.603 253.836 330.292 246.621L329.401 246.166C325.7 253.404 322.217 260.932 318.976 268.759L319.9 269.142ZM332.191 242.969C336.129 235.518 340.3 228.382 344.672 221.55L343.83 221.011C339.443 227.866 335.258 235.026 331.307 242.501L332.191 242.969ZM346.916 218.098C351.551 211.075 356.4 204.381 361.43 198.003L360.645 197.384C355.598 203.784 350.732 210.501 346.081 217.548L346.916 218.098ZM363.998 194.794C369.295 188.268 374.782 182.083 380.419 176.223L379.698 175.53C374.042 181.409 368.537 187.616 363.221 194.164L363.998 194.794ZM383.301 173.269C389.206 167.3 395.267 161.679 401.441 156.392L400.791 155.632C394.597 160.937 388.515 166.576 382.59 172.566L383.301 173.269ZM404.61 153.715C411.068 148.335 417.639 143.313 424.275 138.63L423.698 137.813C417.041 142.511 410.449 147.549 403.97 152.946L404.61 153.715ZM427.659 136.275C434.601 131.51 441.606 127.112 448.617 123.059L448.117 122.193C441.084 126.259 434.057 130.671 427.093 135.45L427.659 136.275ZM452.22 121.007C459.599 116.866 466.975 113.104 474.285 109.697L473.863 108.791C466.531 112.208 459.132 115.982 451.73 120.135L452.22 121.007ZM478.024 107.983C485.796 104.477 493.48 101.371 500.998 98.6359L500.656 97.6961C493.116 100.439 485.408 103.555 477.613 107.071L478.024 107.983ZM504.893 97.2464C513.041 94.3983 520.974 91.9873 528.59 89.9762L528.335 89.0094C520.694 91.027 512.736 93.4456 504.563 96.3025L504.893 97.2464ZM532.591 88.9489C541.177 86.8075 549.324 85.1813 556.88 84.0142L556.727 83.0259C549.14 84.1978 540.963 85.8301 532.349 87.9787L532.591 88.9489ZM560.964 83.4197C565.278 82.8308 569.379 82.3972 573.233 82.1075L573.158 81.1103C569.282 81.4017 565.162 81.8374 560.829 82.4289L560.964 83.4197Z" fill="black"/>
<path d="M143.876 394.362C143.664 394.185 143.349 394.213 143.171 394.424L140.281 397.874C140.104 398.086 140.132 398.401 140.343 398.578C140.555 398.756 140.871 398.728 141.048 398.516L143.617 395.45L146.683 398.019C146.894 398.196 147.21 398.168 147.387 397.957C147.565 397.745 147.537 397.43 147.325 397.252L143.876 394.362ZM61.272 601.444C63.8995 598.857 66.7334 595.888 69.7148 592.563L68.9703 591.895C66.0014 595.206 63.1818 598.16 60.5705 600.731L61.272 601.444ZM72.4186 589.496C77.2589 583.914 82.4252 577.464 87.6856 570.255L86.8778 569.665C81.6335 576.852 76.4846 583.28 71.663 588.841L72.4186 589.496ZM90.0716 566.941C94.5684 560.613 99.1084 553.746 103.549 546.408L102.693 545.89C98.2661 553.207 93.7396 560.053 89.2565 566.362L90.0716 566.941ZM105.64 542.904C109.664 536.067 113.586 528.845 117.297 521.289L116.399 520.848C112.7 528.38 108.79 535.58 104.778 542.397L105.64 542.904ZM119.071 517.616C122.515 510.366 125.755 502.824 128.698 495.033L127.763 494.68C124.83 502.443 121.601 509.96 118.168 517.187L119.071 517.616ZM130.118 491.192C132.864 483.59 135.319 475.762 137.399 467.748L136.431 467.497C134.359 475.479 131.914 483.277 129.177 490.852L130.118 491.192ZM138.395 463.778C140.304 455.895 141.842 447.84 142.933 439.649L141.942 439.517C140.856 447.671 139.324 455.692 137.423 463.543L138.395 463.778ZM143.436 435.585C144.357 427.525 144.837 419.34 144.802 411.066L143.802 411.07C143.837 419.303 143.359 427.448 142.443 435.471L143.436 435.585ZM144.743 406.976C144.643 402.903 144.415 398.811 144.053 394.702L143.057 394.79C143.417 398.877 143.643 402.949 143.744 407.001L144.743 406.976Z" fill="black"/>
<path d="M424.315 441.62L424.532 442.07L424.315 441.62ZM343.131 586.108L343.092 586.606L343.131 586.108ZM258.619 429.105L258.309 428.713L258.619 429.105ZM291.366 465.309L291.69 465.689L291.366 465.309ZM189.714 375.641C189.476 375.501 189.17 375.582 189.03 375.821L186.763 379.708C186.624 379.946 186.705 380.252 186.943 380.392C187.182 380.531 187.488 380.45 187.627 380.212L189.642 376.756L193.098 378.771C193.336 378.911 193.642 378.83 193.782 378.591C193.921 378.353 193.84 378.047 193.602 377.908L189.714 375.641ZM627.347 502.704C624.981 506.089 622.589 509.321 620.173 512.405L620.96 513.021C623.387 509.923 625.791 506.677 628.167 503.277L627.347 502.704ZM617.749 515.438C612.435 521.96 607.013 527.779 601.513 532.942L602.198 533.671C607.731 528.475 613.184 522.624 618.524 516.07L617.749 515.438ZM598.589 535.619C592.35 541.189 586.02 545.935 579.643 549.927L580.173 550.775C586.6 546.752 592.976 541.971 599.255 536.365L598.589 535.619ZM576.242 551.983C569.075 556.16 561.858 559.406 554.654 561.818L554.971 562.767C562.241 560.332 569.52 557.058 576.745 552.846L576.242 551.983ZM550.894 563.002C543.058 565.316 535.248 566.661 527.545 567.165L527.61 568.163C535.386 567.654 543.269 566.296 551.177 563.961L550.894 563.002ZM523.587 567.35C515.536 567.579 507.616 566.902 499.922 565.464L499.739 566.447C507.499 567.897 515.489 568.581 523.615 568.35L523.587 567.35ZM496.039 564.67C488.225 562.934 480.665 560.423 473.46 557.292L473.061 558.209C480.321 561.364 487.942 563.896 495.822 565.646L496.039 564.67ZM469.841 555.653C462.563 552.226 455.68 548.172 449.301 543.663L448.724 544.479C455.148 549.021 462.082 553.105 469.415 556.558L469.841 555.653ZM446.106 541.335C439.585 536.439 433.643 531.072 428.408 525.433L427.675 526.114C432.951 531.797 438.938 537.203 445.506 542.134L446.106 541.335ZM425.754 522.483C420.28 516.196 415.686 509.625 412.138 503.033L411.258 503.507C414.844 510.171 419.482 516.803 425 523.14L425.754 522.483ZM410.343 499.509C406.623 491.77 404.391 484.076 403.904 476.849L402.907 476.916C403.403 484.297 405.679 492.115 409.442 499.943L410.343 499.509ZM403.815 472.904C404.005 464.794 406.573 457.402 411.918 451.348L411.169 450.686C405.649 456.938 403.01 464.564 402.815 472.881L403.815 472.904ZM414.644 448.597C417.374 446.133 420.657 443.939 424.532 442.07L424.098 441.17C420.146 443.075 416.782 445.321 413.974 447.855L414.644 448.597ZM424.532 442.07C428.767 440.029 432.729 438.686 436.41 437.964L436.217 436.983C432.44 437.723 428.397 439.097 424.098 441.17L424.532 442.07ZM440.534 437.402C449.846 436.714 457.159 440.29 462.352 446.743L463.131 446.116C457.739 439.416 450.111 435.692 440.461 436.405L440.534 437.402ZM464.743 450.156C468.584 456.455 470.864 464.709 471.451 474.065L472.449 474.002C471.855 464.532 469.545 456.109 465.597 449.636L464.743 450.156ZM471.6 478.212C471.675 486.047 470.623 494.51 468.385 503.13L469.353 503.381C471.611 494.683 472.676 486.132 472.6 478.202L471.6 478.212ZM467.256 507.158C464.922 514.909 461.632 522.724 457.345 530.266L458.215 530.76C462.539 523.151 465.859 515.267 468.214 507.446L467.256 507.158ZM455.201 533.881C450.898 540.833 445.723 547.498 439.642 553.604L440.35 554.31C446.488 548.147 451.711 541.421 456.051 534.407L455.201 533.881ZM436.606 556.536C430.651 562.062 423.901 567.061 416.331 571.311L416.82 572.183C424.462 567.893 431.275 562.846 437.286 557.269L436.606 556.536ZM412.601 573.309C405.464 576.954 397.641 579.948 389.112 582.122L389.359 583.091C397.96 580.899 405.852 577.878 413.055 574.2L412.601 573.309ZM385.028 583.088C377.265 584.783 368.941 585.813 360.044 586.059L360.071 587.058C369.029 586.811 377.415 585.774 385.242 584.065L385.028 583.088ZM355.795 586.116C351.704 586.114 347.497 585.949 343.17 585.609L343.092 586.606C347.444 586.947 351.677 587.114 355.794 587.116L355.795 586.116ZM343.17 585.609C339.015 585.284 335.012 584.856 331.156 584.331L331.022 585.322C334.897 585.849 338.919 586.279 343.092 586.606L343.17 585.609ZM327.115 583.738C318.556 582.389 310.756 580.549 303.659 578.289L303.355 579.242C310.505 581.518 318.355 583.369 326.96 584.726L327.115 583.738ZM299.89 577.027C291.687 574.142 284.478 570.673 278.164 566.741L277.635 567.59C284.015 571.563 291.291 575.063 299.558 577.971L299.89 577.027ZM274.837 564.571C267.772 559.746 261.924 554.306 257.132 548.449L256.358 549.082C261.211 555.014 267.13 560.518 274.273 565.397L274.837 564.571ZM254.663 545.27C249.751 538.601 246.106 531.455 243.513 524.099L242.57 524.431C245.193 531.874 248.883 539.109 253.858 545.863L254.663 545.27ZM242.266 520.284C239.911 512.475 238.68 504.482 238.323 496.62L237.324 496.665C237.685 504.6 238.927 512.675 241.309 520.573L242.266 520.284ZM238.216 492.604C238.146 484.288 239.019 476.182 240.531 468.668L239.551 468.471C238.026 476.047 237.145 484.221 237.216 492.612L238.216 492.604ZM241.388 464.756C243.446 456.069 246.332 448.324 249.529 442.158L248.641 441.697C245.403 447.944 242.489 455.768 240.415 464.525L241.388 464.756ZM251.478 438.655C253.937 434.551 256.494 431.42 258.929 429.497L258.309 428.713C255.743 430.739 253.112 433.981 250.62 438.142L251.478 438.655ZM258.929 429.497C261.862 427.181 264.852 425.77 267.799 425.094L267.576 424.12C264.473 424.831 261.349 426.312 258.309 428.713L258.929 429.497ZM271.082 424.636C277.738 424.292 284.068 427.482 288.841 432.394L289.558 431.697C284.641 426.637 278.046 423.275 271.031 423.637L271.082 424.636ZM291.038 434.917C295.311 440.394 297.723 447.252 297.06 453.52L298.054 453.626C298.75 447.043 296.22 439.934 291.827 434.302L291.038 434.917ZM296.419 456.761C295.521 459.789 293.786 462.593 291.042 464.928L291.69 465.689C294.584 463.227 296.426 460.256 297.378 457.045L296.419 456.761ZM291.042 464.928C288.074 467.452 284.933 469.304 281.663 470.536L282.016 471.472C285.399 470.197 288.64 468.284 291.69 465.689L291.042 464.928ZM278.171 471.608C271.375 473.234 264.073 472.402 256.633 469.469L256.266 470.399C263.853 473.39 271.366 474.264 278.404 472.58L278.171 471.608ZM253.254 467.998C247.173 465.101 241.046 460.852 235.083 455.458L234.412 456.199C240.432 461.645 246.638 465.954 252.824 468.9L253.254 467.998ZM232.386 452.929C227.382 448.07 222.521 442.415 217.931 436.094L217.122 436.682C221.742 443.044 226.64 448.743 231.69 453.646L232.386 452.929ZM215.795 433.077C211.743 427.202 207.927 420.806 204.439 413.983L203.548 414.438C207.056 421.298 210.894 427.733 214.972 433.644L215.795 433.077ZM202.783 410.66C199.621 404.15 196.759 397.281 194.272 390.13L193.328 390.458C195.827 397.646 198.704 404.552 201.884 411.097L202.783 410.66ZM193.089 386.617C191.948 383.119 190.897 379.559 189.946 375.945L188.979 376.2C189.935 379.833 190.991 383.411 192.138 386.927L193.089 386.617Z" fill="black"/>
<path d="M17.7441 401.511L17.4504 401.106L17.7441 401.511ZM87.3301 444.519L86.9185 444.235L87.3301 444.519ZM101.697 373.612C101.502 373.417 101.186 373.417 100.99 373.612L97.8083 376.794C97.6131 376.99 97.6131 377.306 97.8083 377.501C98.0036 377.697 98.3202 377.697 98.5154 377.501L101.344 374.673L104.172 377.501C104.368 377.697 104.684 377.697 104.879 377.501C105.075 377.306 105.075 376.99 104.879 376.794L101.697 373.612ZM69.9353 418.062C70.8835 414.269 68.8993 409.255 65.0468 404.789L64.2896 405.442C68.0679 409.822 69.7943 414.503 68.9651 417.819L69.9353 418.062ZM61.645 401.412C55.2318 395.927 45.692 391.979 34.8667 393.619L35.0165 394.608C45.5072 393.019 54.7632 396.842 60.995 402.172L61.645 401.412ZM30.1923 394.665C26.045 395.895 21.7662 397.975 17.4504 401.106L18.0377 401.915C22.2686 398.846 26.4459 396.819 30.4766 395.624L30.1923 394.665ZM17.4504 401.106C14.1917 403.47 11.4473 406.018 9.17951 408.696L9.9427 409.342C12.1552 406.729 14.8395 404.236 18.0377 401.915L17.4504 401.106ZM6.88857 411.674C2.22849 418.37 0.293945 425.701 0.517255 432.897L1.51677 432.866C1.29989 425.877 3.17631 418.759 7.70938 412.245L6.88857 411.674ZM0.827227 436.641C1.81704 444.007 5.00486 451.076 9.74782 457.011L10.529 456.387C5.88896 450.581 2.78188 443.678 1.81832 436.507L0.827227 436.641ZM12.2064 459.838C17.3026 465.23 23.7811 469.427 31.0616 471.649L31.3535 470.692C24.25 468.525 17.9186 464.426 12.9331 459.151L12.2064 459.838ZM34.6942 472.577C41.6354 474.011 49.17 473.655 56.8356 470.906L56.4981 469.965C49.0082 472.651 41.6605 472.995 34.8965 471.598L34.6942 472.577ZM60.3077 469.498C66.3694 466.754 72.4604 462.472 78.3602 456.368L77.6412 455.673C71.8183 461.697 65.8288 465.901 59.8952 468.587L60.3077 469.498ZM80.8438 453.676C83.1833 451.023 85.4873 448.071 87.7417 444.803L86.9185 444.235C84.6851 447.473 82.4053 450.393 80.0938 453.015L80.8438 453.676ZM87.7417 444.803C89.6822 441.989 91.3614 438.906 92.8135 435.612L91.8985 435.208C90.468 438.454 88.8184 441.48 86.9185 444.235L87.7417 444.803ZM94.1422 432.377C96.5198 426.162 98.1889 419.301 99.3499 412.129L98.3627 411.969C97.2094 419.094 95.5549 425.885 93.2083 432.02L94.1422 432.377ZM99.8661 408.684C100.805 401.89 101.329 394.864 101.598 387.874L100.599 387.836C100.331 394.802 99.8092 401.795 98.8755 408.547L99.8661 408.684ZM101.712 384.397C101.807 380.888 101.844 377.4 101.844 373.966H100.844C100.844 377.393 100.807 380.872 100.712 384.37L101.712 384.397Z" fill="black"/>
</svg>
