<svg width="60" height="60" viewBox="0 0 60 60" fill="none" xmlns="http://www.w3.org/2000/svg">
<circle cx="30" cy="30" r="30" fill="black"/>
<path d="M39.375 37.5C37.3039 37.5 35.625 39.1789 35.625 41.25C35.625 43.3211 37.3039 45 39.375 45C41.4461 45 43.125 43.3211 43.125 41.25C43.125 39.1789 41.4461 37.5 39.375 37.5ZM39.375 43.125C38.3395 43.125 37.5 42.2855 37.5 41.25C37.5 40.2145 38.3395 39.375 39.375 39.375C40.4105 39.375 41.25 40.2145 41.25 41.25C41.25 42.2855 40.4105 43.125 39.375 43.125Z" fill="white"/>
<path d="M26.25 37.5C24.1789 37.5 22.5 39.1789 22.5 41.25C22.5 43.3211 24.1789 45 26.25 45C28.3211 45 30 43.3211 30 41.25C30 39.1789 28.3211 37.5 26.25 37.5ZM26.25 43.125C25.2145 43.125 24.375 42.2855 24.375 41.25C24.375 40.2145 25.2145 39.375 26.25 39.375C27.2855 39.375 28.125 40.2145 28.125 41.25C28.125 42.2855 27.2855 43.125 26.25 43.125Z" fill="white"/>
<path d="M26.25 35.625V33.75H23.4375C22.402 33.75 21.5625 32.9105 21.5625 31.875V18.75C21.5625 16.6789 19.8836 15 17.8125 15H15V16.875H17.8125C18.848 16.875 19.6875 17.7145 19.6875 18.75V31.875C19.6875 33.9461 21.3664 35.625 23.4375 35.625H26.25Z" fill="white"/>
<path d="M45 33.75H31.875V35.625H45V33.75Z" fill="white"/>
<path d="M27.1875 31.875H32.8125V30H27.1875C26.6697 30 26.25 29.5803 26.25 29.0625V21.5625C26.25 21.0447 26.6697 20.625 27.1875 20.625H40.3125C40.8303 20.625 41.25 21.0447 41.25 21.5625V29.0625C41.25 29.5803 40.8303 30 40.3125 30H38.4375V31.875H40.3125C41.8658 31.875 43.125 30.6158 43.125 29.0625V21.5625C43.125 20.0092 41.8658 18.75 40.3125 18.75H37.5V15H30V18.75H27.1875C25.6342 18.75 24.375 20.0092 24.375 21.5625V29.0625C24.375 30.6158 25.6342 31.875 27.1875 31.875ZM31.875 16.875H35.625V18.75H31.875V16.875Z" fill="white"/>
<path d="M30 22.5H28.125V28.125H30V22.5Z" fill="white"/>
<path d="M39.375 22.5H37.5V28.125H39.375V22.5Z" fill="white"/>
<path d="M30 33.75H28.125V35.625H30V33.75Z" fill="white"/>
<path d="M36.5625 30H34.6875V31.875H36.5625V30Z" fill="white"/>
</svg>
