<svg width="60" height="60" viewBox="0 0 60 60" fill="none" xmlns="http://www.w3.org/2000/svg">
<circle cx="30" cy="30" r="30" fill="black"/>
<path d="M44.4643 23.8393H41.4965C42.0075 23.2698 42.3215 22.5204 42.3215 21.6964C42.3215 19.9237 40.8799 18.4821 39.1072 18.4821C37.3345 18.4821 35.8929 19.9237 35.8929 21.6964C35.8929 22.5204 36.2068 23.2698 36.7179 23.8393H35.3572C35.0609 23.8393 34.8215 24.0793 34.8215 24.375V24.9648C33.6006 25.2139 32.6786 26.2955 32.6786 27.5893V31.3393C32.6786 32.6325 33.6006 33.7146 34.8215 33.9637V37.0607L32.2431 40.6709C32.0738 40.9077 32.1247 41.2361 32.3577 41.4107L34.5006 43.0179C34.5938 43.088 34.7068 43.125 34.822 43.125C34.8525 43.125 34.882 43.1223 34.9125 43.1175C35.0577 43.0929 35.1863 43.0087 35.2677 42.8866L38.482 38.0652C38.5399 37.9773 38.5715 37.8734 38.5715 37.7679V35.7514L40.1786 38.9657V42.5893C40.1786 42.885 40.4181 43.125 40.7143 43.125H43.3929C43.6892 43.125 43.9286 42.885 43.9286 42.5893V38.8393C43.9286 38.7562 43.9093 38.6737 43.8724 38.5998L41.4215 33.698C42.119 33.3289 42.6413 32.6705 42.8031 31.875H44.4643C44.7606 31.875 45 31.635 45 31.3393V24.375C45 24.0793 44.7606 23.8393 44.4643 23.8393ZM36.9643 21.6964C36.9643 20.5146 37.9254 19.5536 39.1072 19.5536C40.289 19.5536 41.25 20.5146 41.25 21.6964C41.25 22.8782 40.289 23.8393 39.1072 23.8393C37.9254 23.8393 36.9643 22.8782 36.9643 21.6964ZM34.6897 41.8211L33.419 40.8675L35.7933 37.5434C35.8581 37.4529 35.8929 37.3436 35.8929 37.2321V34.0179H37.5V37.6055L34.6897 41.8211ZM42.8572 38.9657V42.0536H41.25V38.8393C41.25 38.7562 41.2308 38.6737 41.1938 38.5998L38.9025 34.0179H40.1786C40.245 34.0179 40.3077 34.0029 40.3731 33.998L42.8572 38.9657ZM40.1786 32.9464H35.3572C34.4711 32.9464 33.75 32.2254 33.75 31.3393V27.5893C33.75 26.8918 34.1995 26.3025 34.8215 26.0807V27.5893V31.3393C34.8215 31.635 35.0609 31.875 35.3572 31.875H41.6942C41.4729 32.4986 40.8772 32.9464 40.1786 32.9464ZM43.9286 30.8036H42.3215H40.1786V29.1964H39.1072V30.8036H35.8929V27.5893V24.9107H43.9286V30.8036Z" fill="white"/>
<path d="M29.4643 23.5714C29.4643 23.2827 29.393 23.0121 29.2762 22.7679H32.9464C33.9804 22.7679 34.8214 21.9268 34.8214 20.8929C34.8214 19.8589 33.9804 19.0179 32.9464 19.0179H21.4286H20.3571H18.75H16.6071H15V20.0893H16.0714V29.7321H15V30.8036H16.6071H18.75H27.5893C28.6232 30.8036 29.4643 29.9625 29.4643 28.9286C29.4643 28.4036 29.2462 27.93 28.8975 27.5893C29.2462 27.2486 29.4643 26.775 29.4643 26.25C29.4643 25.725 29.2462 25.2514 28.8975 24.9107C29.2462 24.57 29.4643 24.0964 29.4643 23.5714ZM18.2143 29.7321H17.1429V20.0893H18.2143V29.7321ZM33.75 20.8929C33.75 21.3359 33.3895 21.6964 32.9464 21.6964H27.5893H24.1071C24.1071 21.0911 23.8977 20.5382 23.5575 20.0893H32.9464C33.3895 20.0893 33.75 20.4498 33.75 20.8929ZM28.3929 26.25C28.3929 26.693 28.0323 27.0536 27.5893 27.0536H23.5714V28.125H27.5893C28.0323 28.125 28.3929 28.4855 28.3929 28.9286C28.3929 29.3716 28.0323 29.7321 27.5893 29.7321H19.2857V20.0893H20.3571H21.4286C22.3146 20.0893 23.0357 20.8104 23.0357 21.6964V24.9107C23.0357 25.3537 22.6752 25.7143 22.2321 25.7143C21.7891 25.7143 21.4286 25.3537 21.4286 24.9107V22.2321H20.3571V24.9107C20.3571 25.9446 21.1982 26.7857 22.2321 26.7857C23.0786 26.7857 23.7873 26.2184 24.0198 25.4464H27.5893C28.0323 25.4464 28.3929 25.807 28.3929 26.25ZM24.1071 24.375V22.7679H27.5893C28.0323 22.7679 28.3929 23.1284 28.3929 23.5714C28.3929 24.0145 28.0323 24.375 27.5893 24.375H24.1071Z" fill="white"/>
<path d="M31.0714 42.0536H30V43.125H31.0714V42.0536Z" fill="white"/>
<path d="M28.9286 42.0536H27.8572V43.125H28.9286V42.0536Z" fill="white"/>
<path d="M26.7857 42.0536H25.7142V43.125H26.7857V42.0536Z" fill="white"/>
</svg>
